<svg xmlns="http://www.w3.org/2000/svg" viewBox="0 0 535.02 617.78"><g id="BLACK_THUMB" data-name="BLACK THUMB"><path id="path5211" d="M393.77,100.14a21.58,21.58,0,1,0,21.1,21.58A21.34,21.34,0,0,0,393.77,100.14Z" transform="translate(-13.49 27.89)"/><path d="M393.77,143.79a22.08,22.08,0,1,1,21.59-22.07A21.86,21.86,0,0,1,393.77,143.79Z" transform="translate(-13.49 27.89)"/><polygon points="392.17 239.53 383.17 230.53 352.18 230.53 357.62 299.03 375.62 299.03 375.74 254.22 384.74 254.22 384.62 299.03 402.62 299.03 407.51 239.53 392.17 239.53"/><path d="M417.27,152.13v-7h-5.83c-4.5,5.87-10.92,9.47-17.67,9.48S380.6,151,376.1,145.14H370v7c-2.37,1.5-4.87,3.23-7.88,5.57l3,37.94h34.44l9,9h13l3.86-46.94A95.61,95.61,0,0,0,417.27,152.13Zm-9.75,24-8.42-8.42,8.42-8.42,8.42,8.42Z" transform="translate(-13.49 27.89)"/><path d="M340.79,284.57,322.48,248h-83l-18.31,36.62H126.65V335.2l73.24,18.31v53.65l38.06,19L257,483.41h48l19.07-57.22,38.06-19V353.51l73.24-18.31V284.57Zm-25,.6H246.16v-14h69.68Z" transform="translate(-13.49 27.89)"/><polygon points="113.16 508.3 165.5 534.47 165.5 396.59 113.16 383.5 113.16 508.3"/><polygon points="369.52 534.47 421.86 508.3 421.86 383.5 369.52 396.59 369.52 534.47"/><polygon points="348.62 477.27 314.58 477.27 314.58 518.5 296.27 536.81 296.27 572.31 348.62 542.09 348.62 477.27"/><polygon points="238.75 536.81 220.44 518.5 220.44 477.27 186.4 477.27 186.4 542.09 238.75 572.31 238.75 536.81"/></g><g id="Layer_47" data-name="Layer 47"><path d="M281,1,523.51,141V421L281,561,38.49,421V141L281,1m0-28.87-12.5,7.21L26,119.34l-12.5,7.21v308.9L26,442.66l242.51,140,12.5,7.21,12.5-7.21L536,442.66l12.5-7.21V126.55L536,119.34,293.5-20.68,281-27.89Z" transform="translate(-13.49 27.89)"/></g></svg>