<svg xmlns="http://www.w3.org/2000/svg" viewBox="0 0 535.02 617.78"><defs><style>.cls-1{fill:blue;}.cls-2{stroke:#000;stroke-miterlimit:10;stroke-width:11px;}</style></defs><g id="Bonded"><polygon points="190.96 140.06 199.32 156.78 200.12 158.37 201.9 158.37 246.3 158.37 246.3 178.56 211.86 187.18 209.68 187.72 209.68 189.97 209.68 215.02 192.24 223.74 191.17 224.27 190.79 225.4 181.91 252.05 162.08 252.05 153.2 225.4 152.82 224.27 151.75 223.74 134.31 215.02 134.31 189.97 134.31 187.72 132.14 187.18 97.69 178.56 97.69 158.37 142.1 158.37 143.88 158.37 144.67 156.78 153.03 140.06 190.96 140.06"/><polygon points="246.3 194.7 246.3 251.64 225.88 261.86 225.88 199.81 246.3 194.7"/><polygon points="97.69 194.7 118.11 199.81 118.11 261.86 97.69 251.64 97.69 194.7"/><polygon points="190.96 140.06 199.32 156.78 200.12 158.37 201.9 158.37 246.3 158.37 246.3 178.56 211.86 187.18 209.68 187.72 209.68 189.97 209.68 215.02 192.24 223.74 191.17 224.27 190.79 225.4 181.91 252.05 162.08 252.05 153.2 225.4 152.82 224.27 151.75 223.74 134.31 215.02 134.31 189.97 134.31 187.72 132.14 187.18 97.69 178.56 97.69 158.37 142.1 158.37 143.88 158.37 144.67 156.78 153.03 140.06 190.96 140.06"/><polygon points="158.34 306.77 172 312.98 185.65 306.77 185.65 295.88 172 302.09 158.34 295.88 158.34 306.77"/><path d="M185.48,356.85l83.64-43.15,1.64-1.06.49-.37c8.87-7.69,9.7-16.26,9.4-20.68-.59-8.74-6.13-16.56-15.58-22-8.86-5.12-20.52-7.94-32.84-7.94-1.84,0-3.66.07-5.46.2v12.62q2.7-.21,5.46-.21c10.94,0,21.14,2.41,28.74,6.8,5.87,3.4,9.54,7.75,9.8,11.63s-2.85,7.18-4.88,9l-.72.47-79.68,41.11L107.23,302.7a14.1,14.1,0,0,1-5.53-4.94,8.56,8.56,0,0,1-1.49-5.09c.26-3.89,3.92-8.23,9.8-11.63,7.59-4.39,17.8-6.8,28.74-6.8,1.84,0,3.66.07,5.45.21V261.83c-1.8-.13-3.62-.2-5.45-.2-12.32,0-24,2.82-32.84,7.94-9.46,5.46-15,13.28-15.58,22a23.22,23.22,0,0,0,2.44,11.92,24.7,24.7,0,0,0,10.82,10.77Z" transform="translate(-13.49 27.89)"/><polygon points="246.3 194.7 246.3 251.64 225.88 261.86 225.88 199.81 246.3 194.7"/><polygon points="97.69 194.7 118.11 199.81 118.11 261.86 97.69 251.64 97.69 194.7"/><polygon points="145.58 240.78 145.58 258.52 145.58 259.71 146.42 260.55 154.74 268.87 154.74 325.3 134.31 325.3 134.31 240.78 145.58 240.78"/><path d="M159.07,212.89v18.93l.85.84,8.31,8.32v56.43H147.81V212.89h11.26" transform="translate(-13.49 27.89)"/><polygon points="209.68 240.78 209.68 325.3 189.25 325.3 189.25 268.87 197.57 260.55 198.41 259.71 198.41 258.52 198.41 240.78 209.68 240.78"/><path d="M223.17,212.89v84.52H202.75V241l8.31-8.32.84-.84V212.89h11.27" transform="translate(-13.49 27.89)"/><polygon points="381.99 242.3 390.35 259.03 391.14 260.62 392.92 260.62 437.33 260.62 437.33 280.81 402.88 289.42 400.7 289.97 400.7 292.21 400.7 317.26 383.26 325.98 382.2 326.52 381.82 327.65 372.94 354.29 353.1 354.29 344.22 327.65 343.84 326.52 342.78 325.98 325.34 317.26 325.34 292.21 325.34 289.97 323.16 289.42 288.71 280.81 288.71 260.62 333.12 260.62 334.9 260.62 335.69 259.03 344.06 242.3 381.99 242.3"/><polygon points="437.33 296.95 437.33 353.89 416.9 364.1 416.9 302.05 437.33 296.95"/><polygon class="cls-1" points="288.71 296.95 309.14 302.05 309.14 364.1 288.71 353.89 288.71 296.95"/><polygon points="381.99 242.3 390.35 259.03 391.14 260.62 392.92 260.62 437.33 260.62 437.33 280.81 402.88 289.42 400.7 289.97 400.7 292.21 400.7 317.26 383.26 325.98 382.2 326.52 381.82 327.65 372.94 354.29 353.1 354.29 344.22 327.65 343.84 326.52 342.78 325.98 325.34 317.26 325.34 292.21 325.34 289.97 323.16 289.42 288.71 280.81 288.71 260.62 333.12 260.62 334.9 260.62 335.69 259.03 344.06 242.3 381.99 242.3"/><polygon points="349.37 406.57 363.02 414.23 376.67 406.57 376.67 393.13 363.02 400.79 349.37 393.13 349.37 406.57"/><path d="M471.67,386.48c-.59-8.48-6.12-16.08-15.58-21.38-8.85-5-20.51-7.71-32.84-7.71-1.83,0-3.65.07-5.45.19v12.25c1.79-.13,3.61-.2,5.45-.2,10.94,0,21.15,2.35,28.74,6.61,5.88,3.29,9.54,7.51,9.8,11.29s-2.84,7-4.88,8.72l-.71.46-79.68,39.91-80.6-40.53c-2-1.79-4.94-5-4.69-8.56.27-3.78,3.93-8,9.81-11.29,7.59-4.26,17.8-6.61,28.73-6.61,1.85,0,3.66.07,5.46.2V357.58c-1.8-.12-3.62-.19-5.46-.19-12.32,0-24,2.74-32.84,7.71-9.45,5.3-15,12.89-15.58,21.38-.3,4.29.52,12.6,9.39,20.07l.44.37,85.33,42.91,83.64-41.89,1.64-1,.49-.36C471.15,399.09,472,390.77,471.67,386.48Z" transform="translate(-13.49 27.89)"/><polygon points="437.33 296.95 437.33 353.89 416.9 364.1 416.9 302.05 437.33 296.95"/><polygon points="288.71 296.95 309.14 302.05 309.14 364.1 288.71 353.89 288.71 296.95"/><polygon points="336.61 343.03 336.61 360.77 336.61 361.96 337.45 362.8 345.76 371.11 345.76 427.55 325.34 427.55 325.34 343.03 336.61 343.03"/><path d="M350.1,315.13v18.93l.84.85,8.31,8.31v56.43H338.83V315.13H350.1" transform="translate(-13.49 27.89)"/><polygon points="400.7 343.03 400.7 427.55 380.28 427.55 380.28 371.11 388.59 362.8 389.44 361.96 389.44 360.77 389.44 343.03 400.7 343.03"/><path d="M414.19,315.13v84.52H393.77V343.22l8.31-8.31.85-.85V315.13h11.26" transform="translate(-13.49 27.89)"/><line class="cls-2" x1="212.85" y1="354.29" x2="288.32" y2="397.13"/></g><g id="Layer_31" data-name="Layer 31"><path d="M281,1,523.51,141V421L281,561,38.49,421V141L281,1m0-28.87-12.5,7.21L26,119.34l-12.5,7.21v308.9L26,442.66l242.51,140,12.5,7.21,12.5-7.21L536,442.66l12.5-7.21V126.55L536,119.34,293.5-20.68,281-27.89Z" transform="translate(-13.49 27.89)"/></g></svg>