<svg xmlns="http://www.w3.org/2000/svg" viewBox="0 0 535.02 617.78"><defs><style>.cls-1,.cls-2,.cls-3{stroke:#fff;stroke-miterlimit:10;}.cls-1,.cls-3{stroke-linecap:round;}.cls-1{stroke-width:3px;}.cls-2,.cls-3{stroke-width:4px;}</style></defs><g id="Gunslinger"><path class="cls-1" d="M331.08,197.11" transform="translate(-13.49 27.89)"/><path class="cls-2" d="M123.87,196.49" transform="translate(-13.49 27.89)"/><path class="cls-3" d="M224.42,240.38" transform="translate(-13.49 27.89)"/><path d="M179,229.86" transform="translate(-13.49 27.89)"/><path d="M133.71,403.34l.18-56.47c0-9.17-7.65-16.65-17.13-16.68a17.55,17.55,0,0,0-12.19,4.86,16.2,16.2,0,0,0-5,11.71l-.18,56.58Z" transform="translate(-13.49 27.89)"/><polygon points="85.83 437.88 85.79 451.13 120.15 451.24 120.19 437.88 85.83 437.88"/><path d="M199.1,403.34l.18-56.47c0-9.17-7.65-16.65-17.13-16.68a17.59,17.59,0,0,0-12.2,4.86,16.23,16.23,0,0,0-5,11.71l-.18,56.58Z" transform="translate(-13.49 27.89)"/><polygon points="151.22 437.88 151.18 451.13 185.54 451.24 185.58 437.88 151.22 437.88"/><path d="M199.16,403.34l.18-56.47c0-9.17-7.65-16.65-17.12-16.68a17.55,17.55,0,0,0-12.2,4.86,16.28,16.28,0,0,0-5,11.71l-.18,56.58Z" transform="translate(-13.49 27.89)"/><polygon points="151.29 437.88 151.24 451.13 185.6 451.24 185.65 437.88 151.29 437.88"/><path d="M264.55,403.34l.18-56.47c0-9.17-7.65-16.65-17.13-16.68a17.55,17.55,0,0,0-12.19,4.86,16.28,16.28,0,0,0-5,11.71l-.18,56.58Z" transform="translate(-13.49 27.89)"/><polygon points="216.68 437.88 216.63 451.13 250.99 451.24 251.04 437.88 216.68 437.88"/><path d="M263.68,403.34l.19-56.47c0-9.17-7.66-16.65-17.13-16.68a17.55,17.55,0,0,0-12.2,4.86,16.23,16.23,0,0,0-5,11.71l-.19,56.58Z" transform="translate(-13.49 27.89)"/><polygon points="215.81 437.88 215.76 451.13 250.13 451.24 250.17 437.88 215.81 437.88"/><path d="M329.07,403.34l.18-56.47c0-9.17-7.65-16.65-17.12-16.68a17.55,17.55,0,0,0-12.2,4.86,16.28,16.28,0,0,0-5,11.71l-.18,56.58Z" transform="translate(-13.49 27.89)"/><polygon points="281.2 437.88 281.15 451.13 315.51 451.24 315.56 437.88 281.2 437.88"/><path d="M329.13,403.34l.19-56.47c0-9.17-7.66-16.65-17.13-16.68a17.57,17.57,0,0,0-12.2,4.86,16.23,16.23,0,0,0-5,11.71l-.19,56.58Z" transform="translate(-13.49 27.89)"/><polygon points="281.26 437.88 281.22 451.13 315.58 451.24 315.62 437.88 281.26 437.88"/><path d="M394.52,403.34l.19-56.47c0-9.17-7.66-16.65-17.13-16.68a17.55,17.55,0,0,0-12.2,4.86,16.23,16.23,0,0,0-5,11.71l-.19,56.58Z" transform="translate(-13.49 27.89)"/><polygon points="346.65 437.88 346.61 451.13 380.97 451.24 381.01 437.88 346.65 437.88"/><path d="M394.59,403.34l.18-56.47c0-9.17-7.65-16.65-17.13-16.68a17.55,17.55,0,0,0-12.19,4.86,16.2,16.2,0,0,0-5,11.71l-.18,56.58Z" transform="translate(-13.49 27.89)"/><polygon points="346.71 437.88 346.67 451.13 381.03 451.24 381.07 437.88 346.71 437.88"/><path d="M460,403.34l.18-56.47c0-9.17-7.66-16.65-17.13-16.68a17.57,17.57,0,0,0-12.2,4.86,16.23,16.23,0,0,0-5,11.71l-.18,56.58Z" transform="translate(-13.49 27.89)"/><polygon points="412.1 437.88 412.06 451.13 446.42 451.24 446.46 437.88 412.1 437.88"/><path class="cls-1" d="M315.78,195.15" transform="translate(-13.49 27.89)"/><path class="cls-2" d="M108.57,194.54" transform="translate(-13.49 27.89)"/><path class="cls-3" d="M209.12,238.43" transform="translate(-13.49 27.89)"/><path d="M163.62,237.37" transform="translate(-13.49 27.89)"/><polygon points="155.2 200.56 121.3 166.66 155.2 166.66 155.2 200.56"/><path d="M139.82,201.75c-22.25,25.51-36.9,56.72-43.52,92.75l-.06.3A6.16,6.16,0,0,0,101,302l45.62,10.16a6.37,6.37,0,0,0,1.36.15,6.19,6.19,0,0,0,6.07-5.07c.86-4.65,1.63-9.07,2.36-13.27,4.67-26.9,7.76-44.67,23.08-63.86a11.54,11.54,0,0,0,2.34-9.15c0-.16-.08-.31-.11-.46H140.31V201.28Z" transform="translate(-13.49 27.89)"/><rect x="184.8" y="187.57" width="61.93" height="46.97"/><path d="M213,230v17.55a3.47,3.47,0,0,1-3.13,3.72H145.46a5.55,5.55,0,0,0,0,11.09h64.36c7.83,0,14.21-6.64,14.21-14.81V230Z" transform="translate(-13.49 27.89)"/><path d="M170.33,212.88l9.39-5.39.54-46.85h0a39.88,39.88,0,0,1-39,39.86,11.51,11.51,0,0,0-.88.83V220.5h29.94Z" transform="translate(-13.49 27.89)"/><polygon points="255.59 218.33 255.59 243.4 175.94 243.4 175.94 178.7 255.59 178.7 255.59 209.46 350.72 209.46 441.81 209.46 441.81 166.12 436.27 166.12 436.27 158.52 411.38 158.52 403.56 166.12 167.02 166.12 166.23 235.38 156.84 240.77 156.65 257.95 431.65 257.57 431.65 218.33 255.59 218.33"/></g><g id="Layer_31" data-name="Layer 31"><path d="M281,1,523.51,141V421L281,561,38.49,421V141L281,1m0-28.87-12.5,7.21L26,119.34l-12.5,7.21v308.9L26,442.66l242.51,140,12.5,7.21,12.5-7.21L536,442.66l12.5-7.21V126.55L536,119.34,293.5-20.68,281-27.89Z" transform="translate(-13.49 27.89)"/></g></svg>