<svg xmlns="http://www.w3.org/2000/svg" viewBox="0 0 535.02 617.78"><defs><style>.cls-1{stroke:#fff;stroke-miterlimit:10;stroke-width:2px;}</style></defs><g id="Nuclear_Cavalier" data-name="Nuclear Cavalier"><path class="cls-1" d="M32,322" transform="translate(-13.49 27.89)"/><path d="M281,131.22a149.05,149.05,0,0,1,74.9,20.05l51.63-89.43,7.22-12.51-121.25-70L281-27.89l-12.5,7.21-121.25,70,7.22,12.51,51.63,89.43A149.05,149.05,0,0,1,281,131.22Z" transform="translate(-13.49 27.89)"/><path d="M548.51,435.45V281H430.78A149.69,149.69,0,0,1,355.9,410.73l51.63,89.43,7.22,12.51,121.26-70Z" transform="translate(-13.49 27.89)"/><path d="M147.25,512.67l7.22-12.51,51.63-89.43A149.69,149.69,0,0,1,131.22,281H13.49V435.45L26,442.66Z" transform="translate(-13.49 27.89)"/><path d="M254.52,177.26,274.87,173l5.28-31.26,66.06,91.15L331,367l17,8.26V394H213V375.26L231,366l-12.48-26.74,63-99-20.23,9.51-16.8-3.65L221.61,256.4l-13.13-16.14Z" transform="translate(-13.49 27.89)"/><path d="M220.49,362.41l-9.22-19.76-1.86-4,2.36-3.7,49.07-77.11-1.24-.27-14.23-3.09-20.48,9.2-5.6,2.52-3.88-4.77-13.13-16.14-3.9-4.79,3.64-5,42.33-57.93a109.69,109.69,0,0,0-31.94,189Z" transform="translate(-13.49 27.89)"/><path d="M315.49,176.87l37.19,51.33,1.82,2.51-.35,3.09L339.59,362.28l9.55,4.64a109.68,109.68,0,0,0-33.65-190Z" transform="translate(-13.49 27.89)"/><g id="Layer_23" data-name="Layer 23"><rect x="199.42" y="428.84" width="135.09" height="10.74"/></g></g><g id="Layer_31" data-name="Layer 31"><path d="M281,1,523.51,141V421L281,561,38.49,421V141L281,1m0-28.87-12.5,7.21L26,119.34l-12.5,7.21v308.9L26,442.66l242.51,140,12.5,7.21,12.5-7.21L536,442.66l12.5-7.21V126.55L536,119.34,293.5-20.68,281-27.89Z" transform="translate(-13.49 27.89)"/></g></svg>