<svg xmlns="http://www.w3.org/2000/svg" viewBox="0 0 535.02 617.78"><g id="SIEGE_SPECIALIST_" data-name="SIEGE SPECIALIST 
"><path d="M339.81,304.58l-48.92-1.92L218.6,83l43.57-14.34Z" transform="translate(-13.49 27.89)"/><path d="M329.94,110.54l-103.61-4.06L207.75,50l103.6,4.06Z" transform="translate(-13.49 27.89)"/><path d="M339.81,304.58,236.2,300.51,217.62,244l103.6,4.07Z" transform="translate(-13.49 27.89)"/><path d="M118.28,456.79H457.12L374,435.88l66.38-38.61-88.83,15.26,26.73-56.24L311.63,397.7,287.7,340.2l-23.94,57.5-66.63-41.41,26.73,56.24L135,397.27l66.37,38.61Z" transform="translate(-13.49 27.89)"/><path d="M327.58,430.23l-48.92-1.92L236.2,300.51l31.43-53.21Z" transform="translate(-13.49 27.89)"/><rect x="60.03" y="362.72" width="359.43" height="8.37"/><path d="M433.26,210.37h48.92V188H433.26Z" transform="translate(-13.49 27.89)"/><path d="M433.26,279.51h46.83V257.18H433.26Z" transform="translate(-13.49 27.89)"/><path d="M468.59,244.94h62.83V222.61H468.59Z" transform="translate(-13.49 27.89)"/><path d="M492.15,279.51h45V257.18h-45Z" transform="translate(-13.49 27.89)"/><path d="M468.15,292l.15,22.34,71.46-.27-.15-22.33Z" transform="translate(-13.49 27.89)"/><path d="M397.92,314.23H456V291.89H397.92Z" transform="translate(-13.49 27.89)"/><path d="M421.48,348.79h69.44V326.46H421.48Z" transform="translate(-13.49 27.89)"/><path d="M468.59,383.36h62.83V361H468.59Z" transform="translate(-13.49 27.89)"/><path d="M503.16,348.79h31.77V326.46H503.16Z" transform="translate(-13.49 27.89)"/><path d="M503.92,417.93h27.5V395.6h-27.5Z" transform="translate(-13.49 27.89)"/><path d="M494.41,210.37h30.43V188H494.41Z" transform="translate(-13.49 27.89)"/><path d="M53.41,208.84h69.44V180.62H53.41Z" transform="translate(-13.49 27.89)"/><path d="M52.62,279.51h70.23V257.18H52.62Z" transform="translate(-13.49 27.89)"/><path d="M135.09,279.51h55.49V257.18H135.09Z" transform="translate(-13.49 27.89)"/><path d="M35.33,314.85h50.5V292.51H35.33Z" transform="translate(-13.49 27.89)"/><path d="M30.06,350.18h81V327.85h-81Z" transform="translate(-13.49 27.89)"/><path d="M98.06,314.85h56.63V292.51H98.06Z" transform="translate(-13.49 27.89)"/><path d="M52.77,385.13h69.45V362.8H52.77Z" transform="translate(-13.49 27.89)"/><path d="M141.49,162.25l15.8,15.8,40.77-40.78-15.79-15.8Z" transform="translate(-13.49 27.89)"/><path d="M357.43,246.87l15.79,15.8L414,221.89,398.21,206.1Z" transform="translate(-13.49 27.89)"/><path d="M35.33,419.7H95.87V397.36H35.33Z" transform="translate(-13.49 27.89)"/><path d="M88.74,244.18h69.45V221.84H88.74Z" transform="translate(-13.49 27.89)"/><path d="M30.06,244.18H76.51V221.84H30.06Z" transform="translate(-13.49 27.89)"/><polygon points="248.29 30.21 266.33 135.49 310.68 120.9 283.13 31.17 264.88 20.63 248.29 30.21"/></g><g id="Layer_47" data-name="Layer 47"><path d="M281,1,523.51,141V421L281,561,38.49,421V141L281,1m0-28.87-12.5,7.21L26,119.34l-12.5,7.21v308.9L26,442.66l242.51,140,12.5,7.21,12.5-7.21L536,442.66l12.5-7.21V126.55L536,119.34,293.5-20.68,281-27.89Z" transform="translate(-13.49 27.89)"/></g></svg>