<?xml version="1.0" encoding="utf-8"?>
<!-- Generator: Adobe Illustrator 24.2.1, SVG Export Plug-In . SVG Version: 6.00 Build 0)  -->
<svg version="1.1" id="Layer_1" xmlns="http://www.w3.org/2000/svg" xmlns:xlink="http://www.w3.org/1999/xlink" x="0px" y="0px"
	 viewBox="0 0 535 617.8" style="enable-background:new 0 0 535 617.8;" xml:space="preserve">
<style type="text/css">
	.st0{fill:#FFFFFF;}
</style>
<g id="Layer_94">
	<polygon points="216.8,281.8 233.9,290.4 233.9,245.2 216.8,240.9 	"/>
	<path d="M216.8,240.9l17.2,4.3v45.2l-17.2-8.6V240.9 M216.5,240.6V282l0.1,0.1l17.2,8.6l0.3,0.2V245H234l-17.2-4.3L216.5,240.6
		L216.5,240.6z"/>
	<polygon points="282.8,285.1 276.8,291.1 276.8,330.8 294,330.8 294,271.6 282.8,271.6 	"/>
	<path d="M294,271.6v59.2h-17.2v-39.7l6-6v-13.5H294 M294.2,271.4h-11.6V285l-5.9,5.9l-0.1,0.1v40h17.6L294.2,271.4L294.2,271.4z"/>
	<polygon points="251.9,271.6 240.8,271.6 240.8,330.8 258,330.8 258,291.1 251.9,285.1 	"/>
	<path d="M251.9,271.6v13.5l6,6v39.7h-17.2v-59.2H251.9 M252.2,271.4h-11.7v59.7h17.6v-40l-0.1-0.1l-5.9-5.9L252.2,271.4
		L252.2,271.4z"/>
	<polygon points="300.9,290.4 318,281.8 318,240.9 300.9,245.2 	"/>
	<path d="M318,240.9v40.9l-17.2,8.6v-45.2L318,240.9 M318.3,240.6l-0.3,0.1l-17.2,4.3h-0.2v45.8l0.4-0.2l17.2-8.6l0.1-0.1
		L318.3,240.6L318.3,240.6z"/>
	<path d="M318,217.3h-30.9l-5.9-11.9l-0.1-0.1h-27.5l-0.1,0.1l-5.9,11.9h-31.1v17h0.2l23.8,6v17.6l0.1,0.1l12.4,6.2l6.2,18.7
		l0.1,0.2h16.1l0.1-0.2l6.2-18.7l12.4-6.2l0.1-0.1v-17.6l23.9-6h0.2v-17L318,217.3z"/>
	<polygon points="105.8,210.7 123,219.3 123,174.1 105.8,169.8 	"/>
	<path d="M105.8,169.8l17.2,4.3v45.2l-17.2-8.6L105.8,169.8 M105.6,169.5v41.4l0.1,0.1l17.2,8.6l0.3,0.2v-45.8H123l-17.2-4.3
		L105.6,169.5L105.6,169.5z"/>
	<polygon points="171.9,214 165.9,220.1 165.9,259.7 183,259.7 183,200.5 171.9,200.5 	"/>
	<path d="M183,200.5v59.2h-17.2v-39.7l6-6v-13.5H183 M183.3,200.3h-11.6v13.7l-5.9,5.9l-0.1,0.1v40h17.6L183.3,200.3L183.3,200.3z"
		/>
	<polygon points="141,200.5 129.8,200.5 129.8,259.7 147,259.7 147,220.1 141,214 	"/>
	<path d="M141,200.5V214l6,6v39.7h-17.2v-59.2H141 M141.2,200.3h-11.6V260h17.6v-40l-0.1-0.1l-5.9-5.9L141.2,200.3L141.2,200.3z"/>
	<polygon points="189.9,219.3 207.1,210.7 207.1,169.8 189.9,174.1 	"/>
	<path d="M207,169.8v40.9l-17.2,8.6v-45.2L207,169.8 M207.3,169.5l-0.3,0.1l-17.2,4.3h-0.2v45.8l0.3-0.2l17.2-8.6l0.1-0.1V169.5
		L207.3,169.5z"/>
	<path d="M207,146.2h-30.9l-5.9-11.9l-0.1-0.1h-27.5l-0.1,0.1l-5.9,11.9h-31.1v17h0.2l23.8,6v17.6l0.1,0.1l12.4,6.2l6.2,18.7v0.2
		h16.2l0.1-0.2l6.2-18.7l12.4-6.2l0.1-0.1v-17.5l23.9-6h0.2v-17L207,146.2z"/>
	<polygon points="328,210.7 345.1,219.3 345.1,174.1 328,169.8 	"/>
	<path d="M328,169.8l17.2,4.3v45.2l-17.2-8.6V169.8 M327.7,169.5v41.4l0.1,0.1l17.2,8.6l0.3,0.2v-45.8h-0.2l-17.2-4.3L327.7,169.5
		L327.7,169.5z"/>
	<polygon points="394,214 388,220.1 388,259.7 405.2,259.7 405.2,200.5 394,200.5 	"/>
	<path d="M405.2,200.5v59.2H388v-39.7l6-6v-13.5H405.2 M405.4,200.3h-11.6v13.7l-5.9,5.9l-0.1,0.1v40h17.6L405.4,200.3L405.4,200.3z
		"/>
	<polygon points="363.1,200.5 352,200.5 352,259.7 369.2,259.7 369.2,220.1 363.1,214 	"/>
	<path d="M363.2,200.5V214l6,6v39.7H352v-59.2H363.2 M363.4,200.3h-11.6V260h17.6v-40l-0.1-0.1l-5.9-5.9L363.4,200.3L363.4,200.3z"
		/>
	<polygon points="412,219.3 429.2,210.7 429.2,169.8 412,174.1 	"/>
	<path d="M429.2,169.8v40.9l-17.2,8.6v-45.2L429.2,169.8 M429.5,169.5l-0.3,0.1l-17.2,4.3h-0.2v45.8l0.3-0.2l17.2-8.6h0.2
		L429.5,169.5L429.5,169.5z"/>
	<path d="M429.2,146.2h-30.9l-5.9-11.9l-0.1-0.1h-27.5l-0.1,0.1l-5.9,11.9h-31.1v17h0.2l23.9,6v17.6l0.1,0.1l12.4,6.2l6.2,18.7
		l0,0.2h16.1l0-0.2l6.2-18.7l12.4-6.2l0.1-0.1v-17.6l23.9-6h0.2v-17L429.2,146.2z"/>
	<polygon points="328,210.7 345.1,219.3 345.1,174.1 328,169.8 	"/>
	<path d="M328,169.8l17.2,4.3v45.2l-17.2-8.6V169.8 M327.7,169.5v41.4l0.1,0.1l17.2,8.6l0.3,0.2v-45.8h-0.2l-17.2-4.3L327.7,169.5
		L327.7,169.5z"/>
	<path d="M234.9,458l-19.2-9.6v-42.8l19.2,4.8V458z M217.8,447.2l15.2,7.6v-42.8l-15.2-3.8V447.2z"/>
	<path d="M235.2,458.3l-19.6-9.8v-43.3l1.5,0.4l18.1,4.6V458.3z M217.8,447.2l15.2,7.6V412l-15.2-3.8V447.2z"/>
	<path d="M295,497.8h-19.2v-41.1l6-6v-14.1H295V497.8z M277.8,495.8H293v-57.2h-9.2v12.9l-6,6V495.8z"/>
	<path d="M295.2,498h-19.6v-41.5l0.4-0.3l5.6-5.7v-14.2h13.6L295.2,498z M277.8,495.8H293v-57.2h-9.2v12.9l-6,6V495.8z"/>
	<path d="M259,497.8h-19.2v-61.2H253v14.1l6,6V497.8z M241.8,495.8H257v-38.3l-6-6v-12.9h-9.2V495.8z"/>
	<path d="M259.1,498h-19.6v-61.7h12.7v0.2h0.8v0.8h0.2v13.3l5.9,5.9l0.1,0.5V498z M241.8,495.8H257v-38.3l-6-6v-12.9h-9.2V495.8z"/>
	<path d="M299.8,458v-47.6l19.2-4.8v42.8L299.8,458z M301.8,411.9v42.8l15.2-7.6v-39L301.8,411.9z"/>
	<path d="M299.6,458.3v-48.1l0.9-0.3l17.5-4.3l0.1,0.2l0.9-0.2v0.9h0.2v42l-0.7,0.3L299.6,458.3z M301.8,411.9v42.9l15.2-7.6v-39
		L301.8,411.9z"/>
	<path d="M276.1,450h-17.5l-0.3-0.8l-6.1-18.3l-12.7-6.4v-17.4l-23-5.8h-1v-19H247l6-12h28.7l0.4,0.7l5.7,11.4l30.6,0l0.9,0.1v18.9
		h-1.1l-23,5.8v17.4l-0.7,0.4l-12,6L276.1,450z M260.1,448h14.6l6.2-18.5l12.3-6.2v-17.7l24-6v-15.2h-30.7l-6-12h-26.3l-6,12h-30.7
		v15.2l24,6v17.8l12.3,6.2L260.1,448z"/>
	<path d="M124,458l-19.2-9.6v-42.8l19.2,4.8V458z M106.8,447.2l15.2,7.6v-42.8l-15.2-3.8V447.2z"/>
	<path d="M124.2,458.3l-19.6-9.8v-43.3l1.5,0.4l18.1,4.6V458.3z M106.8,447.2l15.2,7.6V412l-15.2-3.8V447.2z"/>
	<path d="M184,497.8h-19.2v-41.1l6-6v-14.1H184V497.8z M166.9,495.8H182v-57.2h-9.2v12.9l-6,6V495.8z"/>
	<path d="M184.3,498h-19.6v-41.5l0.4-0.3l5.7-5.7v-14.2h13.6V498z M166.9,495.8H182v-57.2h-9.2v12.9l-6,6V495.8z"/>
	<path d="M148,497.8h-19.2v-61.2H142v14.1l6,6V497.8z M130.8,495.8H146v-38.3l-6-6v-12.9h-9.2V495.8z"/>
	<path d="M148.2,498h-19.6v-61.7h13.6v14.3l5.9,5.9l0.1,0.5V498z M130.8,495.8H146v-38.3l-6-6v-12.9h-9.2V495.8z"/>
	<path d="M188.9,458v-47.6l19.2-4.8v42.8L188.9,458z M190.9,411.9v42.8l15.2-7.6v-39L190.9,411.9z"/>
	<path d="M188.6,458.4v-48.2l0.9-0.3l17.5-4.3l0.1,0.2l0.9-0.2v0.9h0.2v42l-0.7,0.3L188.6,458.4z M190.9,411.9v42.9l15.2-7.6v-39
		L190.9,411.9z"/>
	<path d="M165.2,450h-17.9v-1l-6-18.1l-12.7-6.4v-17.4l-23-5.8h-1v-19h31.5l6-12h28.8l0.3,0.7l5.7,11.3l30.6,0l0.9,0.1v18.9h-1.1
		l-23,5.8v17.4l-0.7,0.4l-12,6L165.2,450z M149.1,448h14.7l6.2-18.5l12.3-6.2v-17.7l24-6v-15.2h-30.8l-6-12h-26.3l-6,12h-30.7v15.2
		l24,6v17.8l12.3,6.2L149.1,448z"/>
	<path d="M346.1,458l-19.2-9.6v-42.8l19.2,4.8V458z M329,447.2l15.2,7.6v-42.8l-15.2-3.8V447.2z"/>
	<path d="M346.4,458.3l-19.6-9.8v-43.2l1.5,0.4l18.1,4.6V458.3z M329,447.2l15.2,7.6V412l-15.2-3.8V447.2z"/>
	<path d="M406.2,497.8H387v-41.1l6-6v-14.1h13.2V497.8z M389,495.8h15.2v-57.2H395v12.9l-6,6V495.8z"/>
	<path d="M406.4,498h-19.6v-41.5l0.4-0.3l5.7-5.7v-14.2h13.6V498z M389,495.8h15.2v-57.2H395v12.9l-6,6V495.8z"/>
	<path d="M370.2,497.8H351v-61.2h13.2v14.1l6,6V497.8z M353,495.8h15.2v-38.3l-6-6v-12.9H353V495.8z"/>
	<path d="M370.4,498h-19.6v-61.7h13.6v14.3l5.9,5.9l0.1,0.5V498z M353,495.8h15.2v-38.3l-6-6v-12.9H353V495.8z"/>
	<path d="M411,458v-47.6l19.2-4.8v42.8L411,458z M413,411.9v42.8l15.2-7.6v-39L413,411.9z"/>
	<path d="M410.8,458.4v-48.2l0.9-0.3l17.2-4.2l1.6-1.6v44.4l-0.8,0.3L410.8,458.4z M413,411.9v42.9l15.2-7.6v-39L413,411.9z"/>
	<path d="M387.4,450h-17.5l-0.3-0.9l-6.1-18.3l-12.7-6.4v-17.4l-23-5.8h-1v-19h31.5l6-12H393l0.3,0.7l5.7,11.3l30.6,0l0.9,0.1v18.9
		h-1.1l-23,5.8v17.4l-0.7,0.4l-12,6L387.4,450z M371.3,448h14.6l6.2-18.5l12.3-6.2v-17.7l24-6v-15.2h-30.7l-6-12h-26.3l-6,12h-30.7
		v15.2l24,6v17.8l12.3,6.2L371.3,448z"/>
	<path d="M346.1,458l-19.2-9.6v-42.8l19.2,4.8V458z M329,447.2l15.2,7.6v-42.8l-15.2-3.8V447.2z"/>
	<path d="M346.4,458.3l-19.6-9.8v-43.2l1.5,0.4l18.1,4.6V458.3z M329,447.2l15.2,7.6V412l-15.2-3.8V447.2z"/>
	<polygon class="st0" points="231,152.1 242.8,140.1 252.5,148.9 256.1,148.9 256.1,26.9 277.9,26.9 277.9,148.9 282.3,148.9 
		291.2,140.1 303,152.1 267.1,187.2 	"/>
	<path d="M279.9,24.9h-25.8v122h-0.9l-7.7-6.9l-2.8-2.6l-2.7,2.7l-9.1,9.1l-2.8,2.9l2.9,2.8l33.3,32.3l2.8,2.7l2.8-2.7l33-32.3
		l2.9-2.8l-2.8-2.8l-9-9.2l-2.8-2.9l-2.9,2.8l-6.9,6.8h-1.6L279.9,24.9L279.9,24.9z"/>
</g>
<g id="Layer_95">
	<path d="M267.5,28.9l242.5,140v280l-242.5,140L25,448.9v-280L267.5,28.9 M267.5,0L255,7.2l-242.5,140L0,154.4v308.9l12.5,7.2
		l242.5,140l12.5,7.2l12.5-7.2l242.5-140l12.5-7.2V154.4l-12.5-7.2L280,7.2L267.5,0L267.5,0z"/>
</g>
</svg>
