<svg id="Layer_1" data-name="Layer 1" xmlns="http://www.w3.org/2000/svg" viewBox="0 0 140 140"><title>Patron Tier Icons_FINAL</title><path d="M74.31,88.21v-1.5H78l2.38-6.81H60l2.38,6.81h3.66v1.5a42.6,42.6,0,0,1-14.37,31.92l18.5,10.17,18.49-10.17A42.61,42.61,0,0,1,74.31,88.21Z"/><path d="M34.63,114.64v3H49.94a40.85,40.85,0,0,0,2.94-3Z"/><path d="M90.42,117.64h15v-3H87.47A38.78,38.78,0,0,0,90.42,117.64Z"/><path d="M82.5,107.7h29.93v-3H81C81.44,105.76,82,106.76,82.5,107.7Z"/><path d="M59.4,104.7H27.57v3H57.85C58.39,106.76,58.91,105.76,59.4,104.7Z"/><path d="M78.48,97.76h40.9v-3H77.85C78,95.8,78.24,96.8,78.48,97.76Z"/><path d="M62.5,94.76H20.62v3H61.87Q62.25,96.32,62.5,94.76Z"/><polygon points="58.55 84.83 16.07 84.83 16.07 87.83 59.6 87.83 58.55 84.83"/><polygon points="80.75 87.83 123.93 87.83 123.93 84.83 81.8 84.83 80.75 87.83"/><path d="M57.13,76.9H83.22c22.66,0,28-16.65,29.16-22.09H28C29.13,60.26,34.53,76.9,57.13,76.9Z"/><path d="M62.1,51.72h3.25l-.62-1.5,1.53-3.7L70.17,45l3.92,1.56,1.53,3.7L75,51.72h37.43v-1.5a42.24,42.24,0,1,0-84.47,0v1.5Zm47.3-3H93.23l13.78-12A39.11,39.11,0,0,1,109.4,48.72Zm-4-15.85L88.11,34.6,99,23.67A39,39,0,0,1,105.37,32.87Zm-18.1-18a39.2,39.2,0,0,1,9.66,6.63l-11,11Zm15.84,21.2L88.67,48.72H78.24l-1.24-3L84.76,38ZM71.69,11a38.71,38.71,0,0,1,11.64,2.23L71.69,25.79Zm0,19.18L84.11,16.82l-1.49,19L74.87,43.6l-3.18-1.26ZM68.69,11V25.84L57,13.26A38.92,38.92,0,0,1,68.69,11Zm0,19.23V42.32L65.48,43.6l-7.76-7.75-1.49-19ZM53.08,14.93l1.38,17.65-11-11A39.18,39.18,0,0,1,53.08,14.93ZM41.32,23.69,52.24,34.6,35,32.87A39.62,39.62,0,0,1,41.32,23.69ZM31,48.72a39.2,39.2,0,0,1,2.37-12l13.75,12Zm6.25-12.61L55.59,38l7.76,7.76-1.25,3H51.67Z"/><path d="M38.25,74.89H16.07v3H44.46A29.83,29.83,0,0,1,38.25,74.89Z"/><path d="M95.93,77.89h28v-3H102.14A29.35,29.35,0,0,1,95.93,77.89Z"/><path d="M109.53,68h14.4V65H111.51A31.59,31.59,0,0,1,109.53,68Z"/><path d="M28.84,65H16.07v3H30.82A31.59,31.59,0,0,1,28.84,65Z"/><path d="M25,55h-8.9v3h9.7C25.39,56.81,25.14,55.78,25,55Z"/><path d="M115.38,55c-.16.77-.42,1.8-.8,3h9.35V55Z"/></svg>