<svg id="Layer_1" data-name="Layer 1" xmlns="http://www.w3.org/2000/svg" viewBox="0 0 140 140"><title>Patron Tier Icons_FINAL</title><path d="M58.45,103.4,70,114.92,81.48,103.4V83.2l34.05-34.05L113.41,47l-6.85,6.85-7-7L106.38,40l-2.12-2.12-6.85,6.85-7-7,6.86-6.85-2.12-2.12-6.86,6.85-7-7,6.86-6.85L86,19.58,79.1,26.43l-7-7,6.86-6.86L76.8,10.42,70,17.28l-6.79-6.79L61,12.61l6.79,6.79-7,7L54,19.64l-2.12,2.12,6.79,6.79-7,7-6.79-6.79-2.13,2.12,6.8,6.79-7,7-6.8-6.79-2.12,2.12,6.79,6.79-7,7-6.8-6.79-2.12,2.13,34,34ZM75.23,71.7A7.42,7.42,0,0,1,64.74,61.21L70,56l5.25,5.25A7.43,7.43,0,0,1,75.23,71.7ZM104.44,56l-7,7-7-7,7-7Zm-9.16-9.16-7,7-7-7,7-7ZM86.13,37.7l-7,7-7-7,7-7ZM70,21.52l7,7-7,7-7-7ZM60.8,30.67l7,7-7,7-7-7ZM42.51,63l-7-7,7-7,7,7Zm9.14-9.15-7-7,7-7,7,7Z"/><path d="M114.47,66.92l8.73-8.73-2.12-2.12-31,31v19.58L70,126.75,49.91,106.67V87.09l-31-31-2.12,2.12,8.73,8.73L15.7,76.71l31.21,31.21v13.93H60.84L70,131l9.15-9.14H93.06V107.92l31.2-31.21ZM46.91,103.67l-27-27L27.61,69l19.3,19.29Zm3,15.18v-7.93l7.93,7.93Zm40.15,0H82.13l7.93-7.93Zm3-30.52L112.35,69,120,76.71l-27,27Z"/></svg>