<svg id="Layer_1" data-name="Layer 1" xmlns="http://www.w3.org/2000/svg" viewBox="0 0 140 140"><title>Patron Tier Icons_FINAL</title><path d="M118.49,52.5A27.9,27.9,0,0,0,76,16.67L70.2,22.44l-5.76-5.77A27.9,27.9,0,0,0,21.71,52.2a30.84,30.84,0,0,0-5.34,17.38v31.05H41.55A31,31,0,0,0,48,110.16l22,22,22-22a31,31,0,0,0,6.49-9.53h25.18v-31A30.87,30.87,0,0,0,118.49,52.5ZM78.09,18.8A24.9,24.9,0,0,1,116.6,49.93a31,31,0,0,0-24-11.4h-.5l3.11,3.12a28,28,0,0,1,19.56,10.77c-.46.54-.93,1.07-1.44,1.58l-17,17a27.93,27.93,0,0,0-6.59-29L72.32,24.56Zm9.54,25.31a24.77,24.77,0,1,1-34.85,0L70.2,26.68ZM27.1,18.8a24.91,24.91,0,0,1,35.22,0l5.76,5.76L50.65,42a27.93,27.93,0,0,0-6.58,29l-17-17a23.49,23.49,0,0,1-1.65-1.83A28,28,0,0,1,44.81,41.66l3.11-3.12h-.5A31,31,0,0,0,23.63,49.65,24.94,24.94,0,0,1,27.1,18.8Zm16.16,61L40.9,77.42a31.24,31.24,0,0,0-.47,20.21H19.37v-28A27.91,27.91,0,0,1,23.65,54.7c.43.49.87,1,1.33,1.43L50.29,81.44a27.65,27.65,0,0,0,16.88,8,27.94,27.94,0,0,1-19.75,8.16H43.59A28.21,28.21,0,0,1,43.26,79.79ZM89.83,108,70,127.88,50.17,108a27.68,27.68,0,0,1-5.31-7.41h2.56A31,31,0,0,0,70,90.86a31,31,0,0,0,22.58,9.77h2.56A27.68,27.68,0,0,1,89.83,108Zm30.8-10.41H99.57a31.24,31.24,0,0,0-.47-20.21l-2.36,2.37a28.21,28.21,0,0,1-.33,17.84H92.58A28,28,0,0,1,72.86,89.5a27.63,27.63,0,0,0,17.25-8.06l25.32-25.31c.37-.37.73-.76,1.08-1.15a27.86,27.86,0,0,1,4.12,14.6Z"/><circle cx="70" cy="62.93" r="14.46"/></svg>