<svg id="Layer_1" data-name="Layer 1" xmlns="http://www.w3.org/2000/svg" viewBox="0 0 140 140"><title>Patron Tier Icons_FINAL</title><path d="M125.63,38.28A20.46,20.46,0,0,0,90.69,23.81L81.47,33A35.26,35.26,0,0,0,62.58,32l-5-5-.81-.81L55.6,26.1l-4.41-.22-1.08-.05-7.48-7.49H14.37v89.9h.07a20.48,20.48,0,0,0,20.4,19h70.32a20.49,20.49,0,0,0,20.47-20.46V38.28Zm-20.47-6.53a6.48,6.48,0,0,0-4.61,1.91l-6.62,6.62a39.73,39.73,0,0,0-3.13-2.49l6.94-6.94a10.5,10.5,0,0,1,17.92,7.43V88.33l-4-4V38.28A6.54,6.54,0,0,0,105.16,31.75ZM41.42,43.12l-.22-4.41,4.41.22,1,1,6.46,6.46-4.19,4.19-6.41-6.41Zm42.17,23.8A13.52,13.52,0,1,1,70.08,53.41,13.52,13.52,0,0,1,83.59,66.92Zm-43.19,20L36,91.3H31.31v-56h4.3l2.55,2.55.05,1,.22,4.41,0,1.15.82.82,1.35,1.35a35.79,35.79,0,0,0-.25,40.28Zm29.68,15.81A35.63,35.63,0,0,0,95.47,92.09l12.19,12.2a3.52,3.52,0,0,1-2.5,6H34.84a3.51,3.51,0,0,1-3.2-2.06H44.19l9.53-9.53A35.56,35.56,0,0,0,70.08,102.68ZM34.84,113.3h70.32a6.53,6.53,0,0,0,4.62-11.14L97.49,89.87a34.36,34.36,0,0,0,2.4-3.21l12.7,12.7a10.49,10.49,0,0,1-7.43,17.91H34.84a10.51,10.51,0,0,1-10.39-9h4A6.53,6.53,0,0,0,34.84,113.3ZM96.07,42.38l6.6-6.6a3.53,3.53,0,0,1,6,2.5V81.36L104.37,77a35.75,35.75,0,0,0-8.3-34.66ZM55.45,29.09l3.76,3.76,3.71,3.72-4.19,4.19-5.42-5.43-2.05-2L51,28.88ZM17.37,21.34h24L48,28,48.05,29l.21,4.41.06,1.16.82.82,1.51,1.51c-.56.37-1.12.75-1.66,1.15l-1.26-1.26L46.92,36l-1.16-.06-4.41-.21-1.12-.06-3.38-3.38H28.31v62h8.91l5-5a36.44,36.44,0,0,0,3,3.25l-5.71,5.71H24.34v-70h14l3.8,3.81A1.5,1.5,0,1,0,44.26,30l-4.68-4.69H21.34v76H40.7l6.7-6.7A37.26,37.26,0,0,0,51,97.17L43,105.24H17.37ZM105.16,124.1v.14H34.84a17.48,17.48,0,0,1-17.4-16h4a13.51,13.51,0,0,0,13.42,12h70.32a13.5,13.5,0,0,0,9.55-23L101.49,84a38.1,38.1,0,0,0,1.79-3.83l14.23,14.24a17.36,17.36,0,0,1-12.35,29.67Zm17.47-28a20.7,20.7,0,0,0-3-3.83l-1-1v-53a13.5,13.5,0,0,0-23-9.55l-7.39,7.39a35.9,35.9,0,0,0-3.7-1.91l8.28-8.28a17.47,17.47,0,0,1,29.82,12.35Z"/><rect x="61.12" y="63.5" width="17.92" height="6.84"/></svg>