<svg id="Layer_1" data-name="Layer 1" xmlns="http://www.w3.org/2000/svg" viewBox="0 0 140 140"><title>Patron Tier Icons_FINAL</title><path d="M126.42,102.55l-10.84,4.93,2.81-6.18-2.73-1.25-3.57,7.86-4.27-4.27a26.75,26.75,0,0,0,0-35.7,26.74,26.74,0,0,0,0-35.69L112.09,28l3.57,7.85,2.73-1.24-2.81-6.18,10.84,4.93,1.25-2.74-12.51-5.68,2.9-2.91-2.12-2.12L113,22.79l-5.68-12.51-2.73,1.24,4.92,10.84-6.18-2.81-1.24,2.73L110,25.85l-4.27,4.28a26.8,26.8,0,0,0-35.7,0,26.75,26.75,0,0,0-35.7,0L30,25.84l7.86-3.57-1.24-2.73-6.18,2.81,4.92-10.84-2.73-1.24L27,22.79l-2.91-2.91L21.94,22l2.9,2.9L12.33,30.59l1.25,2.73,10.84-4.93L21.6,34.58l2.74,1.24L27.91,28l4.27,4.28a26.79,26.79,0,0,0,0,35.69,26.75,26.75,0,0,0,0,35.7l-4.27,4.27-3.57-7.85L21.6,101.3l2.82,6.19-10.84-4.93-1.25,2.73L24.85,111l-2.91,2.9L24.06,116,27,113.1l5.68,12.51,2.73-1.24-4.92-10.84,6.18,2.81,1.24-2.73L30,110l4.27-4.28a26.75,26.75,0,0,0,35.7,0,26.78,26.78,0,0,0,35.7,0L110,110l-7.85,3.57,1.24,2.73,6.18-2.81-4.92,10.84,2.73,1.24L113,113.09l2.91,2.91,2.12-2.12L115.15,111l12.52-5.69ZM111.63,50.08a23.57,23.57,0,0,1-6,15.74,26.81,26.81,0,0,0-7.21-4.58,14,14,0,0,1-2.91,2.11,23.8,23.8,0,0,1,7.95,4.59,23.43,23.43,0,0,1-8,4.58,14.2,14.2,0,0,1,2.92,2.11,26.43,26.43,0,0,0,7.22-4.57,23.74,23.74,0,0,1,0,31.45l-5.93-5.93v-11a10.71,10.71,0,0,0-10.7-10.7h-11l-6-6,6-6h11a10.72,10.72,0,0,0,10.7-10.71v-11l5.93-5.93A23.56,23.56,0,0,1,111.63,50.08Zm-28,0a4.28,4.28,0,1,1,4.27,4.27A4.27,4.27,0,0,1,83.59,50.08ZM52.14,26.31a23.62,23.62,0,0,1,15.74,6,26.57,26.57,0,0,0-4.58,7.21,13.54,13.54,0,0,1,2.12,2.92,23.79,23.79,0,0,1,4.6-8,23.93,23.93,0,0,1,4.6,8,13.57,13.57,0,0,1,2.09-2.89,26.63,26.63,0,0,0-4.57-7.22,23.69,23.69,0,0,1,31.41,0l-5.91,5.91h-11A10.71,10.71,0,0,0,76,48.88v11l-6,6-6-6v-11a10.71,10.71,0,0,0-10.7-10.7h-11l-5.93-5.93A23.61,23.61,0,0,1,52.14,26.31Zm4.27,23.77a4.28,4.28,0,1,1-4.27-4.27A4.27,4.27,0,0,1,56.41,50.08Zm-28,35.73a23.58,23.58,0,0,1,6-15.75,26.62,26.62,0,0,0,7.25,4.58,13.78,13.78,0,0,1,2.91-2.11,23.65,23.65,0,0,1-8-4.6,23.45,23.45,0,0,1,8-4.6,13.3,13.3,0,0,1-2.88-2.1,26.63,26.63,0,0,0-7.22,4.57,23.77,23.77,0,0,1,0-31.41l5.92,5.91v11A10.72,10.72,0,0,0,50.94,62h11l6,6-6,6h-11a10.71,10.71,0,0,0-10.7,10.7v11l-5.93,5.93A23.56,23.56,0,0,1,28.37,85.81Zm43.77,17.77a26.63,26.63,0,0,0,4.57-7.22,13.32,13.32,0,0,1-2.09-2.89,23.64,23.64,0,0,1-4.62,8,23.46,23.46,0,0,1-4.6-8,13.49,13.49,0,0,1-2.1,2.87,26.71,26.71,0,0,0,4.58,7.21,23.74,23.74,0,0,1-31.45,0l5.93-5.93h11A10.71,10.71,0,0,0,64,87V76l6-6,6,6V87a10.71,10.71,0,0,0,10.7,10.7h11l5.91,5.92A23.75,23.75,0,0,1,72.14,103.58Z"/></svg>