<svg id="Layer_1" data-name="Layer 1" xmlns="http://www.w3.org/2000/svg" viewBox="0 0 140 140"><title>Patron Tier Icons_FINAL</title><path d="M69.78,103.87a15.13,15.13,0,0,0,15.11-14.6h0V64.1L69.78,79.24,54.64,64.1V89.27h0A15.12,15.12,0,0,0,69.78,103.87Z"/><polygon points="84.91 59.86 84.91 52 69.78 9.7 54.64 52 54.64 59.86 69.78 74.99 84.91 59.86"/><path d="M34.65,86.08a35.13,35.13,0,1,0,70.26,0V55.27l4.27-3-5.77-22.11L97.64,52.25l4.27,3V86.08a32.13,32.13,0,1,1-64.26,0V55.27l4.27-3L36.15,30.14,30.38,52.25l4.27,3Z"/><path d="M114.62,47.86,108.84,70l4.27,3v8.46a43.34,43.34,0,1,1-86.67,0V73l4.27-3L24.94,47.86,19.17,70l4.27,3v8.46a46.34,46.34,0,1,0,92.67,0V73l4.28-3Z"/><path d="M45.86,89.94a23.92,23.92,0,0,0,47.84,0V37.49l4.27-3L92.2,12.36,86.43,34.48l4.27,3V89.94a20.92,20.92,0,0,1-41.84,0V37.49l4.27-3L47.36,12.36,41.59,34.48l4.27,3Z"/></svg>