<svg id="Layer_1" data-name="Layer 1" xmlns="http://www.w3.org/2000/svg" viewBox="0 0 140 140"><title>Patron Tier Icons_FINAL</title><polygon points="85.51 52.02 70 37.45 54.49 52.02 54.49 74.92 64.12 74.92 64.12 83.21 66.72 83.87 65.44 101.46 65.44 125.41 70 129.19 74.56 125.41 74.56 101.46 73.28 83.87 75.88 83.21 75.88 74.92 85.51 74.92 85.51 52.02"/><path d="M108.69,62.47V38.09H95.54l0-29.91L82.09,21.67l-12-12-12,12L44.63,8.18l0,29.91H31.31V62.47a24.08,24.08,0,0,0,0,28.63v24.37h24l7.16,7.16v-4.24l-14.8-14.8V96l14.8,14.8v-4.24l-14.8-14.8V84.24l14.9,14.9.06-.06.28-3.84L47.64,80V50L70,27.61,92.57,50.19V80L77.13,95.44l.25,3.41.29.29,14.9-14.9v7.52l-15,15v4l.11.11L92.57,96v7.38l-15,15v4.24l7.16-7.16h24V91.1A24.08,24.08,0,0,0,108.69,62.47ZM34.31,41.09H44.67V48.7L34.31,59.06Zm1.42,20.8L44.64,53v47.61l-8.91-8.91A21.08,21.08,0,0,1,35.73,61.89Zm16.55,50.58h-18v-18ZM92.54,45.91,70,23.37,47.67,45.7l0-30.27L58.12,25.91l12-12,12,12L92.57,15.43Zm3-4.82h10.15v18L95.53,48.91Zm10.15,71.38h-18l18-18Zm-1.42-20.79-8.7,8.7V53.19l8.7,8.7A21.08,21.08,0,0,1,104.27,91.68Z"/></svg>