<?xml version="1.0" encoding="utf-8"?>
<!-- Generator: Adobe Illustrator 16.0.0, SVG Export Plug-In . SVG Version: 6.00 Build 0)  -->
<!DOCTYPE svg PUBLIC "-//W3C//DTD SVG 1.1//EN" "http://www.w3.org/Graphics/SVG/1.1/DTD/svg11.dtd">
<svg version="1.1" xmlns="http://www.w3.org/2000/svg" xmlns:xlink="http://www.w3.org/1999/xlink" x="0px" y="0px" width="180px"
	 height="180px" viewBox="0 0 180 180" style="enable-background:new 0 0 180 180;" xml:space="preserve">
<style type="text/css">
<![CDATA[
	.st0{fill:#481E2A;}
	.st1{fill:#991F2A;}
]]>
</style>
<g id="Layer_2">
</g>
<g id="Layer_1">
	<polygon class="st0" points="115.05,63.8 115.05,47.85 90.47,47.85 66.21,89.88 90.47,131.9 115.05,131.9 115.05,115.95 
		97.95,115.95 84.16,89.88 97.95,63.8 	"/>
	<polygon class="st1" points="115.05,139.13 86.93,139.13 58.81,90.42 86.93,41.71 115.05,41.71 115.05,18.05 72.67,18.05 31.13,90 
		72.67,161.95 115.05,161.95 	"/>
	<rect x="121.12" y="139.13" class="st1" width="27.75" height="22.82"/>
	<rect x="121.13" y="115.95" class="st0" width="27.75" height="15.95"/>
	<rect x="121.13" y="47.85" class="st0" width="27.75" height="15.95"/>
	<rect x="121.12" y="18.05" class="st1" width="27.75" height="23.67"/>
	<rect x="121.12" y="77.05" class="st1" width="27.75" height="25.34"/>
</g>
</svg>
