<svg xmlns="http://www.w3.org/2000/svg" viewBox="0 0 535.02 617.78"><g id="ACE"><path d="M374.54,99.65a24.06,24.06,0,0,1,24,24V438.32a24.06,24.06,0,0,1-24,24H187.46a24.06,24.06,0,0,1-24-24V123.68a24.06,24.06,0,0,1,24-24H374.54m0-6H187.46a30.06,30.06,0,0,0-30,30V438.32a30.06,30.06,0,0,0,30,30H374.54a30.06,30.06,0,0,0,30-30V123.68a30.06,30.06,0,0,0-30-30Z" transform="translate(-13.49 27.89)"/><path d="M374.54,106.65H187.46a17,17,0,0,0-17,17V438.32a17,17,0,0,0,17,17H374.54a17,17,0,0,0,17-17V123.68A17,17,0,0,0,374.54,106.65ZM178.9,176.47V120.93h55.54v55.54Zm18.35,110.42L281,203.14l83.75,83.75-34.27,48L281,285.4l-49.48,49.47Zm43.37,58.63L281,305.14l40.38,40.38ZM383.1,441.07H327.56V385.53H383.1Z" transform="translate(-13.49 27.89)"/><path d="M206.67,138.66c-4.42,0-4.89,1.41-4.89,4.23v6.4c0,1.11.74,1.76,2,1.76h5.75c1.34-.06,2-.65,2-1.82v-6.34C211.55,140.07,211.08,138.66,206.67,138.66Z" transform="translate(-13.49 27.89)"/><path d="M182.9,124.93v47.54h47.54V124.93Zm40.16,42.86a1.78,1.78,0,0,1-2,2h-7.5c-1.27,0-2-.58-2-1.76v-5.11c0-1.17-.67-1.76-2-1.76h-5.75c-1.27,0-2,.59-2,1.76V168c0,1.18-.67,1.76-2,1.76h-7.5a1.81,1.81,0,0,1-2-2v-24.9c0-7.41,1.34-15.27,16.4-15.27s16.39,7.86,16.39,15.27Z" transform="translate(-13.49 27.89)"/><path d="M358.21,411h-5.75c-1.34.06-2,.65-2,1.82v6.34c0,2.82.47,4.23,4.88,4.23s4.89-1.41,4.89-4.23v-6.4C360.22,411.6,359.48,411,358.21,411Z" transform="translate(-13.49 27.89)"/><path d="M331.56,389.53v47.54H379.1V389.53Zm40.17,29.58c0,7.41-1.34,15.27-16.4,15.27s-16.39-7.86-16.39-15.27v-24.9a1.78,1.78,0,0,1,2-2h7.5c1.27,0,2,.58,2,1.76v5.11c0,1.17.67,1.76,2,1.76h5.75c1.27,0,2-.59,2-1.76V394c0-1.18.67-1.76,2-1.76h7.5a1.81,1.81,0,0,1,2,2Z" transform="translate(-13.49 27.89)"/></g><g id="Layer_47" data-name="Layer 47"><path d="M281,1,523.51,141V421L281,561,38.49,421V141L281,1m0-28.87-12.5,7.21L26,119.34l-12.5,7.21v308.9L26,442.66l242.51,140,12.5,7.21,12.5-7.21L536,442.66l12.5-7.21V126.55L536,119.34,293.5-20.68,281-27.89Z" transform="translate(-13.49 27.89)"/></g></svg>