<svg xmlns="http://www.w3.org/2000/svg" viewBox="0 0 535.02 617.78"><defs><style>.cls-1{stroke:#c1272d;stroke-miterlimit:10;stroke-width:5px;}</style></defs><g id="BRAWLER"><path d="M342.61,242.15v.91a57.82,57.82,0,0,0,54.11,0V177.42l-27.06,10.8-27.05-10.8Z" transform="translate(-13.49 27.89)"/><path d="M265.37,212.53a18,18,0,0,1,13.13,5.68V167.59l-27.05,10.8-27.06-10.8v44.94Z" transform="translate(-13.49 27.89)"/><path d="M165.28,272.57H265.37a13.18,13.18,0,0,0,13.13-13.19V230.72a13.18,13.18,0,0,0-13.13-13.19H165.28Z" transform="translate(-13.49 27.89)"/><polygon points="205.9 196.07 205.9 193.48 205.9 164.05 178.84 153.25 151.79 164.05 151.79 196.07 178.84 206.87 205.9 196.07"/><polygon points="265.01 190.09 265.01 170.23 265.01 158.08 237.95 147.28 210.9 158.08 210.9 190.09 237.95 200.9 265.01 190.09"/><path class="cls-1" d="M179,275.07" transform="translate(-13.49 27.89)"/><path d="M165.28,351.66l18.61,18.22H378.51l18.21-18.21v-103a62.93,62.93,0,0,1-56.86-1.42L337.61,246v-1.2a63,63,0,0,1-54.11,0v14.57a18.18,18.18,0,0,1-18.13,18.19H165.28Z" transform="translate(-13.49 27.89)"/><path class="cls-1" d="M374.19,234.7" transform="translate(-13.49 27.89)"/><path class="cls-1" d="M374.19,234.7" transform="translate(-13.49 27.89)"/><polygon points="356.17 157.11 329.12 167.91 329.12 199.46 329.12 199.93 356.17 210.73 383.23 199.93 383.23 167.91 356.17 157.11"/><path class="cls-1" d="M310.55,142.44" transform="translate(-13.49 27.89)"/><path class="cls-1" d="M369.66,156" transform="translate(-13.49 27.89)"/><path class="cls-1" d="M179,195.36" transform="translate(-13.49 27.89)"/><path class="cls-1" d="M181.9,271" transform="translate(-13.49 27.89)"/><path class="cls-1" d="M179.07,436.38" transform="translate(-13.49 27.89)"/><polyline points="198.47 551.6 211.14 450.88 180.26 450.88 155.46 524.42"/><polygon points="360.7 402.77 176.67 402.77 176.67 445.88 359.61 445.88 360.7 402.77"/><polyline points="380.55 523.85 356.01 450.88 319.68 450.88 332.66 554.06"/><polygon points="216.18 450.88 203.14 554.53 267.51 594.87 327.99 556.99 314.64 450.88 216.18 450.88"/><polygon points="270.01 164.05 270.01 170.23 270.01 193.48 270.01 196.07 297.06 206.87 324.12 196.07 324.12 170.23 324.12 164.53 324.12 164.05 297.06 153.25 270.01 164.05"/><path d="M310.55,184.36l-27.05-10.8V239.2a57.82,57.82,0,0,0,54.11,0V173.56Z" transform="translate(-13.49 27.89)"/><polygon points="125.5 245.43 103.53 311.36 146.79 372.72 146.79 305.46 146.79 245.43 125.5 245.43"/><polygon points="178.84 212.25 151.79 201.45 151.79 240.43 205.9 240.43 205.9 201.45 178.84 212.25"/></g><g id="Layer_47" data-name="Layer 47"><path d="M281,1,523.51,141V421L281,561,38.49,421V141L281,1m0-28.87-12.5,7.21L26,119.34l-12.5,7.21v308.9L26,442.66l242.51,140,12.5,7.21,12.5-7.21L536,442.66l12.5-7.21V126.55L536,119.34,293.5-20.68,281-27.89Z" transform="translate(-13.49 27.89)"/></g></svg>