<svg xmlns="http://www.w3.org/2000/svg" viewBox="0 0 535.02 617.78"><g id="Centimane"><path d="M208.08,185l8.49-8.49,8.48,8.49-8.48,8.48Zm8.49-4.25L212.32,185l4.25,4.24,4.24-4.24Z" transform="translate(-13.49 27.89)"/><path d="M176.26,216.82l8.49-8.49,8.48,8.49-8.48,8.48Zm8.49-4.25-4.25,4.25,4.25,4.24,4.24-4.24Z" transform="translate(-13.49 27.89)"/><rect x="218.43" y="165.13" width="9" height="27" transform="translate(493.39 175.2) rotate(135)"/><rect x="173.88" y="209.68" width="9" height="27" transform="translate(448.84 282.75) rotate(135)"/><path d="M182.44,208.14l11,11a5.73,5.73,0,0,0,8.11,0l17.35-17.35a5.75,5.75,0,0,0,0-8.11l-11-11a5.73,5.73,0,0,0-8.11,0L182.44,200A5.72,5.72,0,0,0,182.44,208.14Zm10.79.19a10.5,10.5,0,1,1,14.85,0A10.52,10.52,0,0,1,193.23,208.33Z" transform="translate(-13.49 27.89)"/><path d="M195.35,206.21a7.5,7.5,0,1,0,0-10.61A7.5,7.5,0,0,0,195.35,206.21Z" transform="translate(-13.49 27.89)"/><path d="M216.57,369.18l8.48,8.48-8.48,8.49-8.49-8.49Zm4.24,8.48-4.24-4.24-4.25,4.24,4.25,4.25Z" transform="translate(-13.49 27.89)"/><path d="M184.75,337.36l8.48,8.48-8.48,8.49-8.49-8.49Zm4.24,8.48-4.24-4.24-4.25,4.24,4.25,4.25Z" transform="translate(-13.49 27.89)"/><rect x="218.43" y="370.53" width="9" height="27" transform="translate(95.52 841.11) rotate(-135)"/><rect x="173.88" y="325.98" width="9" height="27" transform="translate(50.98 733.56) rotate(-135)"/><path d="M182.44,362.63,199.78,380a5.73,5.73,0,0,0,8.11,0l11-11a5.75,5.75,0,0,0,0-8.11l-17.35-17.35a5.75,5.75,0,0,0-8.11,0l-11,11A5.73,5.73,0,0,0,182.44,362.63Zm25.64-8.3a10.5,10.5,0,1,1-14.85,0A10.52,10.52,0,0,1,208.08,354.33Z" transform="translate(-13.49 27.89)"/><path d="M195.35,367.06a7.5,7.5,0,1,0,0-10.61A7.52,7.52,0,0,0,195.35,367.06Z" transform="translate(-13.49 27.89)"/><path d="M168.65,298.83v12h-12v-12Zm-3,9v-6h-6v6Z" transform="translate(-13.49 27.89)"/><path d="M168.65,253.83v12h-12v-12Zm-3,9v-6h-6v6Z" transform="translate(-13.49 27.89)"/><rect x="158.15" y="300.33" width="9" height="27" transform="translate(-164.67 504.38) rotate(-90)"/><rect x="158.15" y="237.33" width="9" height="27" transform="translate(-101.67 441.38) rotate(-90)"/><path d="M149.15,270.06V294.6a5.74,5.74,0,0,0,5.74,5.73h15.53a5.73,5.73,0,0,0,5.73-5.73V270.06a5.73,5.73,0,0,0-5.73-5.73H154.89A5.74,5.74,0,0,0,149.15,270.06Zm24,12.27a10.5,10.5,0,1,1-10.5-10.5A10.51,10.51,0,0,1,173.15,282.33Z" transform="translate(-13.49 27.89)"/><path d="M155.15,282.33a7.5,7.5,0,1,0,7.5-7.5A7.51,7.51,0,0,0,155.15,282.33Z" transform="translate(-13.49 27.89)"/><path d="M168.65,298.83v12h-12v-12Zm-3,9v-6h-6v6Z" transform="translate(-13.49 27.89)"/><path d="M168.65,253.83v12h-12v-12Zm-3,9v-6h-6v6Z" transform="translate(-13.49 27.89)"/><rect x="158.15" y="300.33" width="9" height="27" transform="translate(-164.67 504.38) rotate(-90)"/><rect x="158.15" y="237.33" width="9" height="27" transform="translate(-101.67 441.38) rotate(-90)"/><path d="M149.15,270.06V294.6a5.74,5.74,0,0,0,5.74,5.73h15.53a5.73,5.73,0,0,0,5.73-5.73V270.06a5.73,5.73,0,0,0-5.73-5.73H154.89A5.74,5.74,0,0,0,149.15,270.06Zm24,12.27a10.5,10.5,0,1,1-10.5-10.5A10.51,10.51,0,0,1,173.15,282.33Z" transform="translate(-13.49 27.89)"/><path d="M155.15,282.33a7.5,7.5,0,1,0,7.5-7.5A7.51,7.51,0,0,0,155.15,282.33Z" transform="translate(-13.49 27.89)"/><path d="M368.77,345.43l8.48-8.49,8.49,8.49-8.49,8.48Zm8.48-4.24L373,345.43l4.24,4.24,4.25-4.24Z" transform="translate(-13.49 27.89)"/><path d="M337,377.25l8.48-8.49,8.49,8.49-8.49,8.48Zm8.48-4.24-4.24,4.24,4.24,4.24,4.25-4.24Z" transform="translate(-13.49 27.89)"/><rect x="379.12" y="325.56" width="9" height="27" transform="translate(881.14 335.45) rotate(135)"/><rect x="334.57" y="370.11" width="9" height="27" transform="translate(836.59 443) rotate(135)"/><path d="M362.22,379.56l17.34-17.35a5.73,5.73,0,0,0,0-8.11l-11-11a5.73,5.73,0,0,0-8.11,0l-17.35,17.35a5.74,5.74,0,0,0,0,8.1l11,11A5.73,5.73,0,0,0,362.22,379.56Zm-8.3-25.65a10.5,10.5,0,1,1,0,14.85A10.52,10.52,0,0,1,353.92,353.91Z" transform="translate(-13.49 27.89)"/><path d="M366.65,366.64a7.5,7.5,0,1,0-10.61,0A7.51,7.51,0,0,0,366.65,366.64Z" transform="translate(-13.49 27.89)"/><path d="M298.42,393.34h12v12h-12Zm9,3h-6v6h6Z" transform="translate(-13.49 27.89)"/><path d="M253.42,393.34h12v12h-12Zm9,3h-6v6h6Z" transform="translate(-13.49 27.89)"/><rect x="308.92" y="385.84" width="9" height="27" transform="translate(613.35 826.57) rotate(180)"/><rect x="245.92" y="385.84" width="9" height="27" transform="translate(487.35 826.57) rotate(180)"/><path d="M269.65,412.84h24.54a5.74,5.74,0,0,0,5.73-5.73V391.57a5.74,5.74,0,0,0-5.73-5.73H269.65a5.74,5.74,0,0,0-5.73,5.73v15.54A5.74,5.74,0,0,0,269.65,412.84Zm12.27-24a10.5,10.5,0,1,1-10.5,10.5A10.51,10.51,0,0,1,281.92,388.84Z" transform="translate(-13.49 27.89)"/><path d="M281.92,406.84a7.5,7.5,0,1,0-7.5-7.5A7.5,7.5,0,0,0,281.92,406.84Z" transform="translate(-13.49 27.89)"/><path d="M345.43,193.24,337,184.75l8.48-8.48,8.49,8.48Zm-4.24-8.49,4.24,4.24,4.25-4.24-4.25-4.24Z" transform="translate(-13.49 27.89)"/><path d="M377.25,225.06l-8.48-8.49,8.48-8.48,8.49,8.48ZM373,216.57l4.24,4.24,4.25-4.24-4.25-4.24Z" transform="translate(-13.49 27.89)"/><rect x="334.57" y="164.89" width="9" height="27" transform="translate(211.96 -159.62) rotate(45)"/><rect x="379.12" y="209.43" width="9" height="27" transform="translate(256.51 -178.07) rotate(45)"/><path d="M379.56,199.79l-17.34-17.35a5.73,5.73,0,0,0-8.11,0l-11,11a5.74,5.74,0,0,0,0,8.1l17.35,17.35a5.73,5.73,0,0,0,8.11,0l11-11A5.73,5.73,0,0,0,379.56,199.79Zm-25.64,8.3a10.5,10.5,0,1,1,14.85,0A10.52,10.52,0,0,1,353.92,208.09Z" transform="translate(-13.49 27.89)"/><path d="M366.65,195.36a7.5,7.5,0,1,0,0,10.6A7.5,7.5,0,0,0,366.65,195.36Z" transform="translate(-13.49 27.89)"/><path d="M393.35,263.59v-12h12v12Zm3-9v6h6v-6Z" transform="translate(-13.49 27.89)"/><path d="M393.35,308.59v-12h12v12Zm3-9v6h6v-6Z" transform="translate(-13.49 27.89)"/><rect x="394.85" y="235.09" width="9" height="27" transform="translate(634.44 -122.87) rotate(90)"/><rect x="394.85" y="298.09" width="9" height="27" transform="translate(697.44 -59.87) rotate(90)"/><path d="M412.85,292.35V267.82a5.73,5.73,0,0,0-5.74-5.73H391.58a5.72,5.72,0,0,0-5.73,5.73v24.53a5.73,5.73,0,0,0,5.73,5.74h15.53A5.74,5.74,0,0,0,412.85,292.35Zm-24-12.26a10.5,10.5,0,1,1,10.5,10.5A10.51,10.51,0,0,1,388.85,280.09Z" transform="translate(-13.49 27.89)"/><path d="M406.85,280.09a7.5,7.5,0,1,0-7.5,7.5A7.51,7.51,0,0,0,406.85,280.09Z" transform="translate(-13.49 27.89)"/><path d="M393.35,263.59v-12h12v12Zm3-9v6h6v-6Z" transform="translate(-13.49 27.89)"/><path d="M393.35,308.59v-12h12v12Zm3-9v6h6v-6Z" transform="translate(-13.49 27.89)"/><rect x="394.85" y="235.09" width="9" height="27" transform="translate(634.44 -122.87) rotate(90)"/><rect x="394.85" y="298.09" width="9" height="27" transform="translate(697.44 -59.87) rotate(90)"/><path d="M412.85,292.35V267.82a5.73,5.73,0,0,0-5.74-5.73H391.58a5.72,5.72,0,0,0-5.73,5.73v24.53a5.73,5.73,0,0,0,5.73,5.74h15.53A5.74,5.74,0,0,0,412.85,292.35Zm-24-12.26a10.5,10.5,0,1,1,10.5,10.5A10.51,10.51,0,0,1,388.85,280.09Z" transform="translate(-13.49 27.89)"/><path d="M406.85,280.09a7.5,7.5,0,1,0-7.5,7.5A7.51,7.51,0,0,0,406.85,280.09Z" transform="translate(-13.49 27.89)"/><path d="M263.42,168.66h-12v-12h12Zm-9-3h6v-6h-6Z" transform="translate(-13.49 27.89)"/><path d="M308.42,168.66h-12v-12h12Zm-9-3h6v-6h-6Z" transform="translate(-13.49 27.89)"/><rect x="230.43" y="177.05" width="9" height="27"/><rect x="293.43" y="177.05" width="9" height="27"/><path d="M292.19,149.16H267.65a5.74,5.74,0,0,0-5.73,5.73v15.54a5.74,5.74,0,0,0,5.73,5.73h24.54a5.74,5.74,0,0,0,5.73-5.73V154.89A5.74,5.74,0,0,0,292.19,149.16Zm-12.27,24a10.5,10.5,0,1,1,10.5-10.5A10.51,10.51,0,0,1,279.92,173.16Z" transform="translate(-13.49 27.89)"/><path d="M279.92,155.16a7.5,7.5,0,1,0,7.5,7.5A7.51,7.51,0,0,0,279.92,155.16Z" transform="translate(-13.49 27.89)"/><rect x="230.43" y="177.05" width="9" height="27"/><path d="M178.53,146.09l11.92-11.92,11.93,11.92L190.45,158Zm11.92-6-6,6,6,6,6-6Z" transform="translate(-13.49 27.89)"/><path d="M133.82,190.81l11.92-11.93,11.92,11.93-11.92,11.92Zm11.92-6-6,6,6,6,6-6Z" transform="translate(-13.49 27.89)"/><rect x="193.07" y="118.18" width="12.65" height="37.94" transform="translate(423.88 121.03) rotate(135)"/><rect x="130.47" y="180.78" width="12.65" height="37.94" transform="translate(361.28 272.16) rotate(135)"/><path d="M142.49,178.62l15.44,15.43a8,8,0,0,0,11.39,0l24.38-24.37a8.06,8.06,0,0,0,0-11.4l-15.43-15.43a8.06,8.06,0,0,0-11.4,0l-24.38,24.38A8.06,8.06,0,0,0,142.49,178.62Zm15.17.26a14.75,14.75,0,1,1,20.87,0A14.77,14.77,0,0,1,157.66,178.88Z" transform="translate(-13.49 27.89)"/><path d="M160.65,175.9a10.54,10.54,0,1,0,0-14.9A10.54,10.54,0,0,0,160.65,175.9Z" transform="translate(-13.49 27.89)"/><path d="M190.45,404.91l11.93,11.93-11.93,11.92-11.92-11.92Zm6,11.93-6-6-6,6,6,6Z" transform="translate(-13.49 27.89)"/><path d="M145.74,360.2l11.92,11.92-11.92,11.93-11.92-11.93Zm6,11.92-6-6-6,6,6,6Z" transform="translate(-13.49 27.89)"/><rect x="193.07" y="406.81" width="12.65" height="37.94" transform="translate(25.83 895.74) rotate(-135)"/><rect x="130.47" y="344.21" width="12.65" height="37.94" transform="translate(-36.77 744.61) rotate(-135)"/><path d="M142.49,395.71l24.38,24.37a8.06,8.06,0,0,0,11.4,0l15.43-15.43a8.06,8.06,0,0,0,0-11.4l-24.38-24.37a8,8,0,0,0-11.39,0l-15.44,15.43A8.08,8.08,0,0,0,142.49,395.71Zm36-11.66a14.75,14.75,0,1,1-20.87,0A14.77,14.77,0,0,1,178.53,384.05Z" transform="translate(-13.49 27.89)"/><path d="M160.65,401.93a10.54,10.54,0,1,0,0-14.9A10.54,10.54,0,0,0,160.65,401.93Z" transform="translate(-13.49 27.89)"/><path d="M123.13,306.06v16.86H106.26V306.06Zm-4.22,12.64v-8.43h-8.43v8.43Z" transform="translate(-13.49 27.89)"/><path d="M123.13,242.82v16.86H106.26V242.82Zm-4.22,12.65V247h-8.43v8.43Z" transform="translate(-13.49 27.89)"/><rect x="108.37" y="308.16" width="12.65" height="37.94" transform="translate(-225.93 469.72) rotate(-90)"/><rect x="108.37" y="219.63" width="12.65" height="37.94" transform="translate(-137.4 381.19) rotate(-90)"/><path d="M95.72,265.63v34.48a8.05,8.05,0,0,0,8.06,8.05h21.83a8.05,8.05,0,0,0,8.06-8.05V265.63a8.05,8.05,0,0,0-8.06-8.05H103.78A8.05,8.05,0,0,0,95.72,265.63Zm33.73,17.24a14.76,14.76,0,1,1-14.75-14.76A14.76,14.76,0,0,1,129.45,282.87Z" transform="translate(-13.49 27.89)"/><path d="M104.16,282.87a10.54,10.54,0,1,0,10.54-10.54A10.55,10.55,0,0,0,104.16,282.87Z" transform="translate(-13.49 27.89)"/><path d="M123.13,306.06v16.86H106.26V306.06Zm-4.22,12.64v-8.43h-8.43v8.43Z" transform="translate(-13.49 27.89)"/><path d="M123.13,242.82v16.86H106.26V242.82Zm-4.22,12.65V247h-8.43v8.43Z" transform="translate(-13.49 27.89)"/><rect x="108.37" y="308.16" width="12.65" height="37.94" transform="translate(-225.93 469.72) rotate(-90)"/><rect x="108.37" y="219.63" width="12.65" height="37.94" transform="translate(-137.4 381.19) rotate(-90)"/><path d="M95.72,265.63v34.48a8.05,8.05,0,0,0,8.06,8.05h21.83a8.05,8.05,0,0,0,8.06-8.05V265.63a8.05,8.05,0,0,0-8.06-8.05H103.78A8.05,8.05,0,0,0,95.72,265.63Zm33.73,17.24a14.76,14.76,0,1,1-14.75-14.76A14.76,14.76,0,0,1,129.45,282.87Z" transform="translate(-13.49 27.89)"/><path d="M104.16,282.87a10.54,10.54,0,1,0,10.54-10.54A10.55,10.55,0,0,0,104.16,282.87Z" transform="translate(-13.49 27.89)"/><path d="M404.34,371.54l11.92-11.93,11.92,11.93-11.92,11.92Zm11.92-6-6,6,6,6,6-6Z" transform="translate(-13.49 27.89)"/><path d="M359.62,416.25l11.93-11.92,11.92,11.92-11.92,11.93Zm11.93-6-6,6,6,6,6-6Z" transform="translate(-13.49 27.89)"/><rect x="418.88" y="343.62" width="12.65" height="37.94" transform="translate(968.77 346.22) rotate(135)"/><rect x="356.28" y="406.22" width="12.65" height="37.94" transform="translate(906.17 497.35) rotate(135)"/><path d="M395.13,419.5l24.38-24.38a8.06,8.06,0,0,0,0-11.39l-15.44-15.44a8.06,8.06,0,0,0-11.39,0L368.3,392.67a8,8,0,0,0,0,11.39l15.43,15.44A8.08,8.08,0,0,0,395.13,419.5Zm-11.66-36a14.76,14.76,0,1,1,0,20.87A14.78,14.78,0,0,1,383.47,383.46Z" transform="translate(-13.49 27.89)"/><path d="M401.35,401.35a10.54,10.54,0,1,0-14.9,0A10.56,10.56,0,0,0,401.35,401.35Z" transform="translate(-13.49 27.89)"/><path d="M305.48,438.87h16.86v16.86H305.48Zm12.65,4.21h-8.44v8.43h8.44Z" transform="translate(-13.49 27.89)"/><path d="M242.24,438.87h16.87v16.86H242.24Zm12.65,4.21h-8.43v8.43h8.43Z" transform="translate(-13.49 27.89)"/><rect x="320.23" y="428.33" width="12.65" height="37.94" transform="translate(639.62 922.49) rotate(180)"/><rect x="231.7" y="428.33" width="12.65" height="37.94" transform="translate(462.56 922.49) rotate(180)"/><path d="M265.06,466.27h34.47a8.06,8.06,0,0,0,8.06-8.06V436.38a8.05,8.05,0,0,0-8.06-8.05H265.06a8.05,8.05,0,0,0-8.06,8.05v21.83A8.06,8.06,0,0,0,265.06,466.27Zm17.23-33.73a14.76,14.76,0,1,1-14.75,14.76A14.78,14.78,0,0,1,282.29,432.54Z" transform="translate(-13.49 27.89)"/><path d="M282.29,457.84a10.54,10.54,0,1,0-10.54-10.54A10.55,10.55,0,0,0,282.29,457.84Z" transform="translate(-13.49 27.89)"/><path d="M371.55,157.67l-11.93-11.92,11.93-11.93,11.92,11.93Zm-6-11.92,6,6,6-6-6-6Z" transform="translate(-13.49 27.89)"/><path d="M416.26,202.39l-11.92-11.93,11.92-11.92,11.92,11.92Zm-6-11.93,6,6,6-6-6-6Z" transform="translate(-13.49 27.89)"/><rect x="356.28" y="117.83" width="12.65" height="37.94" transform="translate(189.45 -188.44) rotate(45)"/><rect x="418.88" y="180.43" width="12.65" height="37.94" transform="translate(252.05 -214.37) rotate(45)"/><path d="M419.51,166.88,395.13,142.5a8.08,8.08,0,0,0-11.4,0L368.3,157.94a8,8,0,0,0,0,11.39l24.38,24.38a8.06,8.06,0,0,0,11.39,0l15.44-15.44A8.06,8.06,0,0,0,419.51,166.88Zm-36,11.66a14.76,14.76,0,1,1,20.87,0A14.78,14.78,0,0,1,383.47,178.54Z" transform="translate(-13.49 27.89)"/><path d="M401.35,160.65a10.54,10.54,0,1,0,0,14.91A10.54,10.54,0,0,0,401.35,160.65Z" transform="translate(-13.49 27.89)"/><path d="M438.87,256.53V239.67h16.87v16.86Zm4.22-12.65v8.43h8.43v-8.43Z" transform="translate(-13.49 27.89)"/><path d="M438.87,319.76V302.9h16.87v16.86Zm4.22-12.64v8.43h8.43v-8.43Z" transform="translate(-13.49 27.89)"/><rect x="440.98" y="216.48" width="12.65" height="37.94" transform="translate(669.26 -183.96) rotate(90)"/><rect x="440.98" y="305.01" width="12.65" height="37.94" transform="translate(757.79 -95.43) rotate(90)"/><path d="M466.28,297V262.48a8.06,8.06,0,0,0-8.06-8.06H436.39a8.06,8.06,0,0,0-8.06,8.06V297a8.06,8.06,0,0,0,8.06,8.06h21.83A8.06,8.06,0,0,0,466.28,297Zm-33.73-17.24a14.76,14.76,0,1,1,14.75,14.76A14.77,14.77,0,0,1,432.55,279.71Z" transform="translate(-13.49 27.89)"/><path d="M457.84,279.71a10.54,10.54,0,1,0-10.54,10.54A10.54,10.54,0,0,0,457.84,279.71Z" transform="translate(-13.49 27.89)"/><path d="M438.87,256.53V239.67h16.87v16.86Zm4.22-12.65v8.43h8.43v-8.43Z" transform="translate(-13.49 27.89)"/><path d="M438.87,319.76V302.9h16.87v16.86Zm4.22-12.64v8.43h8.43v-8.43Z" transform="translate(-13.49 27.89)"/><rect x="440.98" y="216.48" width="12.65" height="37.94" transform="translate(669.26 -183.96) rotate(90)"/><rect x="440.98" y="305.01" width="12.65" height="37.94" transform="translate(757.79 -95.43) rotate(90)"/><path d="M466.28,297V262.48a8.06,8.06,0,0,0-8.06-8.06H436.39a8.06,8.06,0,0,0-8.06,8.06V297a8.06,8.06,0,0,0,8.06,8.06h21.83A8.06,8.06,0,0,0,466.28,297Zm-33.73-17.24a14.76,14.76,0,1,1,14.75,14.76A14.77,14.77,0,0,1,432.55,279.71Z" transform="translate(-13.49 27.89)"/><path d="M457.84,279.71a10.54,10.54,0,1,0-10.54,10.54A10.54,10.54,0,0,0,457.84,279.71Z" transform="translate(-13.49 27.89)"/><path d="M256.3,123.13H239.43V106.27H256.3Zm-12.65-4.21h8.43v-8.43h-8.43Z" transform="translate(-13.49 27.89)"/><path d="M319.53,123.13H302.67V106.27h16.86Zm-12.64-4.21h8.43v-8.43h-8.43Z" transform="translate(-13.49 27.89)"/><rect x="215.4" y="123.62" width="12.65" height="37.94"/><rect x="303.93" y="123.62" width="12.65" height="37.94"/><path d="M296.72,95.73H262.25a8.06,8.06,0,0,0-8.06,8.06v21.83a8.05,8.05,0,0,0,8.06,8h34.47a8.05,8.05,0,0,0,8.06-8V103.79A8.06,8.06,0,0,0,296.72,95.73Zm-17.24,33.73a14.76,14.76,0,1,1,14.76-14.76A14.77,14.77,0,0,1,279.48,129.46Z" transform="translate(-13.49 27.89)"/><path d="M279.48,104.16A10.54,10.54,0,1,0,290,114.7,10.55,10.55,0,0,0,279.48,104.16Z" transform="translate(-13.49 27.89)"/><rect x="215.4" y="123.62" width="12.65" height="37.94"/><path d="M145.3,102.34l15.79-15.79,15.79,15.79-15.79,15.79Zm15.79-7.89-7.9,7.89,7.9,7.9,7.89-7.9Z" transform="translate(-13.49 27.89)"/><path d="M86.08,161.56l15.79-15.79,15.79,15.79-15.79,15.79Zm15.79-7.9L94,161.56l7.89,7.89,7.9-7.89Z" transform="translate(-13.49 27.89)"/><rect x="164.56" y="65.37" width="16.75" height="50.25" transform="translate(345.71 60.1) rotate(135)"/><rect x="81.66" y="148.28" width="16.75" height="50.25" transform="translate(262.81 260.24) rotate(135)"/><path d="M97.57,145.41,118,165.86a10.67,10.67,0,0,0,15.08,0l32.29-32.29a10.68,10.68,0,0,0,0-15.09L145,98a10.68,10.68,0,0,0-15.09,0L97.57,130.33A10.67,10.67,0,0,0,97.57,145.41Zm20.09.36a19.54,19.54,0,1,1,27.64,0A19.59,19.59,0,0,1,117.66,145.77Z" transform="translate(-13.49 27.89)"/><path d="M121.61,141.82a14,14,0,1,0,0-19.74A14,14,0,0,0,121.61,141.82Z" transform="translate(-13.49 27.89)"/><path d="M161.09,445.1l15.79,15.79-15.79,15.79L145.3,460.89ZM169,460.89,161.09,453l-7.9,7.89,7.9,7.9Z" transform="translate(-13.49 27.89)"/><path d="M101.87,385.88l15.79,15.79-15.79,15.8-15.79-15.8Zm7.9,15.79-7.9-7.89L94,401.67l7.89,7.9Z" transform="translate(-13.49 27.89)"/><rect x="164.56" y="447.61" width="16.75" height="50.25" transform="translate(-52.55 957.18) rotate(-135)"/><rect x="81.66" y="364.71" width="16.75" height="50.25" transform="translate(-135.45 757.04) rotate(-135)"/><path d="M97.57,432.91l32.29,32.28a10.66,10.66,0,0,0,15.09,0l20.44-20.44a10.68,10.68,0,0,0,0-15.09L133.1,397.38a10.65,10.65,0,0,0-15.08,0L97.57,417.82A10.68,10.68,0,0,0,97.57,432.91Zm47.73-15.44a19.54,19.54,0,1,1-27.64,0A19.56,19.56,0,0,1,145.3,417.47Z" transform="translate(-13.49 27.89)"/><path d="M121.61,441.15a14,14,0,1,0,0-19.74A14,14,0,0,0,121.61,441.15Z" transform="translate(-13.49 27.89)"/><path d="M71.93,314.18v22.33H49.59V314.18Zm-5.59,16.75V319.77H55.18v11.16Z" transform="translate(-13.49 27.89)"/><path d="M71.93,230.44v22.33H49.59V230.44Zm-5.59,16.75V236H55.18v11.17Z" transform="translate(-13.49 27.89)"/><rect x="52.39" y="316.97" width="16.75" height="50.25" transform="translate(-294.83 430.75) rotate(-90)"/><rect x="52.39" y="199.73" width="16.75" height="50.25" transform="translate(-177.59 313.51) rotate(-90)"/><path d="M35.64,260.65v45.66A10.66,10.66,0,0,0,46.31,317h28.9a10.66,10.66,0,0,0,10.67-10.66V260.65A10.67,10.67,0,0,0,75.21,250H46.31A10.67,10.67,0,0,0,35.64,260.65ZM80.3,283.48a19.54,19.54,0,1,1-19.54-19.54A19.57,19.57,0,0,1,80.3,283.48Z" transform="translate(-13.49 27.89)"/><path d="M46.8,283.48a14,14,0,1,0,14-14A14,14,0,0,0,46.8,283.48Z" transform="translate(-13.49 27.89)"/><path d="M71.93,314.18v22.33H49.59V314.18Zm-5.59,16.75V319.77H55.18v11.16Z" transform="translate(-13.49 27.89)"/><path d="M71.93,230.44v22.33H49.59V230.44Zm-5.59,16.75V236H55.18v11.17Z" transform="translate(-13.49 27.89)"/><rect x="52.39" y="316.97" width="16.75" height="50.25" transform="translate(-294.83 430.75) rotate(-90)"/><rect x="52.39" y="199.73" width="16.75" height="50.25" transform="translate(-177.59 313.51) rotate(-90)"/><path d="M35.64,260.65v45.66A10.66,10.66,0,0,0,46.31,317h28.9a10.66,10.66,0,0,0,10.67-10.66V260.65A10.67,10.67,0,0,0,75.21,250H46.31A10.67,10.67,0,0,0,35.64,260.65ZM80.3,283.48a19.54,19.54,0,1,1-19.54-19.54A19.57,19.57,0,0,1,80.3,283.48Z" transform="translate(-13.49 27.89)"/><path d="M46.8,283.48a14,14,0,1,0,14-14A14,14,0,0,0,46.8,283.48Z" transform="translate(-13.49 27.89)"/><path d="M444.34,400.9l15.79-15.79,15.79,15.79-15.79,15.79ZM460.13,393l-7.9,7.89,7.9,7.9,7.89-7.9Z" transform="translate(-13.49 27.89)"/><path d="M385.12,460.12l15.79-15.79,15.79,15.79-15.79,15.79Zm15.79-7.9-7.89,7.9,7.89,7.89,7.9-7.89Z" transform="translate(-13.49 27.89)"/><rect x="463.6" y="363.93" width="16.75" height="50.25" transform="translate(1067.32 358.32) rotate(135)"/><rect x="380.69" y="446.84" width="16.75" height="50.25" transform="translate(984.42 558.47) rotate(135)"/><path d="M432.14,464.42l32.29-32.29a10.68,10.68,0,0,0,0-15.09L444,396.6a10.68,10.68,0,0,0-15.09,0l-32.29,32.29a10.67,10.67,0,0,0,0,15.08l20.44,20.45A10.68,10.68,0,0,0,432.14,464.42ZM416.7,416.69a19.54,19.54,0,1,1,0,27.64A19.57,19.57,0,0,1,416.7,416.69Z" transform="translate(-13.49 27.89)"/><path d="M440.39,440.38a14,14,0,1,0-19.74,0A14,14,0,0,0,440.39,440.38Z" transform="translate(-13.49 27.89)"/><path d="M313.42,490.06h22.33V512.4H313.42Zm16.75,5.59H319v11.16h11.17Z" transform="translate(-13.49 27.89)"/><path d="M229.67,490.06H252V512.4H229.67Zm16.75,5.59H235.26v11.16h11.16Z" transform="translate(-13.49 27.89)"/><rect x="332.96" y="476.11" width="16.75" height="50.25" transform="translate(669.18 1030.35) rotate(180)"/><rect x="215.72" y="476.11" width="16.75" height="50.25" transform="translate(434.69 1030.35) rotate(180)"/><path d="M259.88,526.35h45.66a10.67,10.67,0,0,0,10.67-10.67v-28.9a10.67,10.67,0,0,0-10.67-10.67H259.88a10.67,10.67,0,0,0-10.67,10.67v28.9A10.67,10.67,0,0,0,259.88,526.35Zm22.83-44.66a19.54,19.54,0,1,1-19.54,19.54A19.56,19.56,0,0,1,282.71,481.69Z" transform="translate(-13.49 27.89)"/><path d="M282.71,515.19a14,14,0,1,0-14-14A14,14,0,0,0,282.71,515.19Z" transform="translate(-13.49 27.89)"/><path d="M400.91,117.67l-15.79-15.79,15.79-15.79,15.79,15.79ZM393,101.88l7.89,7.9,7.9-7.9L400.91,94Z" transform="translate(-13.49 27.89)"/><path d="M460.13,176.89,444.34,161.1l15.79-15.79,15.79,15.79Zm-7.9-15.79,7.9,7.89L468,161.1l-7.89-7.9Z" transform="translate(-13.49 27.89)"/><rect x="380.69" y="64.92" width="16.75" height="50.25" transform="translate(164.13 -220.85) rotate(45)"/><rect x="463.6" y="147.82" width="16.75" height="50.25" transform="translate(247.03 -255.19) rotate(45)"/><path d="M464.43,129.87,432.14,97.58a10.68,10.68,0,0,0-15.09,0L396.61,118a10.68,10.68,0,0,0,0,15.09L428.9,165.4a10.67,10.67,0,0,0,15.08,0L464.43,145A10.68,10.68,0,0,0,464.43,129.87ZM416.7,145.31a19.54,19.54,0,1,1,27.64,0A19.57,19.57,0,0,1,416.7,145.31Z" transform="translate(-13.49 27.89)"/><path d="M440.39,121.62a14,14,0,1,0,0,19.74A14,14,0,0,0,440.39,121.62Z" transform="translate(-13.49 27.89)"/><path d="M490.07,248.59V226.26h22.34v22.33Zm5.59-16.75V243h11.16V231.84Z" transform="translate(-13.49 27.89)"/><path d="M490.07,332.34V310h22.34v22.34Zm5.59-16.75v11.16h11.16V315.59Z" transform="translate(-13.49 27.89)"/><rect x="492.87" y="195.55" width="16.75" height="50.25" transform="translate(708.42 -252.67) rotate(90)"/><rect x="492.87" y="312.8" width="16.75" height="50.25" transform="translate(825.67 -135.43) rotate(90)"/><path d="M526.36,302.13V256.47a10.67,10.67,0,0,0-10.67-10.67h-28.9a10.67,10.67,0,0,0-10.67,10.67v45.66a10.66,10.66,0,0,0,10.67,10.66h28.9A10.66,10.66,0,0,0,526.36,302.13ZM481.7,279.3a19.54,19.54,0,1,1,19.54,19.54A19.56,19.56,0,0,1,481.7,279.3Z" transform="translate(-13.49 27.89)"/><path d="M515.2,279.3a14,14,0,1,0-14,14A14,14,0,0,0,515.2,279.3Z" transform="translate(-13.49 27.89)"/><path d="M490.07,248.59V226.26h22.34v22.33Zm5.59-16.75V243h11.16V231.84Z" transform="translate(-13.49 27.89)"/><path d="M490.07,332.34V310h22.34v22.34Zm5.59-16.75v11.16h11.16V315.59Z" transform="translate(-13.49 27.89)"/><rect x="492.87" y="195.55" width="16.75" height="50.25" transform="translate(708.42 -252.67) rotate(90)"/><rect x="492.87" y="312.8" width="16.75" height="50.25" transform="translate(825.67 -135.43) rotate(90)"/><path d="M526.36,302.13V256.47a10.67,10.67,0,0,0-10.67-10.67h-28.9a10.67,10.67,0,0,0-10.67,10.67v45.66a10.66,10.66,0,0,0,10.67,10.66h28.9A10.66,10.66,0,0,0,526.36,302.13ZM481.7,279.3a19.54,19.54,0,1,1,19.54,19.54A19.56,19.56,0,0,1,481.7,279.3Z" transform="translate(-13.49 27.89)"/><path d="M515.2,279.3a14,14,0,1,0-14,14A14,14,0,0,0,515.2,279.3Z" transform="translate(-13.49 27.89)"/><path d="M248.29,71.94H226V49.6h22.34Zm-16.75-5.59H242.7V55.19H231.54Z" transform="translate(-13.49 27.89)"/><path d="M332,71.94H309.7V49.6H332Zm-16.75-5.59h11.17V55.19H315.28Z" transform="translate(-13.49 27.89)"/><rect x="198.5" y="63.54" width="16.75" height="50.25"/><rect x="315.75" y="63.54" width="16.75" height="50.25"/><path d="M301.82,35.65H256.16a10.67,10.67,0,0,0-10.67,10.67v28.9a10.67,10.67,0,0,0,10.67,10.67h45.66a10.67,10.67,0,0,0,10.67-10.67V46.32A10.67,10.67,0,0,0,301.82,35.65ZM279,80.31a19.54,19.54,0,1,1,19.54-19.54A19.57,19.57,0,0,1,279,80.31Z" transform="translate(-13.49 27.89)"/><path d="M279,46.81a14,14,0,1,0,14,14A14,14,0,0,0,279,46.81Z" transform="translate(-13.49 27.89)"/><rect x="198.5" y="63.54" width="16.75" height="50.25"/></g><g id="Layer_31" data-name="Layer 31"><path d="M281,1,523.51,141V421L281,561,38.49,421V141L281,1m0-28.87-12.5,7.21L26,119.34l-12.5,7.21v308.9L26,442.66l242.51,140,12.5,7.21,12.5-7.21L536,442.66l12.5-7.21V126.55L536,119.34,293.5-20.68,281-27.89Z" transform="translate(-13.49 27.89)"/></g></svg>