<?xml version="1.0" encoding="utf-8"?>
<!-- Generator: Adobe Illustrator 24.2.1, SVG Export Plug-In . SVG Version: 6.00 Build 0)  -->
<svg version="1.1" id="Layer_1" xmlns="http://www.w3.org/2000/svg" xmlns:xlink="http://www.w3.org/1999/xlink" x="0px" y="0px"
	 viewBox="0 0 535 617.8" style="enable-background:new 0 0 535 617.8;" xml:space="preserve">
<style type="text/css">
	.st0{fill:none;stroke:#000000;stroke-width:6;stroke-miterlimit:10;}
	.st1{stroke:#000000;stroke-width:4.9999;stroke-linecap:round;stroke-miterlimit:9.9998;}
	.st2{stroke:#000000;stroke-width:5.0172;stroke-linecap:round;stroke-miterlimit:10.0344;}
	.st3{stroke:#000000;stroke-width:5;stroke-linecap:round;stroke-miterlimit:10;}
	.st4{stroke:#000000;stroke-miterlimit:10;}
	.st5{fill:none;stroke:#000000;stroke-width:5;stroke-miterlimit:10;}
	.st6{stroke:#000000;stroke-width:3;stroke-miterlimit:10;}
</style>
<g id="Combined_Arms">
	<polygon class="st0" points="400.3,318 410.7,333.8 402.3,348.4 412.7,364.1 408.5,371.4 461.2,401.9 465.4,394.6 487.3,407.2 
		483.1,414.5 490.4,418.8 482,433.4 474.6,429.2 470.4,436.5 448.5,423.8 452.7,416.5 400,386.1 395.8,393.4 377,392.3 343.2,450.7 
		324.3,449.6 	"/>
	<rect x="222.4" y="204.1" transform="matrix(0.866 -0.5 0.5 0.866 -68.1826 202.2939)" class="st1" width="242" height="48.5"/>
	
		<rect x="245.2" y="263.9" transform="matrix(0.867 -0.4983 0.4983 0.867 -86.7633 218.8837)" class="st2" width="242.9" height="16.2"/>
	<rect x="68.6" y="349.2" transform="matrix(0.866 -0.5 0.5 0.866 -189.3493 104.8104)" class="st1" width="64.6" height="113.1"/>
	<rect x="203.8" y="247.6" transform="matrix(0.866 -0.5 0.5 0.866 -102.4717 141.8867)" class="st1" width="19.4" height="29.1"/>
	<rect x="182.1" y="238.8" transform="matrix(0.866 -0.5 0.5 0.866 -94.7288 140.2814)" class="st1" width="64.6" height="16.2"/>
	<rect x="201.5" y="274.6" transform="matrix(0.866 -0.5 0.5 0.866 -127.2515 155.0789)" class="st1" width="48.5" height="80.8"/>
	<polygon class="st3" points="179.2,444.5 174.9,372.3 202.9,356.2 207.2,428.3 	"/>
	<path class="st4" d="M179,312.9c-2.1-0.6-4.2-0.8-6.3-0.8c-13.4,0-24.3,10.9-24.4,24.3c0,13.4,10.9,24.3,24.3,24.4
		c13.4,0,24.3-10.9,24.4-24.3C197,325.4,189.6,315.7,179,312.9z"/>
	<path class="st4" d="M185.5,288.4L82.9,347.7l35,60.6L220.5,349L185.5,288.4z M187,361c-13.6,7.9-31.1,3.2-39-10.4
		c-7.9-13.7-3.2-31.1,10.4-39s31.1-3.2,39,10.4C205.3,335.6,200.7,353.1,187,361L187,361z"/>
	<path class="st5" d="M193.2,436.4l-4.3-72.2l42-24.2l23.6,40.9c4.8,8.3,2,18.9-6.3,23.7c0,0,0,0-0.1,0L193.2,436.4z"/>
	<path class="st4" d="M179,312.9l-0.6-0.1l11.9,6.8C187.2,316.3,183.3,314,179,312.9z"/>
	<path class="st4" d="M321,294.3l66.8,38.6l-40.4,69.9L64,239.2l21.3-80.9l189,109.1l6.1-4l-199.1-115l-24.7,93.9L170,307.9
		c11.1-1.1,21.9,4.4,27.5,14.1c0.5,0.8,0.9,1.6,1.2,2.4l151.1,87.2l46.8-81.1l-68.1-39.3L321,294.3z"/>
	<polygon class="st6" points="263.1,287.9 76.1,180 73.9,183.9 259.7,291.2 	"/>
	<polygon class="st6" points="294.8,311.4 376.6,358.7 378.9,354.8 298.8,308.6 	"/>
</g>
<g id="Layer_31">
	<path d="M267.5,28.9l242.5,140v280l-242.5,140L25,448.9v-280L267.5,28.9 M267.5,0L255,7.2l-242.5,140L0,154.4v308.9l12.5,7.2
		l242.5,140l12.5,7.2l12.5-7.2l242.5-140l12.5-7.2V154.4l-12.5-7.2L280,7.2L267.5,0L267.5,0z"/>
</g>
</svg>
