<?xml version="1.0" encoding="utf-8"?>
<!-- Generator: Adobe Illustrator 24.2.1, SVG Export Plug-In . SVG Version: 6.00 Build 0)  -->
<svg version="1.1" id="Layer_1" xmlns="http://www.w3.org/2000/svg" xmlns:xlink="http://www.w3.org/1999/xlink" x="0px" y="0px"
	 viewBox="0 0 535 617.8" style="enable-background:new 0 0 535 617.8;" xml:space="preserve">
<g id="Engineer">
	<path d="M238.9,337.1L238.9,337.1l-83.6,134.1c-7.4,12.8,0.3,31.2,11.6,37.7c4.6,2.7,9.8,4.1,15.2,4.1c9.5,0,18.4-4.6,23.2-12.9
		l74.4-139.4L238.9,337.1z M184.6,486.6c-4.6,0-8.3-3.7-8.3-8.3s3.7-8.3,8.3-8.3s8.3,3.7,8.3,8.3S189.2,486.6,184.6,486.6z
		 M248.3,376.3c-4.6,0-8.3-3.7-8.3-8.3s3.7-8.3,8.3-8.3s8.3,3.7,8.3,8.3S252.9,376.3,248.3,376.3z"/>
	<polygon points="262.4,116.1 266.1,109.5 340,104.7 410.6,145.5 386.3,187.6 	"/>
	<rect x="330.1" y="173.6" transform="matrix(0.5 -0.866 0.866 0.5 7.7439 398.8016)" width="38.2" height="38.2"/>
	<polygon points="239.5,155.7 363,227 338.6,269.2 268.5,228.7 235.7,162.3 	"/>
	<rect x="285.3" y="229.5" transform="matrix(0.5 -0.866 0.866 0.5 -77.7438 386.0439)" width="20.4" height="61.7"/>
	<rect x="278.3" y="239.4" transform="matrix(0.5 -0.866 0.866 0.5 -98.8029 386.4713)" width="14" height="78.9"/>
	<polygon points="274,284.7 251.5,323.8 240.5,317.5 263.1,278.4 252.8,272.5 223.3,323.7 276.7,354.6 306.3,303.4 	"/>
</g>
<g id="Layer_31">
	<path d="M267.5,28.9l242.5,140v280l-242.5,140L25,448.9v-280L267.5,28.9 M267.5,0L255,7.2l-242.5,140L0,154.4v308.9l12.5,7.2
		l242.5,140l12.5,7.2l12.5-7.2l242.5-140l12.5-7.2V154.4l-12.5-7.2L280,7.2L267.5,0L267.5,0z"/>
</g>
</svg>
