<svg xmlns="http://www.w3.org/2000/svg" viewBox="0 0 535.02 617.78"><defs><style>.cls-1{stroke:#fff;stroke-miterlimit:10;stroke-width:2px;}</style></defs><g id="Heavy_Gunner_3" data-name="Heavy Gunner 3"><rect x="348.09" y="303.71" width="5" height="202.6" transform="translate(-169.03 257.45) rotate(-30)"/><rect x="185.74" y="176.58" width="79.85" height="24.12" transform="translate(501.93 267.06) rotate(150)"/><path d="M196.21,222.46,182.9,199.41,256.38,157,269.69,180Zm-6.88-21.91,9.1,15.76,64.82-37.42-9.1-15.76Z" transform="translate(-13.49 27.89)"/><path d="M248.87,314l-29.21-64.8,61.5-35.5,41.51,57.7-1.25,1.49a119.74,119.74,0,0,1-70.63,40.77Z" transform="translate(-13.49 27.89)"/><rect x="158.5" y="128.15" width="79.85" height="26.62" transform="translate(427.51 192.64) rotate(150)"/><path d="M169.59,176.36,153.78,149l73.48-42.43,15.81,27.38Zm-9-25.55,10.81,18.72,64.82-37.43-10.81-18.72Z" transform="translate(-13.49 27.89)"/><polyline points="213.01 196.35 188.89 154.58 186.73 155.83 196.51 172.78 182.12 181.09 172.34 164.14 170.17 165.39 194.29 207.16"/><polyline points="238.66 181.54 214.54 139.78 212.37 141.03 223.18 159.75 206.19 169.55 195.39 150.83 193.22 152.08 217.34 193.85"/><polyline points="189.96 209.66 165.84 167.89 163.68 169.14 175.73 190.03 159.61 199.33 147.55 178.45 145.39 179.7 169.5 221.47"/><path d="M216.17,257l-6.65-11.52L283,203.09l6.65,11.52Z" transform="translate(-13.49 27.89)"/><polyline points="239.62 242.45 215.51 200.68 213.34 201.93 225.4 222.82 211.01 231.13 198.95 210.24 196.79 211.49 220.9 253.26"/><polyline points="265.27 227.65 241.16 185.88 238.99 187.13 250.19 206.53 233.21 216.34 222 196.93 219.84 198.18 243.95 239.95"/><polyline points="216.57 255.76 192.46 213.99 190.29 215.24 202.35 236.13 186.23 245.44 174.17 224.55 172 225.8 196.12 267.57"/><rect x="164.74" y="69.57" width="63.51" height="24.61" transform="translate(155.66 -101.34) rotate(60)"/><rect x="140.39" y="85.13" width="63.51" height="21.62" transform="translate(155.66 -73.22) rotate(60)"/><rect x="116.48" y="97.93" width="63.51" height="23.62" transform="translate(155.66 -45.61) rotate(60)"/><polygon points="478.65 468.14 337.07 368.26 305.4 352.04 473.88 470.9 478.65 468.14"/><polygon points="449.03 485.25 305.79 352.24 289.4 343.85 444.5 487.86 449.03 485.25"/><polygon points="419.44 502.33 294.2 346.3 284.12 341.14 284.1 341.71 415.06 504.86 419.44 502.33"/><polygon points="360.43 536.4 284.62 341.4 284.12 341.14 283.65 352.71 356.05 538.93 360.43 536.4"/><polygon points="389.91 519.38 288.22 343.24 284.12 341.14 283.93 345.82 385.58 521.88 389.91 519.38"/><polygon points="331 553.39 283.87 347.29 283.58 354.57 283 365.93 326.47 556.01 331 553.39"/><polygon points="301.61 570.36 283 365.94 281.21 401.37 296.84 573.11 301.61 570.36"/><path d="M282.53,564.16l12-237.6.7-17.32L522.48,425.62ZM300,317.26l-.38,9.52L288,555.23,512,425.89Z" transform="translate(-13.49 27.89)"/><path class="cls-1" d="M120,87.58" transform="translate(-13.49 27.89)"/></g><g id="Layer_31" data-name="Layer 31"><path d="M281,1,523.51,141V421L281,561,38.49,421V141L281,1m0-28.87-12.5,7.21L26,119.34l-12.5,7.21v308.9L26,442.66l242.51,140,12.5,7.21,12.5-7.21L536,442.66l12.5-7.21V126.55L536,119.34,293.5-20.68,281-27.89Z" transform="translate(-13.49 27.89)"/></g></svg>