<svg xmlns="http://www.w3.org/2000/svg" viewBox="0 0 535.02 617.78"><g id="HUNTER"><path d="M309.77,493.45l-6.2-7.5a30.25,30.25,0,0,0-46.6,0l-6.19,7.47V453.76h59Zm-52-32.69v14.81a37.48,37.48,0,0,1,31.37-6.51,37.1,37.1,0,0,1,13.62,6.47V460.76Z" transform="translate(-13.49 27.89)"/><path d="M309.77,356.77h-45.6v-20h45.6Zm-38.6-7h31.6v-6h-31.6Z" transform="translate(-13.49 27.89)"/><path d="M280.27,542.49a37.25,37.25,0,1,1,36.18-28.38h0A37.32,37.32,0,0,1,280.27,542.49Zm0-67.51a30.25,30.25,0,1,0,29.43,37.46h0A30.28,30.28,0,0,0,280.22,475Z" transform="translate(-13.49 27.89)"/><path d="M328.63,317.78H280l.27-34.14V18.76l5.41,3.53a114.55,114.55,0,0,1,27.22,24.54A101.89,101.89,0,0,1,328.4,73.75l.23.6Zm-41.55-7h34.55V75.66a94.69,94.69,0,0,0-14.19-24.47A105.88,105.88,0,0,0,287.29,31.9V283.67Z" transform="translate(-13.49 27.89)"/><path d="M283.74,25.18c-1.21-.78-2.37-1.51-3.47-2.17a97.86,97.86,0,0,1-14.95,26,112.78,112.78,0,0,1-29.9,26V198.67H247.8v13H235.42v13H246.8v13H235.42v13H247.8v13H235.42v13H247.8v13H235.42v24.62h48Z" transform="translate(-13.49 27.89)"/><path d="M286.92,317.78h-55V286.16H244.3v-6H231.92v-20H244.3v-6H231.92v-20H243.3v-6H231.92v-20H244.3v-6H231.92V73l1.69-1a108.51,108.51,0,0,0,29-25.18A94.64,94.64,0,0,0,277,21.75l1.5-3.9L282.08,20c1.17.71,2.38,1.46,3.57,2.24l1.59,1Zm-48-7h41l.31-278.88a103.31,103.31,0,0,1-12.17,19.29A115,115,0,0,1,238.92,77V195.17H251.3v20H238.92v6H250.3v20H238.92v6H251.3v20H238.92v6H251.3v20H238.92Z" transform="translate(-13.49 27.89)"/><path d="M327.31,408.77H306.67v-7h20.64c7.41,0,13.68-4.35,13.68-9.5s-6.27-9.5-13.68-9.5H306.67v-7h20.64c11.4,0,20.68,7.4,20.68,16.5S338.71,408.77,327.31,408.77Z" transform="translate(-13.49 27.89)"/><path d="M327.31,434.77H306.67v-7h20.64c7.41,0,13.68-4.35,13.68-9.5s-6.27-9.5-13.68-9.5H306.67v-7h20.64c11.4,0,20.68,7.4,20.68,16.5S338.71,434.77,327.31,434.77Z" transform="translate(-13.49 27.89)"/><path d="M314.31,460.76H280.67v-7h33.64c7.42,0,13.68-4.34,13.68-9.49s-6.26-9.5-13.68-9.5h-7.64v-7h7.64c11.4,0,20.68,7.4,20.68,16.5S325.71,460.76,314.31,460.76Z" transform="translate(-13.49 27.89)"/><path d="M327.31,382.77H306.67v-7h20.64c7.29,0,13.68-3.82,13.68-8.17,0-7.18-2.8-10.83-8.32-10.83h-26v-7h26c9.45,0,15.32,6.83,15.32,17.83C348,376.11,338.91,382.77,327.31,382.77Z" transform="translate(-13.49 27.89)"/><path d="M371.66,359.05,342.4,343.77H231.78L190.34,358.2V296.35l41.44,14.43H342.4l29.26-15.28ZM197.34,306.2v42.15l33.26-11.58H344.12l20.54,10.73V307.05l-20.54,10.73H230.6Z" transform="translate(-13.49 27.89)"/><path d="M309.77,460.76H212.18v-13h-39v-72H213.8l26-39h31.37v13h38.6Zm-90.59-7h83.59v-97h-38.6v-13H243.55l-26,39H180.18v58h39Z" transform="translate(-13.49 27.89)"/></g><g id="Layer_47" data-name="Layer 47"><path d="M281,1,523.51,141V421L281,561,38.49,421V141L281,1m0-28.87-12.5,7.21L26,119.34l-12.5,7.21v308.9L26,442.66l242.51,140,12.5,7.21,12.5-7.21L536,442.66l12.5-7.21V126.55L536,119.34,293.5-20.68,281-27.89Z" transform="translate(-13.49 27.89)"/></g></svg>