<svg xmlns="http://www.w3.org/2000/svg" viewBox="0 0 535.02 617.78"><g id="INFILTRATOR"><polygon points="203.6 441.72 197.1 441.72 197.1 435.22 202.1 435.22 202.1 436.72 203.6 436.72 203.6 441.72"/><rect x="211.69" y="436.72" width="8.09" height="5"/><polygon points="234.37 441.72 227.87 441.72 227.87 436.72 229.37 436.72 229.37 435.22 234.37 435.22 234.37 441.72"/><path d="M247.86,399.79h-5v-7.54h5Zm0-15.08h-5v-7.54h5Zm0-15.08h-5v-7.54h5Zm0-15.08h-5V347h5Zm0-15.08h-5v-7.53h5Zm0-15.07h-5v-7.54h5Zm0-15.08h-5v-7.54h5Z" transform="translate(-13.49 27.89)"/><polygon points="234.37 322.13 229.37 322.13 229.37 320.63 227.87 320.63 227.87 315.63 234.37 315.63 234.37 322.13"/><polygon points="214.79 322.13 209.79 322.13 209.79 315.63 216.29 315.63 216.29 320.63 214.79 320.63 214.79 322.13"/><rect x="209.79" y="328.6" width="5" height="6.46"/><polygon points="211.23 350.12 207.69 346.59 209.79 344.49 209.79 341.53 214.79 341.53 214.79 346.56 211.23 350.12"/><polygon points="202.1 362.21 197.1 362.21 197.1 357.18 200.66 353.62 204.2 357.15 202.1 359.25 202.1 362.21"/><path d="M215.59,399.21h-5V391.1h5Zm0-16.22h-5v-8.11h5Zm0-16.22h-5v-8.11h5Zm0-16.22h-5v-8.12h5Z" transform="translate(-13.49 27.89)"/><polygon points="127.47 441.72 120.97 441.72 120.97 435.22 125.97 435.22 125.97 436.72 127.47 436.72 127.47 441.72"/><rect x="135.56" y="436.72" width="8.09" height="5"/><polygon points="158.24 441.72 151.74 441.72 151.74 436.72 153.24 436.72 153.24 435.22 158.24 435.22 158.24 441.72"/><path d="M171.73,399.44h-5v-7.89h5Zm0-15.78h-5v-7.89h5Zm0-15.78h-5V360h5Zm0-15.78h-5v-7.89h5Zm0-15.78h-5v-5l-.6-.61,3.53-3.53,2.07,2.07Zm-11.18-11.15L155,319.6l3.54-3.54,5.58,5.58ZM159.05,310h-5v-7.89h5Z" transform="translate(-13.49 27.89)"/><polygon points="145.55 322.13 140.55 322.13 140.55 320.63 139.05 320.63 139.05 315.63 145.55 315.63 145.55 322.13"/><polygon points="125.97 322.13 120.97 322.13 120.97 315.63 127.47 315.63 127.47 320.63 125.97 320.63 125.97 322.13"/><path d="M139.46,399.79h-5v-7.54h5Zm0-15.08h-5v-7.54h5Zm0-15.08h-5v-7.54h5Zm0-15.08h-5V347h5Zm0-15.08h-5v-7.53h5Zm0-15.07h-5v-7.54h5Zm0-15.08h-5v-7.54h5Z" transform="translate(-13.49 27.89)"/><polygon points="75.18 340.42 70.22 337.94 70.22 332.4 75.22 332.4 75.22 334.85 77.42 335.95 75.18 340.42"/><rect x="99.85" y="311.89" width="5" height="9.36" transform="translate(-240.07 294.47) rotate(-63.44)"/><polygon points="107.49 356.58 100.3 352.98 102.53 348.51 102.58 348.53 107.49 348.53 107.49 356.58"/><path d="M121,313.12h-5V305.6h5Zm0-15h-5v-7.53h5ZM121,283h-5v-7.52h5Zm0-15h-5v-7.52h5Zm0-15h-5v-7.53h5Z" transform="translate(-13.49 27.89)"/><polygon points="107.49 265.79 102.49 265.79 102.49 263.75 100.5 263.25 101.72 258.4 107.49 259.84 107.49 265.79"/><rect x="99.85" y="225.66" width="5" height="8.42" transform="translate(-158.97 301.28) rotate(-75.96)"/><polygon points="75.22 257.73 70.22 257.73 70.22 250.52 77.21 252.27 76 257.12 75.22 256.93 75.22 257.73"/><path d="M88.71,296.21h-5v-8.3h5Zm0-16.6h-5v-8.29h5Zm0-16.59h-5v-8.3h5Zm0-16.59h-5v-8.3h5Z" transform="translate(-13.49 27.89)"/><polygon points="166.5 340.21 160.7 340.21 158.86 334.71 163.61 333.13 164.3 335.21 166.5 335.21 166.5 340.21"/><rect x="173.95" y="335.22" width="7.45" height="5"/><polygon points="194.65 340.21 188.84 340.21 188.84 335.21 191.04 335.21 191.74 333.13 196.48 334.71 194.65 340.21"/><path d="M212.07,300.52l-4.74-1.58,2.1-6.29,4.74,1.58Zm4.2-12.59-4.75-1.58,2.1-6.29,4.75,1.58Z" transform="translate(-13.49 27.89)"/><polygon points="206.97 303.23 202.23 301.65 203.82 296.88 208.32 294.62 210.56 299.1 207.91 300.42 206.97 303.23"/><rect x="228.85" y="261.76" width="7.02" height="5" transform="translate(-107.15 159.73) rotate(-26.57)"/><polygon points="229.41 289.67 227.17 285.2 229.37 284.1 229.37 281.65 234.37 281.65 234.37 287.19 229.41 289.67"/><rect x="229.37" y="261.98" width="5" height="9.83"/><polygon points="234.37 252.15 229.37 252.15 229.37 246.19 235.14 244.75 236.36 249.6 234.37 250.1 234.37 252.15"/><path d="M258.45,219.56l-1.22-4.85,8.6-2.15,1.21,4.85Zm17.19-4.3-1.21-4.85,8.6-2.15,1.21,4.85Z" transform="translate(-13.49 27.89)"/><polygon points="279.35 238.85 278.13 234 280.12 233.5 280.12 231.46 285.12 231.46 285.12 237.41 279.35 238.85"/><rect x="280.12" y="215.78" width="5" height="7.84"/><polygon points="285.12 207.94 280.12 207.94 280.12 206.44 278.62 206.44 278.62 201.44 285.12 201.44 285.12 207.94"/><path d="M284,178.55h-8.1v-5H284Zm-16.21,0h-8.11v-5h8.11Zm-16.22,0h-8.11v-5h8.11Z" transform="translate(-13.49 27.89)"/><polygon points="221.87 206.44 216.32 206.44 213.84 201.48 218.31 199.25 219.41 201.44 221.87 201.44 221.87 206.44"/><rect x="222.51" y="159.97" width="5" height="6.79" transform="translate(-62.8 145.78) rotate(-26.57)"/><polygon points="204.73 183.26 203.63 181.07 201.18 181.07 201.18 176.07 206.72 176.07 209.2 181.03 204.73 183.26"/><path d="M205.27,153.17h-9.41v-5h9.41Zm-18.81,0h-9.4v-5h9.4Z" transform="translate(-13.49 27.89)"/><polygon points="150.61 183.26 146.14 181.03 148.62 176.07 154.16 176.07 154.16 181.07 151.71 181.07 150.61 183.26"/><rect x="153.92" y="160.86" width="6.79" height="5" transform="translate(-72.65 258.88) rotate(-63.43)"/><polygon points="139.02 206.44 133.48 206.44 133.48 201.44 135.93 201.44 137.03 199.25 141.5 201.48 139.02 206.44"/><path d="M138.86,178.55h-8.11v-5h8.11Zm-16.21,0h-8.11v-5h8.11Zm-16.22,0H98.32v-5h8.11Z" transform="translate(-13.49 27.89)"/><polygon points="75.22 207.94 70.22 207.94 70.22 201.44 76.72 201.44 76.72 206.44 75.22 206.44 75.22 207.94"/><rect x="70.22" y="215.78" width="5" height="7.84"/><polygon points="76 238.85 70.22 237.41 70.22 231.46 75.22 231.46 75.22 233.5 77.21 234 76 238.85"/><path d="M123.88,219.56l-8.6-2.15,1.21-4.85,8.6,2.15Zm-17.2-4.3-8.6-2.15,1.22-4.85,8.6,2.15Z" transform="translate(-13.49 27.89)"/><polygon points="125.97 252.15 120.97 252.15 120.97 250.1 118.99 249.6 120.2 244.75 125.97 246.19 125.97 252.15"/><rect x="120.97" y="261.98" width="5" height="9.83"/><polygon points="125.93 289.67 120.97 287.19 120.97 281.65 125.97 281.65 125.97 284.1 128.17 285.2 125.93 289.67"/><path d="M169.54,298.38,166.73,290l4.74-1.59,2.81,8.44Zm-5.62-16.87-2.82-8.44,4.75-1.58,2.81,8.44Zm-8.59-11.78-8-4,2.23-4.48,8,4Z" transform="translate(-13.49 27.89)"/><polygon points="248.4 337.63 284.67 355.77 284.67 260.23 248.4 251.16 248.4 337.63"/><path d="M261.89,223.27l36.27,9.07v95.54l-36.27-18.14V223.27m-.5-.64v87.42l.27.14,36.27,18.13.73.37V232l-.38-.09L262,222.79l-.62-.16Z" transform="translate(-13.49 27.89)"/><polygon points="387.96 344.7 375.27 357.39 375.27 441.22 411.54 441.22 411.54 316.13 387.96 316.13 387.96 344.7"/><path d="M425,288.24V413.33H388.77V329.5l12.68-12.69V288.24H425m.5-.5H401V316.6l-12.54,12.54-.14.15v84.54h37.27V287.74Z" transform="translate(-13.49 27.89)"/><polygon points="322.73 316.13 299.15 316.13 299.15 441.22 335.42 441.22 335.42 357.39 322.73 344.7 322.73 316.13"/><path d="M336.22,288.24v28.57l12.69,12.69v83.83H312.64V288.24h23.58m.5-.5H312.14V413.83h37.27V329.29l-.15-.15L336.72,316.6V287.74Z" transform="translate(-13.49 27.89)"/><polygon points="426.03 355.77 462.3 337.63 462.3 251.16 426.03 260.23 426.03 355.77"/><path d="M475.79,223.27v86.47l-36.27,18.14V232.34l36.27-9.07m.5-.64-.62.16-36.27,9.07L439,232v96.74l.72-.37L476,310.19l.28-.14V222.63Z" transform="translate(-13.49 27.89)"/><rect x="153.12" y="194.38" width="49.11" height="9.89"/><path d="M475.79,173.55H410.58L398,148.45l-.14-.28h-58.1l-.14.28-12.55,25.1H261.39v36l.38.09,50.37,12.59v37.1l.28.14,26.18,13.09L351.75,312l.11.34h33.95l.11-.34,13.16-39.45,26.18-13.09.28-.14V222.2l50.37-12.59.38-.09v-36Zm-82.4,2.83H344.28v-9.89h49.11Z" transform="translate(-13.49 27.89)"/></g><g id="Layer_47" data-name="Layer 47"><path d="M281,1,523.51,141V421L281,561,38.49,421V141L281,1m0-28.87-12.5,7.21L26,119.34l-12.5,7.21v308.9L26,442.66l242.51,140,12.5,7.21,12.5-7.21L536,442.66l12.5-7.21V126.55L536,119.34,293.5-20.68,281-27.89Z" transform="translate(-13.49 27.89)"/></g></svg>