<svg xmlns="http://www.w3.org/2000/svg" viewBox="0 0 535.02 617.78"><defs><style>.cls-1{fill:none;stroke:#000;stroke-miterlimit:10;stroke-width:7px;}</style></defs><g id="Leader_1" data-name="Leader 1"><path d="M281,128.89A152.11,152.11,0,1,0,433.11,281,152.11,152.11,0,0,0,281,128.89ZM160.56,334.05V233.84l27.38,21.75c-6.05,2.6-9.85,6.83-9.85,11.81,0,8.3,10.51,14.56,24.46,14.56S227,275.7,227,267.4c0-5.24-4.21-9.67-10.83-12.21l25.21-20,25.46,20.23c-6.32,2.58-10.32,6.91-10.32,12,0,8.3,10.51,14.56,24.46,14.56s24.46-6.26,24.46-14.56c0-5.51-4.65-10.11-11.86-12.58l25.21-23.31,27.89,23.62c-6.7,2.54-11,7-11,12.27,0,8.3,10.51,14.56,24.46,14.56s24.47-6.26,24.47-14.56c0-5.11-4-9.44-10.33-12l27.11-21.54V334.05Z" transform="translate(-13.49 27.89)"/><circle class="cls-1" cx="267.51" cy="308.89" r="169.42"/><circle class="cls-1" cx="267.51" cy="308.89" r="187.74"/><path d="M480.57,295.62l.28-3.64c.1-1.22.08-2.44.13-3.66l28.11,1c0,1.39,0,2.78-.14,4.16l-.32,4.16Z" transform="translate(-13.49 27.89)"/><polygon points="465.53 338.06 466.46 330.8 494.42 333.85 493.37 342.12 465.53 338.06"/><path d="M476.36,324.53c.27-1.18.57-2.37.81-3.56l.64-3.6,27.67,5.08-.74,4.11c-.27,1.36-.61,2.71-.91,4.07Z" transform="translate(-13.49 27.89)"/><polygon points="459.2 366.57 461.2 359.54 488.42 366.64 486.14 374.67 459.2 366.57"/><path d="M468,352.5c.43-1.14.94-2.25,1.31-3.41l1.17-3.46,26.63,9.08-1.34,4c-.44,1.32-1,2.6-1.49,3.9Z" transform="translate(-13.49 27.89)"/><polygon points="448.76 393.85 451.77 387.19 477.66 398.2 474.23 405.81 448.76 393.85"/><path d="M455.55,378.94c.59-1.06,1.25-2.09,1.79-3.18L459,372.5l25,12.89-1.91,3.71c-.62,1.24-1.36,2.42-2,3.63Z" transform="translate(-13.49 27.89)"/><polygon points="434.44 419.32 438.39 413.16 462.39 427.84 457.89 434.86 434.44 419.32"/><path d="M439.4,403.3c.75-1,1.53-1.91,2.25-2.89l2.12-3,22.86,16.39-2.42,3.39c-.82,1.12-1.7,2.2-2.55,3.3Z" transform="translate(-13.49 27.89)"/><polygon points="416.57 442.44 421.36 436.91 442.97 454.92 437.52 461.22 416.57 442.44"/><polygon points="406.4 452.95 409.05 450.43 411.57 447.78 431.82 467.31 428.94 470.32 425.93 473.2 406.4 452.95"/><polygon points="395.53 462.74 401.06 457.95 419.84 478.9 413.54 484.36 395.53 462.74"/><path d="M397.43,443.77l3-2.12c1-.72,1.92-1.5,2.89-2.25l17.21,22.26c-1.1.85-2.18,1.73-3.3,2.55l-3.39,2.42Z" transform="translate(-13.49 27.89)"/><polygon points="371.78 479.77 377.93 475.83 393.48 499.28 386.45 503.78 371.78 479.77"/><path d="M372.5,459l3.26-1.67c1.09-.54,2.12-1.2,3.18-1.79l13.79,24.52c-1.21.68-2.39,1.42-3.63,2L385.39,484Z" transform="translate(-13.49 27.89)"/><polygon points="345.8 493.16 352.46 490.14 364.42 515.61 356.82 519.04 345.8 493.16"/><path d="M345.63,470.44l3.46-1.17c1.16-.37,2.27-.88,3.41-1.31l10.06,26.28c-1.3.49-2.58,1.05-3.9,1.49l-4,1.34Z" transform="translate(-13.49 27.89)"/><polygon points="318.16 502.58 325.19 500.58 333.28 527.53 325.25 529.8 318.16 502.58"/><path d="M317.37,477.81l3.6-.64c1.19-.24,2.38-.54,3.56-.81l6.1,27.47c-1.36.3-2.71.64-4.07.91l-4.11.74Z" transform="translate(-13.49 27.89)"/><polygon points="289.42 507.84 296.67 506.92 300.74 534.76 292.46 535.81 289.42 507.84"/><path d="M288.32,481c1.22-.05,2.44,0,3.66-.13l3.64-.28,2,28.06-4.16.32c-1.38.1-2.77.09-4.16.14Z" transform="translate(-13.49 27.89)"/><polygon points="260.19 508.87 267.51 509.06 267.51 537.19 259.18 536.98 260.19 508.87"/><path d="M259.09,480c1.21.18,2.42.26,3.64.35l3.65.27-2,28.06-4.15-.31c-1.39-.11-2.78-.2-4.15-.4Z" transform="translate(-13.49 27.89)"/><path d="M244.63,477.81l3.6.64c1.2.21,2.39.45,3.61.58l-4.07,27.83c-1.38-.15-2.74-.41-4.11-.65l-4.11-.73Z" transform="translate(-13.49 27.89)"/><path d="M230.35,474.69c2.36.61,4.75,1.11,7.12,1.67l-6.1,27.47c-2.7-.64-5.42-1.22-8.12-1.92Z" transform="translate(-13.49 27.89)"/><polygon points="202.88 498.33 206.34 499.5 208.07 500.09 209.83 500.58 201.74 527.53 199.73 526.95 197.75 526.29 193.8 524.96 202.88 498.33"/><path d="M202.7,465.27c2.26.93,4.54,1.79,6.8,2.69l-10.06,26.28c-2.58-1-5.18-2-7.75-3.09Z" transform="translate(-13.49 27.89)"/><path d="M189.5,459l3.25,1.66c.54.28,1.08.57,1.63.83l1.67.75-12,25.47-1.9-.86c-.63-.3-1.24-.63-1.86-.94l-3.72-1.9Z" transform="translate(-13.49 27.89)"/><path d="M176.73,451.88c2.09,1.26,4.22,2.44,6.33,3.67l-13.79,24.52c-2.41-1.4-4.84-2.75-7.22-4.19Z" transform="translate(-13.49 27.89)"/><polygon points="151.08 471.66 154.06 473.78 155.55 474.84 157.09 475.83 141.54 499.28 139.79 498.15 138.09 496.94 134.69 494.52 151.08 471.66"/><path d="M153,434.85c1.86,1.58,3.82,3,5.72,4.55l-17.21,22.26c-2.17-1.73-4.4-3.4-6.52-5.19Z" transform="translate(-13.49 27.89)"/><path d="M142.11,425.06l2.65,2.52c.88.85,1.75,1.7,2.69,2.48L128.67,451c-1.07-.89-2.06-1.87-3.07-2.82l-3-2.88Z" transform="translate(-13.49 27.89)"/><path d="M131.94,414.55c.78.94,1.63,1.81,2.48,2.69l2.52,2.65-20.25,19.53-2.88-3c-1-1-1.93-2-2.82-3.07Z" transform="translate(-13.49 27.89)"/><path d="M122.6,403.3c1.52,1.9,3,3.86,4.55,5.72l-21.62,18c-1.79-2.12-3.46-4.35-5.19-6.52Z" transform="translate(-13.49 27.89)"/><polygon points="100.57 419.32 101.56 420.85 102.62 422.34 104.74 425.32 81.88 441.71 79.46 438.31 78.25 436.61 77.12 434.86 100.57 419.32"/><path d="M106.45,378.94c1.23,2.11,2.41,4.24,3.67,6.33L86.12,400c-1.44-2.38-2.79-4.81-4.19-7.22Z" transform="translate(-13.49 27.89)"/><path d="M99.75,366l.75,1.67c.26.55.55,1.09.83,1.63L103,372.5,78,385.39l-1.9-3.72c-.31-.62-.64-1.23-.94-1.86l-.86-1.9Z" transform="translate(-13.49 27.89)"/><path d="M94,352.5c.9,2.26,1.76,4.54,2.69,6.8l-25.88,11c-1.07-2.57-2.06-5.17-3.09-7.75Z" transform="translate(-13.49 27.89)"/><polygon points="75.82 366.57 76.31 368.33 76.9 370.06 78.07 373.52 51.44 382.6 50.11 378.65 49.45 376.67 48.87 374.67 75.82 366.57"/><path d="M85.64,324.53c.56,2.37,1.06,4.76,1.67,7.12l-27.22,7.1c-.7-2.7-1.28-5.42-1.92-8.12Z" transform="translate(-13.49 27.89)"/><path d="M83,310.16c.13,1.22.37,2.41.58,3.61l.64,3.6-27.67,5.08-.73-4.11c-.24-1.37-.5-2.73-.65-4.11Z" transform="translate(-13.49 27.89)"/><path d="M81.43,295.62l.27,3.65c.09,1.22.17,2.43.35,3.64l-28,3c-.2-1.37-.29-2.76-.4-4.15l-.31-4.15Z" transform="translate(-13.49 27.89)"/><polygon points="67.34 308.89 67.53 316.21 39.42 317.22 39.21 308.89 67.34 308.89"/><path d="M81.43,266.38,81.15,270c-.1,1.22-.08,2.44-.13,3.66l-28.11-1c.05-1.39,0-2.78.14-4.16l.32-4.16Z" transform="translate(-13.49 27.89)"/><polygon points="69.48 279.73 68.56 286.98 40.59 283.94 41.64 275.67 69.48 279.73"/><path d="M85.64,237.47c-.27,1.18-.57,2.37-.81,3.56l-.64,3.6-27.67-5.08.74-4.11c.27-1.36.61-2.71.91-4.07Z" transform="translate(-13.49 27.89)"/><polygon points="75.82 251.21 73.82 258.24 46.6 251.15 48.87 243.12 75.82 251.21"/><path d="M94,209.5c-.43,1.14-.94,2.25-1.31,3.41l-1.17,3.46-26.63-9.08,1.34-3.95c.44-1.32,1-2.6,1.49-3.9Z" transform="translate(-13.49 27.89)"/><polygon points="86.26 223.94 83.24 230.6 57.36 219.58 60.79 211.98 86.26 223.94"/><path d="M106.45,183.06c-.59,1.06-1.25,2.09-1.79,3.18L103,189.5,78,176.61l1.91-3.71c.62-1.24,1.36-2.42,2-3.63Z" transform="translate(-13.49 27.89)"/><polygon points="100.57 198.47 96.63 204.62 72.63 189.95 77.12 182.93 100.57 198.47"/><path d="M122.6,158.7c-.75,1-1.53,1.91-2.25,2.89l-2.12,3L95.37,148.18l2.42-3.39c.82-1.12,1.7-2.2,2.55-3.3Z" transform="translate(-13.49 27.89)"/><polygon points="118.45 175.34 113.66 180.87 92.04 162.86 97.5 156.56 118.45 175.34"/><polygon points="128.62 164.83 125.97 167.35 123.45 170 103.2 150.47 106.08 147.46 109.09 144.58 128.62 164.83"/><polygon points="139.49 155.04 133.96 159.83 115.18 138.88 121.48 133.43 139.49 155.04"/><path d="M164.57,118.23l-3,2.12c-1,.72-1.92,1.5-2.89,2.25l-17.21-22.26c1.1-.85,2.18-1.73,3.3-2.55l3.39-2.42Z" transform="translate(-13.49 27.89)"/><polygon points="163.24 138.01 157.09 141.96 141.54 118.51 148.56 114.01 163.24 138.01"/><path d="M189.5,103l-3.26,1.67c-1.09.54-2.12,1.2-3.18,1.79L169.27,81.93c1.21-.68,2.39-1.42,3.63-2L176.61,78Z" transform="translate(-13.49 27.89)"/><polygon points="189.21 124.63 182.55 127.64 170.6 102.17 178.2 98.74 189.21 124.63"/><path d="M216.37,91.56l-3.46,1.17c-1.16.37-2.27.88-3.41,1.31L199.44,67.76c1.3-.49,2.58-1.05,3.9-1.49l3.95-1.34Z" transform="translate(-13.49 27.89)"/><polygon points="216.86 115.2 209.83 117.2 201.74 90.26 209.76 87.98 216.86 115.2"/><path d="M244.63,84.19l-3.6.64c-1.19.24-2.38.54-3.56.81l-6.1-27.47c1.36-.3,2.71-.64,4.07-.91l4.11-.74Z" transform="translate(-13.49 27.89)"/><polygon points="245.6 109.94 238.34 110.87 234.28 83.03 242.56 81.98 245.6 109.94"/><path d="M273.68,81c-1.22,0-2.44,0-3.66.13l-3.64.28-2-28.06,4.16-.32c1.38-.1,2.77-.09,4.16-.14Z" transform="translate(-13.49 27.89)"/><polygon points="274.83 108.92 267.51 108.73 267.51 80.59 275.84 80.8 274.83 108.92"/><path d="M302.91,82.05c-1.21-.18-2.42-.26-3.64-.35l-3.65-.27,2-28.06,4.15.31c1.39.11,2.78.2,4.15.4Z" transform="translate(-13.49 27.89)"/><path d="M317.37,84.19l-3.6-.64c-1.2-.21-2.39-.45-3.61-.58l4.07-27.83c1.38.15,2.74.41,4.11.65l4.11.73Z" transform="translate(-13.49 27.89)"/><path d="M331.65,87.31c-2.36-.61-4.75-1.11-7.12-1.67l6.1-27.47c2.7.64,5.42,1.22,8.12,1.92Z" transform="translate(-13.49 27.89)"/><polygon points="332.14 119.45 328.68 118.28 326.94 117.7 325.19 117.2 333.28 90.26 335.29 90.83 337.27 91.49 341.22 92.83 332.14 119.45"/><path d="M359.3,96.73c-2.26-.93-4.54-1.79-6.8-2.69l10.06-26.28c2.58,1,5.18,2,7.75,3.09Z" transform="translate(-13.49 27.89)"/><path d="M372.5,103l-3.25-1.66c-.54-.28-1.08-.57-1.63-.83L366,99.75l12-25.47,1.9.86c.63.3,1.24.63,1.86.94l3.72,1.9Z" transform="translate(-13.49 27.89)"/><path d="M385.27,110.12c-2.09-1.26-4.22-2.44-6.33-3.67l13.79-24.52c2.41,1.4,4.84,2.75,7.22,4.19Z" transform="translate(-13.49 27.89)"/><polygon points="383.94 146.13 380.96 144.01 379.47 142.94 377.93 141.96 393.48 118.51 395.23 119.64 396.93 120.84 400.33 123.26 383.94 146.13"/><path d="M409,127.15c-1.86-1.58-3.82-3-5.72-4.55l17.21-22.26c2.17,1.73,4.4,3.4,6.52,5.19Z" transform="translate(-13.49 27.89)"/><path d="M419.89,136.94l-2.65-2.52c-.88-.85-1.75-1.7-2.69-2.48l18.78-21c1.07.89,2.06,1.87,3.07,2.82l3,2.88Z" transform="translate(-13.49 27.89)"/><path d="M430.06,147.45c-.78-.94-1.63-1.81-2.48-2.69l-2.52-2.65,20.25-19.53,2.88,3c.95,1,1.93,2,2.82,3.07Z" transform="translate(-13.49 27.89)"/><path d="M439.4,158.7c-1.52-1.9-3-3.86-4.55-5.72l21.62-18c1.79,2.12,3.46,4.35,5.19,6.52Z" transform="translate(-13.49 27.89)"/><polygon points="434.44 198.47 433.46 196.93 432.39 195.44 430.27 192.46 453.14 176.07 455.56 179.47 456.76 181.17 457.89 182.93 434.44 198.47"/><path d="M455.55,183.06c-1.23-2.11-2.41-4.24-3.67-6.33l24-14.68c1.44,2.38,2.79,4.81,4.19,7.22Z" transform="translate(-13.49 27.89)"/><path d="M462.25,196.05l-.75-1.67c-.26-.55-.55-1.09-.83-1.63L459,189.5l25-12.89,1.9,3.72c.31.62.64,1.23.94,1.86l.86,1.9Z" transform="translate(-13.49 27.89)"/><path d="M468,209.5c-.9-2.26-1.76-4.54-2.69-6.8l25.88-11c1.07,2.57,2.06,5.17,3.09,7.75Z" transform="translate(-13.49 27.89)"/><polygon points="459.2 251.21 458.7 249.46 458.12 247.72 456.95 244.26 483.57 235.18 484.91 239.13 485.57 241.11 486.14 243.12 459.2 251.21"/><path d="M476.36,237.47c-.56-2.37-1.06-4.76-1.67-7.12l27.22-7.1c.7,2.7,1.28,5.42,1.92,8.12Z" transform="translate(-13.49 27.89)"/><path d="M479,251.84c-.13-1.22-.37-2.41-.58-3.61l-.64-3.6,27.67-5.08.73,4.11c.24,1.37.5,2.73.65,4.11Z" transform="translate(-13.49 27.89)"/><path d="M480.57,266.38l-.27-3.65c-.09-1.22-.17-2.43-.35-3.64l28-3c.2,1.37.29,2.76.4,4.15l.31,4.15Z" transform="translate(-13.49 27.89)"/><polygon points="467.67 308.89 467.49 301.57 495.6 300.56 495.81 308.89 467.67 308.89"/></g><g id="Layer_31" data-name="Layer 31"><path d="M281,1,523.51,141V421L281,561,38.49,421V141L281,1m0-28.87-12.5,7.21L26,119.34l-12.5,7.21v308.9L26,442.66l242.51,140,12.5,7.21,12.5-7.21L536,442.66l12.5-7.21V126.55L536,119.34,293.5-20.68,281-27.89Z" transform="translate(-13.49 27.89)"/></g></svg>