<svg xmlns="http://www.w3.org/2000/svg" viewBox="0 0 535.02 617.78"><defs><style>.cls-1{stroke:#fff;stroke-width:2px;}.cls-1,.cls-2{stroke-miterlimit:10;}.cls-2{stroke:#000;}</style></defs><g id="Spaceborn"><polygon points="269.2 232.71 286.93 202.02 307.69 196.45 359.37 106.93 318.12 83.11 241.12 216.5 269.2 232.71"/><polygon points="256.2 164.06 203.04 160.86 149.27 254 196.47 267.5 256.2 164.06"/><polygon points="350.97 238.99 333.25 269.69 361.34 285.9 438.34 152.52 397.1 128.71 345.41 218.23 350.97 238.99"/><polygon points="339.49 350.07 374.78 384.2 428.55 291.06 399.21 246.63 339.49 350.07"/><path d="M359,285.42,339.31,255.6l10.16-49.68-37.08-21.4-37.93,33.63L238.78,216l-22.09,38.27-60.25-17.23-22.87,39.61,68.66,39.64-2,33.93L262.07,386l28.35-18.73,68.66,39.64L382,367.25l-45-43.56Zm-85,76.92-50.52-29.17L229.31,323l50.52,29.17Z" transform="translate(-13.49 27.89)"/><path d="M130.5,342a49.33,49.33,0,0,1,34,13.55,35.94,35.94,0,1,0,5,66.36A49.5,49.5,0,1,1,130.5,342m0-3a52.5,52.5,0,1,0,41.41,84.75l8.17-10.48-11.88,6a32.44,32.44,0,0,1-14.69,3.48,32.94,32.94,0,1,1,10.08-64.29l12.59,4.06-9.61-9.1A52.25,52.25,0,0,0,130.5,339Z" transform="translate(-13.49 27.89)"/><path class="cls-1" d="M32,322" transform="translate(-13.49 27.89)"/><g id="Layer_24" data-name="Layer 24"><path class="cls-2" d="M57,189.92h0a1,1,0,0,1,.69-.31,34.49,34.49,0,0,0,32.93-32.93,1,1,0,0,1,.3-.69h0a1,1,0,0,1,1.46,0h0a1,1,0,0,1,.3.68,34.48,34.48,0,0,0,32.92,32.93,1,1,0,0,1,.69.3h0a1,1,0,0,1,0,1.46h0a1,1,0,0,1-.68.3,34.47,34.47,0,0,0-32.92,32.92,1,1,0,0,1-.31.69h0a1,1,0,0,1-1.45,0h0a1,1,0,0,1-.3-.7,34.49,34.49,0,0,0-32.93-32.92,1,1,0,0,1-.69-.31h0A1,1,0,0,1,57,189.92Zm7.71.72a36.57,36.57,0,0,1,26.94,26.94,36.52,36.52,0,0,1,26.93-26.94A36.57,36.57,0,0,1,91.64,163.7,36.58,36.58,0,0,1,64.7,190.64Z" transform="translate(-13.49 27.89)"/><path class="cls-2" d="M121.52,167.6h0a.36.36,0,0,1,.24-.11A12,12,0,0,0,133.21,156a.38.38,0,0,1,.11-.24h0a.36.36,0,0,1,.51,0h0a.33.33,0,0,1,.1.23,12,12,0,0,0,11.45,11.45.36.36,0,0,1,.24.11h0a.36.36,0,0,1,0,.51h0a.37.37,0,0,1-.24.1,12,12,0,0,0-11.45,11.45.32.32,0,0,1-.11.24h0a.35.35,0,0,1-.5,0h0a.36.36,0,0,1-.11-.24,12,12,0,0,0-11.45-11.45.32.32,0,0,1-.24-.11h0A.36.36,0,0,1,121.52,167.6Zm2.68.25a12.72,12.72,0,0,1,9.37,9.37,12.72,12.72,0,0,1,9.37-9.37,12.71,12.71,0,0,1-9.37-9.37A12.71,12.71,0,0,1,124.2,167.85Z" transform="translate(-13.49 27.89)"/><path class="cls-2" d="M124.78,118.32h0a.48.48,0,0,1,.36-.16A18.08,18.08,0,0,0,142.4,100.9a.52.52,0,0,1,.16-.36h0a.54.54,0,0,1,.76,0h0a.54.54,0,0,1,.16.36,18.08,18.08,0,0,0,17.26,17.26.48.48,0,0,1,.36.16h0a.54.54,0,0,1,0,.76h0a.57.57,0,0,1-.36.16,18.07,18.07,0,0,0-17.26,17.26.52.52,0,0,1-.16.36h0a.54.54,0,0,1-.76,0h0a.52.52,0,0,1-.16-.36,18.08,18.08,0,0,0-17.26-17.26.52.52,0,0,1-.36-.16h0A.54.54,0,0,1,124.78,118.32Zm4,.38a19.17,19.17,0,0,1,14.12,14.12,19.17,19.17,0,0,1,14.12-14.12,19.17,19.17,0,0,1-14.12-14.12A19.17,19.17,0,0,1,128.82,118.7Z" transform="translate(-13.49 27.89)"/><path class="cls-2" d="M205.34,105.78h0a.5.5,0,0,1,.37-.17,18.54,18.54,0,0,0,17.7-17.7.52.52,0,0,1,.16-.37h0a.56.56,0,0,1,.79,0h0a.57.57,0,0,1,.16.36,18.53,18.53,0,0,0,17.69,17.7.52.52,0,0,1,.37.16h0a.56.56,0,0,1,0,.79h0a.57.57,0,0,1-.37.16,18.52,18.52,0,0,0-17.69,17.69.56.56,0,0,1-.17.37h0a.58.58,0,0,1-.78,0h0a.55.55,0,0,1-.16-.38,18.53,18.53,0,0,0-17.69-17.69.58.58,0,0,1-.38-.17h0A.55.55,0,0,1,205.34,105.78Zm4.14.38A19.64,19.64,0,0,1,224,120.64a19.64,19.64,0,0,1,14.48-14.48A19.65,19.65,0,0,1,224,91.69,19.65,19.65,0,0,1,209.48,106.16Z" transform="translate(-13.49 27.89)"/><path class="cls-2" d="M258.47,39.75h0a.43.43,0,0,1,.3-.13,15,15,0,0,0,14.28-14.28.49.49,0,0,1,.14-.3h0a.45.45,0,0,1,.63,0h0a.48.48,0,0,1,.13.3,15,15,0,0,0,14.28,14.28.43.43,0,0,1,.3.13h0a.45.45,0,0,1,0,.63h0a.47.47,0,0,1-.3.12A15,15,0,0,0,274,54.79a.44.44,0,0,1-.13.3h0a.46.46,0,0,1-.62,0h0a.49.49,0,0,1-.14-.3,15,15,0,0,0-14.27-14.29.44.44,0,0,1-.31-.13h0A.45.45,0,0,1,258.47,39.75Zm3.35.32A15.84,15.84,0,0,1,273.5,51.75a15.86,15.86,0,0,1,11.69-11.68A15.87,15.87,0,0,1,273.5,28.38,15.86,15.86,0,0,1,261.82,40.07Z" transform="translate(-13.49 27.89)"/><path class="cls-2" d="M89.59,266h0a.4.4,0,0,1,.28-.12,14.06,14.06,0,0,0,13.42-13.42.4.4,0,0,1,.12-.28h0a.43.43,0,0,1,.6,0h0a.4.4,0,0,1,.12.28,14.06,14.06,0,0,0,13.42,13.42.4.4,0,0,1,.28.12h0a.43.43,0,0,1,0,.6h0a.5.5,0,0,1-.28.12,14.05,14.05,0,0,0-13.42,13.42.39.39,0,0,1-.13.28h0a.41.41,0,0,1-.58,0h0a.37.37,0,0,1-.13-.28,14.06,14.06,0,0,0-13.42-13.42.41.41,0,0,1-.28-.13h0A.42.42,0,0,1,89.59,266Zm3.14.3a14.92,14.92,0,0,1,11,11,14.9,14.9,0,0,1,11-11,14.92,14.92,0,0,1-11-11A14.92,14.92,0,0,1,92.73,266.26Z" transform="translate(-13.49 27.89)"/><path class="cls-2" d="M47,314h0a.58.58,0,0,1,.37-.17,18.39,18.39,0,0,0,17.58-17.57.6.6,0,0,1,.16-.37h0a.56.56,0,0,1,.78,0h0a.52.52,0,0,1,.16.37A18.41,18.41,0,0,0,83.6,313.79.58.58,0,0,1,84,314h0a.56.56,0,0,1,0,.78h0a.62.62,0,0,1-.37.16A18.41,18.41,0,0,0,66,332.47a.52.52,0,0,1-.16.37h0a.55.55,0,0,1-.77,0h0a.56.56,0,0,1-.17-.37A18.39,18.39,0,0,0,47.35,314.9a.56.56,0,0,1-.37-.17h0A.57.57,0,0,1,47,314Zm4.12.38a19.53,19.53,0,0,1,14.38,14.39,19.53,19.53,0,0,1,14.38-14.39A19.51,19.51,0,0,1,65.47,300,19.5,19.5,0,0,1,51.09,314.34Z" transform="translate(-13.49 27.89)"/><path class="cls-2" d="M196.18,468.83h0a.61.61,0,0,1,.45-.2,22.19,22.19,0,0,0,21.18-21.18.69.69,0,0,1,.2-.45h0a.66.66,0,0,1,.93,0h0a.67.67,0,0,1,.2.44,22.17,22.17,0,0,0,21.18,21.18.63.63,0,0,1,.44.19h0a.67.67,0,0,1,0,.94h0a.6.6,0,0,1-.44.19,22.18,22.18,0,0,0-21.17,21.18.69.69,0,0,1-.2.45h0a.67.67,0,0,1-.93,0h0a.69.69,0,0,1-.2-.45A22.19,22.19,0,0,0,196.63,470a.6.6,0,0,1-.44-.19h0A.66.66,0,0,1,196.18,468.83Zm5,.46a23.5,23.5,0,0,1,17.33,17.33,23.54,23.54,0,0,1,17.33-17.33A23.52,23.52,0,0,1,218.47,452,23.5,23.5,0,0,1,201.14,469.29Z" transform="translate(-13.49 27.89)"/><path class="cls-2" d="M257.79,425.63h0a.74.74,0,0,1,.48-.22,23.56,23.56,0,0,0,22.5-22.5.73.73,0,0,1,.21-.47h0a.7.7,0,0,1,1,0h0a.68.68,0,0,1,.21.46,23.54,23.54,0,0,0,22.5,22.5.73.73,0,0,1,.47.21h0a.72.72,0,0,1,0,1h0a.63.63,0,0,1-.46.2,23.57,23.57,0,0,0-22.5,22.5.73.73,0,0,1-.21.48h0a.69.69,0,0,1-1,0h0a.68.68,0,0,1-.21-.47,23.58,23.58,0,0,0-22.5-22.51.68.68,0,0,1-.48-.21h0A.71.71,0,0,1,257.79,425.63Zm5.27.49a25,25,0,0,1,18.41,18.41,25,25,0,0,1,18.41-18.41,25,25,0,0,1-18.41-18.41A25,25,0,0,1,263.06,426.12Z" transform="translate(-13.49 27.89)"/><path class="cls-2" d="M296.58,499.62h0a.41.41,0,0,1,.29-.13,14.26,14.26,0,0,0,13.62-13.62.41.41,0,0,1,.13-.29h0a.43.43,0,0,1,.6,0h0a.36.36,0,0,1,.12.28A14.27,14.27,0,0,0,325,499.49a.41.41,0,0,1,.29.13h0a.43.43,0,0,1,0,.6h0a.4.4,0,0,1-.29.12A14.27,14.27,0,0,0,311.34,514a.45.45,0,0,1-.12.29h0a.42.42,0,0,1-.59,0h0a.39.39,0,0,1-.13-.29,14.27,14.27,0,0,0-13.62-13.62.45.45,0,0,1-.29-.12h0A.42.42,0,0,1,296.58,499.62Zm3.19.3a15.12,15.12,0,0,1,11.15,11.14,15.1,15.1,0,0,1,11.14-11.14,15.12,15.12,0,0,1-11.14-11.15A15.13,15.13,0,0,1,299.77,499.92Z" transform="translate(-13.49 27.89)"/><path class="cls-2" d="M388,451.65h0a.34.34,0,0,1,.27-.12,13.47,13.47,0,0,0,12.86-12.86.36.36,0,0,1,.12-.27h0a.4.4,0,0,1,.57,0h0a.39.39,0,0,1,.11.27,13.48,13.48,0,0,0,12.86,12.86.36.36,0,0,1,.27.12h0a.4.4,0,0,1,0,.57h0a.39.39,0,0,1-.27.11A13.48,13.48,0,0,0,402,465.19a.36.36,0,0,1-.12.27h0a.39.39,0,0,1-.56,0h0a.34.34,0,0,1-.12-.27,13.47,13.47,0,0,0-12.86-12.86.36.36,0,0,1-.27-.12h0A.39.39,0,0,1,388,451.65Zm3,.28a14.26,14.26,0,0,1,10.52,10.52,14.26,14.26,0,0,1,10.52-10.52,14.26,14.26,0,0,1-10.52-10.52A14.26,14.26,0,0,1,391,451.93Z" transform="translate(-13.49 27.89)"/><path class="cls-2" d="M413.71,384.64h0a1,1,0,0,1,.7-.31,34.47,34.47,0,0,0,32.92-32.92,1,1,0,0,1,.31-.69h0a1,1,0,0,1,1.46,0h0a1,1,0,0,1,.29.68,34.48,34.48,0,0,0,32.93,32.92,1,1,0,0,1,.69.31h0a1,1,0,0,1,0,1.46h0a1,1,0,0,1-.68.29,34.5,34.5,0,0,0-32.93,32.93,1,1,0,0,1-.3.69h0a1,1,0,0,1-1.44,0h0a1,1,0,0,1-.31-.69,34.49,34.49,0,0,0-32.92-32.93,1,1,0,0,1-.69-.3h0A1,1,0,0,1,413.71,384.64Zm7.71.72a36.55,36.55,0,0,1,26.94,26.94,36.58,36.58,0,0,1,26.94-26.94,36.55,36.55,0,0,1-26.94-26.94A36.54,36.54,0,0,1,421.42,385.36Z" transform="translate(-13.49 27.89)"/><path class="cls-2" d="M357.72,117.7h0a.51.51,0,0,1,.35-.15,17.47,17.47,0,0,0,16.67-16.67.51.51,0,0,1,.15-.35h0a.52.52,0,0,1,.74,0h0a.49.49,0,0,1,.15.34,17.46,17.46,0,0,0,16.67,16.67.51.51,0,0,1,.35.15h0a.52.52,0,0,1,0,.74h0a.49.49,0,0,1-.34.15,17.45,17.45,0,0,0-16.67,16.67.48.48,0,0,1-.16.35h0a.52.52,0,0,1-.73,0h0a.51.51,0,0,1-.15-.35,17.47,17.47,0,0,0-16.67-16.67.51.51,0,0,1-.35-.15h0A.53.53,0,0,1,357.72,117.7Zm3.9.37a18.49,18.49,0,0,1,13.64,13.64,18.49,18.49,0,0,1,13.64-13.64,18.49,18.49,0,0,1-13.64-13.64A18.5,18.5,0,0,1,361.62,118.07Z" transform="translate(-13.49 27.89)"/><path class="cls-2" d="M484.73,310.12h0A.46.46,0,0,1,485,310a14.54,14.54,0,0,0,13.89-13.89.43.43,0,0,1,.13-.29h0a.44.44,0,0,1,.61,0h0a.43.43,0,0,1,.13.29A14.54,14.54,0,0,0,513.67,310a.48.48,0,0,1,.29.13h0a.44.44,0,0,1,0,.61h0a.39.39,0,0,1-.29.13,14.54,14.54,0,0,0-13.88,13.88.42.42,0,0,1-.13.3h0a.45.45,0,0,1-.61,0h0a.41.41,0,0,1-.13-.29A14.54,14.54,0,0,0,485,310.86a.42.42,0,0,1-.3-.13h0A.45.45,0,0,1,484.73,310.12Zm3.25.31a15.39,15.39,0,0,1,11.36,11.36,15.42,15.42,0,0,1,11.37-11.36,15.44,15.44,0,0,1-11.37-11.37A15.42,15.42,0,0,1,488,310.43Z" transform="translate(-13.49 27.89)"/><path class="cls-2" d="M455.2,239.32h0a.45.45,0,0,1,.28-.13,14.06,14.06,0,0,0,13.43-13.42.39.39,0,0,1,.12-.28h0a.42.42,0,0,1,.59,0h0a.45.45,0,0,1,.13.28,14,14,0,0,0,13.42,13.42.45.45,0,0,1,.28.13h0a.41.41,0,0,1,0,.59h0a.36.36,0,0,1-.27.12,14.06,14.06,0,0,0-13.42,13.42.41.41,0,0,1-.13.28h0a.44.44,0,0,1-.59,0h0a.46.46,0,0,1-.13-.29A14,14,0,0,0,455.49,240a.45.45,0,0,1-.29-.12h0A.42.42,0,0,1,455.2,239.32Zm3.14.29a14.91,14.91,0,0,1,11,11,14.89,14.89,0,0,1,11-11,14.86,14.86,0,0,1-11-11A14.88,14.88,0,0,1,458.34,239.61Z" transform="translate(-13.49 27.89)"/><path class="cls-2" d="M465.21,167.47h0a.58.58,0,0,1,.37-.17,18.41,18.41,0,0,0,17.58-17.58.52.52,0,0,1,.16-.37h0a.55.55,0,0,1,.78,0h0a.57.57,0,0,1,.16.36,18.4,18.4,0,0,0,17.58,17.58.57.57,0,0,1,.37.16h0a.55.55,0,0,1,0,.78h0a.5.5,0,0,1-.36.16A18.42,18.42,0,0,0,484.26,186a.57.57,0,0,1-.16.37h0a.55.55,0,0,1-.77,0h0a.52.52,0,0,1-.16-.37,18.42,18.42,0,0,0-17.58-17.58.52.52,0,0,1-.37-.16h0A.55.55,0,0,1,465.21,167.47Zm4.12.38a19.51,19.51,0,0,1,14.38,14.39,19.51,19.51,0,0,1,14.38-14.39,19.51,19.51,0,0,1-14.38-14.38A19.51,19.51,0,0,1,469.33,167.85Z" transform="translate(-13.49 27.89)"/></g></g><g id="Layer_31" data-name="Layer 31"><path d="M281,1,523.51,141V421L281,561,38.49,421V141L281,1m0-28.87-12.5,7.21L26,119.34l-12.5,7.21v308.9L26,442.66l242.51,140,12.5,7.21,12.5-7.21L536,442.66l12.5-7.21V126.55L536,119.34,293.5-20.68,281-27.89Z" transform="translate(-13.49 27.89)"/></g></svg>