<svg xmlns="http://www.w3.org/2000/svg" viewBox="0 0 535.02 617.78"><defs><style>.cls-1{fill:none;stroke:#000;stroke-miterlimit:10;stroke-width:7px;}</style></defs><g id="Spotter"><path d="M364.58,291l-3-.23.27-3.43c0-.62,0-1.28.05-1.94,0-.49,0-1,0-1.46l.05-1.46,55.47.75-.05,3-52.51-.72c0,.68,0,1.35-.06,2Z" transform="translate(-13.49 27.89)"/><polygon points="402.99 327.27 350.78 321.54 350.53 323.49 349.92 326.95 346.96 326.42 347.57 323.04 348.17 318.24 403.32 324.29 402.99 327.27"/><path d="M414.27,312.44l-51.42-10.75-.44,1.91c-.18.69-.37,1.35-.56,2-.13.45-.26.91-.38,1.36l-2.9-.78.4-1.42c.18-.62.36-1.24.52-1.86l1.09-4.75,54.3,11.35Z" transform="translate(-13.49 27.89)"/><path d="M410.79,325.24l-50.14-15.7L360,311.4c-.23.68-.5,1.34-.76,2-.17.42-.34.83-.49,1.25L356,313.59c.16-.44.34-.87.51-1.31.25-.61.5-1.22.71-1.85l1.57-4.63,52.93,16.58Z" transform="translate(-13.49 27.89)"/><path d="M406.08,337.64l-48.37-20.5-.82,1.79c-.29.66-.62,1.3-1,1.94-.2.39-.41.78-.6,1.17l-2.69-1.32c.2-.42.42-.83.63-1.24.31-.59.62-1.18.89-1.78l2-4.47,51.07,21.65Z" transform="translate(-13.49 27.89)"/><path d="M400.19,349.51,354,324.42l-1,1.71c-.36.62-.75,1.23-1.15,1.84-.24.37-.48.74-.71,1.11l-2.56-1.58c.25-.39.5-.78.76-1.17.36-.56.73-1.12,1.06-1.69l2.44-4.25,48.73,26.49Z" transform="translate(-13.49 27.89)"/><path d="M393.18,360.75l-43.51-29.43-1.15,1.61c-.42.59-.87,1.15-1.32,1.71l-.82,1.05L344,333.88c.28-.38.58-.74.87-1.11s.83-1,1.22-1.58l2.84-4,45.94,31.07Z" transform="translate(-13.49 27.89)"/><path d="M385.13,371.26l-40.48-33.48-1.3,1.5c-.47.54-1,1.05-1.46,1.56l-.94,1-2.2-2c.32-.35.65-.68,1-1s.92-1,1.36-1.46l3.21-3.7L387,369Z" transform="translate(-13.49 27.89)"/><path d="M376.12,380.94,339,343.73l-1.43,1.36c-.53.49-1.06,1-1.6,1.41-.34.29-.69.59-1,.9l-2-2.25,1.08-.93c.5-.43,1-.86,1.49-1.31l3.55-3.38,39.15,39.29Z" transform="translate(-13.49 27.89)"/><path d="M366.21,389.71l-33.34-40.6-1.55,1.22c-.57.43-1.14.83-1.7,1.22-.38.27-.77.54-1.14.82L326.71,350c.39-.29.79-.57,1.19-.85s1.06-.75,1.58-1.14l3.85-3,35.2,42.86Z" transform="translate(-13.49 27.89)"/><path d="M355.5,397.49l-29.28-43.62-1.66,1.07-1.76,1c-.42.24-.84.47-1.26.72L320,354.11l1.3-.75c.56-.32,1.12-.63,1.66-1l4.11-2.63L358,395.81Z" transform="translate(-13.49 27.89)"/><path d="M344.09,404.2,319.16,358l-1.75.89c-.64.31-1.27.59-1.89.87l-1.29.58L313,357.59l1.34-.6,1.77-.81,4.34-2.22,26.32,48.82Z" transform="translate(-13.49 27.89)"/><path d="M332.07,409.79l-20.33-48.44-1.83.72c-.67.26-1.33.47-2,.69l-1.32.45-1-2.83,1.37-.47c.62-.2,1.24-.41,1.85-.64l4.54-1.78,21.47,51.14Z" transform="translate(-13.49 27.89)"/><path d="M319.56,414.19,304,364l-1.89.54c-.7.19-1.4.35-2.11.51l-1.28.29-.72-2.91,1.35-.31c.65-.15,1.3-.29,1.94-.47l4.71-1.34,16.39,53Z" transform="translate(-13.49 27.89)"/><path d="M306.67,417.35,296.1,365.88l-2,.35c-.72.15-1.47.24-2.2.32-.42.05-.83.09-1.24.16l-.45-3c.45-.07.9-.12,1.35-.17a19,19,0,0,0,2-.29l4.87-.86,11.16,54.32Z" transform="translate(-13.49 27.89)"/><path d="M293.56,419.23,288,367c-1.81.15-3.67.3-5.55.3v-3c1.84,0,3.73-.16,5.55-.31l2.67-.22,5.86,55.15Z" transform="translate(-13.49 27.89)"/><path d="M280.36,419.84l-.54-52.5-.71,0-1.26,0-1.76,0-1.8-.14.24-3,1.72.14,1.64,0c.42,0,.88,0,1.34,0,.69,0,1.35.05,2,0l1.57-.1.57,55.58Z" transform="translate(-13.49 27.89)"/><path d="M270.16,419.45l-3-.26,4.47-52.3-1.5-.19-.91-.11c-1-.13-2.06-.25-3.1-.47l.61-2.94c.92.19,1.86.31,2.85.43l.94.12c1,.13,1.88.25,2.8.29l1.56.07Z" transform="translate(-13.49 27.89)"/><path d="M257,417.83l-2.95-.54,9.49-51.63-.2,0-1.76-.41c-.34-.09-.67-.16-1-.23-.8-.18-1.62-.36-2.44-.63l.91-2.86a22.36,22.36,0,0,0,2.18.56c.35.08.7.15,1.05.24l1.66.39,3.1.54Z" transform="translate(-13.49 27.89)"/><path d="M244.08,414.94l-2.89-.82,14.47-50.46-.2-.06-1.7-.57-1.15-.39c-.72-.23-1.47-.48-2.21-.8l1.2-2.75a20,20,0,0,0,1.94.7c.4.13.81.26,1.2.41l1.6.54,3,.84Z" transform="translate(-13.49 27.89)"/><path d="M231.48,410.81l-2.79-1.1L248,360.89l-.2-.07c-.36-.15-.71-.31-1-.47l-.57-.26c-.41-.2-.79-.36-1.16-.52-.68-.3-1.39-.61-2.08-1l1.46-2.62c.57.32,1.18.59,1.82.87.41.18.81.35,1.21.54l.58.27c.3.14.6.28.9.4l3,1.16Z" transform="translate(-13.49 27.89)"/><path d="M219.34,405.48l-2.67-1.37,24-46.72c-.61-.32-1.2-.64-1.79-1-.34-.21-.7-.41-1.06-.61a20.64,20.64,0,0,1-2-1.19l1.71-2.46a18.82,18.82,0,0,0,1.73,1l1.15.67c.91.55,1.86,1,2.92,1.57l1.36.68Z" transform="translate(-13.49 27.89)"/><path d="M207.79,399l-2.53-1.62,28.36-44.18-.19-.12c-.33-.21-.64-.44-1-.67l-.49-.36-1-.72c-.61-.43-1.25-.87-1.87-1.39l1.94-2.29c.5.42,1.06.81,1.64,1.21.36.25.72.5,1.07.76l.51.37c.27.19.53.39.81.57l2.72,1.72Z" transform="translate(-13.49 27.89)"/><path d="M196.93,391.44l-2.36-1.86L227,348.34l-.17-.13c-.31-.25-.59-.5-.87-.75l-.48-.42c-.32-.29-.62-.54-.92-.79-.58-.5-1.19-1-1.76-1.59l2.15-2.1c.47.48,1,.93,1.55,1.4.32.27.64.54,1,.82l.49.43.75.65,2.53,2Z" transform="translate(-13.49 27.89)"/><path d="M186.84,382.88l-2.16-2.08L221,342.87l-.16-.15c-.29-.29-.54-.56-.8-.83l-.44-.47-.79-.82c-.55-.57-1.11-1.15-1.64-1.8l2.33-1.89c.45.55.94,1.06,1.47,1.6l.81.85.45.48c.23.24.46.49.7.73l2.32,2.19Z" transform="translate(-13.49 27.89)"/><path d="M177.63,373.39l-2-2.27,39.76-34.28-.15-.17-1.11-1.41-.66-.84c-.5-.63-1-1.29-1.49-2l2.49-1.65c.4.6.86,1.17,1.34,1.78.23.29.47.58.69.87l1.06,1.34,2.07,2.38Z" transform="translate(-13.49 27.89)"/><path d="M169.37,363.05l-1.73-2.45,42.86-30.29-.12-.18-1-1.52c-.19-.29-.37-.58-.56-.86-.45-.69-.91-1.4-1.31-2.16l2.64-1.41c.35.65.76,1.27,1.19,1.93l.57.9.92,1.44L214.7,331Z" transform="translate(-13.49 27.89)"/><path d="M162.14,352l-1.49-2.6,45.58-26-.1-.18-.82-1.61c-.16-.32-.31-.62-.47-.92-.38-.73-.77-1.47-1.1-2.27l2.78-1.14c.27.67.62,1.33,1,2l.49,1,.77,1.52,1.59,2.72Z" transform="translate(-13.49 27.89)"/><path d="M156,340.22l-1.23-2.74L202.67,316l-.09-.19-.66-1.68c-.13-.36-.27-.7-.41-1-.29-.73-.6-1.48-.84-2.28l2.87-.87c.21.67.47,1.33.75,2,.15.36.3.72.43,1.09l.62,1.58,1.31,2.86Z" transform="translate(-13.49 27.89)"/><path d="M151,327.93l-1-2.85,49.75-16.73-.06-.19c-.12-.39-.22-.75-.32-1.1l-.17-.62c-.12-.44-.24-.83-.35-1.22-.21-.71-.43-1.45-.58-2.23l2.94-.57c.13.64.31,1.27.51,1.94.13.43.26.85.37,1.28l.17.62c.09.32.18.64.28,1l1,3Z" transform="translate(-13.49 27.89)"/><path d="M147.29,315.21l-.68-2.93,51.15-11.81c-.15-.66-.28-1.33-.38-2-.07-.41-.15-.83-.23-1.25-.13-.7-.27-1.43-.36-2.19l3-.33c.07.64.19,1.28.32,2,.08.45.17.9.24,1.36.14.95.36,1.88.59,2.86l.44,1.85Z" transform="translate(-13.49 27.89)"/><path d="M144.79,302.19l-.38-3,52.05-6.81c-.16-1.4-.26-2.8-.36-4.17L196,287l3-.23.1,1.3c.12,1.8.26,3.67.53,5.45l.23,1.52Z" transform="translate(-13.49 27.89)"/><path d="M143.57,289l-.1-3L196,284.25c0-.67,0-1.36,0-2.06l.09-3.45,3,.08-.09,3.45c0,.67,0,1.33,0,2,0,.47,0,.93,0,1.39l0,1.46Z" transform="translate(-13.49 27.89)"/><polygon points="185.48 307.11 130.1 303.72 130.29 300.72 182.71 303.94 182.86 301.97 183.31 298.48 186.28 298.86 185.84 302.28 185.48 307.11"/><polygon points="186.18 299.25 131.4 290.55 131.87 287.58 183.74 295.83 184.09 293.89 184.87 290.48 187.79 291.14 187.03 294.49 186.18 299.25"/><path d="M201.13,263.63l-53.68-14,.76-2.91L199,260l.54-1.89q.31-1,.66-2c.15-.43.3-.86.44-1.29l2.86.92-.46,1.35c-.22.62-.43,1.24-.62,1.87Z" transform="translate(-13.49 27.89)"/><path d="M203.33,256.08l-52.06-19.14,1-2.81,49.31,18.12.72-1.83c.26-.66.56-1.31.86-2,.19-.41.38-.81.55-1.22l2.76,1.19c-.19.43-.39.86-.58,1.28-.28.6-.56,1.2-.8,1.81Z" transform="translate(-13.49 27.89)"/><path d="M206.26,248.78l-49.95-24.1,1.3-2.7,47.32,22.82.9-1.75c.33-.64.69-1.27,1.06-1.89.22-.38.45-.76.66-1.15l2.62,1.46c-.22.4-.46.8-.69,1.2-.34.58-.67,1.15-1,1.74Z" transform="translate(-13.49 27.89)"/><path d="M209.9,241.79,162.51,213l1.56-2.57L209,237.7,210,236c.38-.61.81-1.19,1.23-1.78.26-.36.52-.71.77-1.08l2.47,1.7c-.26.38-.54.76-.81,1.14-.39.54-.78,1.08-1.14,1.64Z" transform="translate(-13.49 27.89)"/><path d="M214.2,235.17l-44.39-33.25,1.8-2.4,42,31.5,1.23-1.56c.45-.56.92-1.1,1.39-1.64.3-.34.59-.67.88-1l2.3,1.93c-.3.36-.62.72-.93,1.07s-.87,1-1.29,1.52Z" transform="translate(-13.49 27.89)"/><path d="M219.12,229l-41-37.36,2-2.22L219,224.81l1.37-1.44c.5-.51,1-1,1.52-1.48.34-.31.67-.63,1-.94l2.1,2.14c-.34.33-.68.66-1,1s-1,.91-1.42,1.38Z" transform="translate(-13.49 27.89)"/><path d="M224.62,223.32,187.4,182.2l2.22-2,35.26,38.95,1.49-1.29c.55-.46,1.1-.89,1.64-1.31.37-.29.74-.57,1.1-.87L231,218l-1.14.9c-.51.4-1,.8-1.53,1.22Z" transform="translate(-13.49 27.89)"/><path d="M230.63,218.2l-33.1-44.51,2.41-1.79,31.35,42.15,1.61-1.14c.58-.4,1.16-.77,1.73-1.13l1.2-.77,1.65,2.51-1.24.79-1.63,1.06Z" transform="translate(-13.49 27.89)"/><path d="M237.1,213.69l-28.66-47.5,2.57-1.55,27.14,45,1.71-1c.62-.34,1.22-.65,1.83-.95.42-.22.85-.43,1.27-.66l1.4,2.66-1.32.68c-.57.29-1.15.58-1.71.89Z" transform="translate(-13.49 27.89)"/><path d="M244,209.82l-23.92-50,2.7-1.3,22.66,47.4,1.8-.81c.65-.29,1.29-.53,1.92-.78l1.31-.52,1.14,2.78-1.36.54q-.92.34-1.8.72Z" transform="translate(-13.49 27.89)"/><path d="M251.16,206.64l-19-52.13,2.82-1,18,49.38,1.86-.63c.68-.23,1.36-.42,2-.61.44-.12.87-.23,1.3-.36l.87,2.87-1.37.39c-.63.17-1.27.35-1.89.55Z" transform="translate(-13.49 27.89)"/><path d="M258.62,204.16l-13.79-53.72,2.91-.74,13.06,50.89,1.92-.44c.72-.18,1.45-.3,2.16-.42.42-.07.84-.14,1.26-.23l.59,2.95c-.45.09-.9.16-1.36.24-.68.11-1.33.22-1.95.37Z" transform="translate(-13.49 27.89)"/><path d="M266.3,202.44l-8.51-54.8,3-.46,8.07,51.91c1.79-.23,3.64-.47,5.51-.57l.15,3c-1.84.09-3.72.34-5.54.58Z" transform="translate(-13.49 27.89)"/><path d="M274.14,201.56l-3.21-55.45,3-.18,3,52.43h.68c.43,0,.87,0,1.3,0,1.19-.07,2.38,0,3.54,0l-.07,3c-1.17,0-2.25-.07-3.32,0l-1.4,0c-.7,0-1.36,0-2,.07Z" transform="translate(-13.49 27.89)"/><path d="M290.31,201.89l-.68-.09-1-.12-1.69-.12-1-.08a22.65,22.65,0,0,0-2.28-.12h-1.57l2.07-55.53,3,.11-2,52.46,1,.08,1,.08,1.72.12,1.16.14.62.08Z" transform="translate(-13.49 27.89)"/><path d="M298,203.19c-.77-.2-1.57-.34-2.4-.49l-2.55-.46q-.46-.08-1-.12l-.68-.09-1.48-.2,7.38-55,3,.4-7,52,.27,0,2.54.46c.86.15,1.76.3,2.65.54Z" transform="translate(-13.49 27.89)"/><path d="M305.58,205.24a21.29,21.29,0,0,0-2-.63l-1.14-.32-1.64-.47-3.06-.69,12.68-54,2.92.69-12,51.1.2,0,1.73.5,1.09.31a23.44,23.44,0,0,1,2.31.71Z" transform="translate(-13.49 27.89)"/><path d="M312.93,208c-.59-.3-1.21-.53-1.87-.79l-1.22-.47-.59-.24q-.47-.2-.93-.36l-3-1,17.88-52.55,2.84,1-16.91,49.7.2.06,1.07.42.59.23,1.16.46a22.73,22.73,0,0,1,2.14.9Z" transform="translate(-13.49 27.89)"/><path d="M320,211.5a19.5,19.5,0,0,0-1.77-.95c-.39-.2-.79-.39-1.18-.61l-.56-.28c-.29-.16-.58-.31-.88-.45l-2.94-1.31,22.9-50.57,2.73,1.24-21.65,47.82.19.09c.36.16.7.34,1,.52l.55.28c.4.22.77.4,1.14.58.66.33,1.35.68,2,1.09Z" transform="translate(-13.49 27.89)"/><path d="M326.68,215.66a19.61,19.61,0,0,0-1.68-1.12c-.38-.24-.75-.47-1.12-.72-.88-.6-1.81-1.13-2.84-1.71l-1.32-.75,27.69-48.11,2.6,1.5-26.19,45.5c.6.34,1.17.7,1.74,1.08.33.23.68.44,1,.66a21.38,21.38,0,0,1,1.91,1.29Z" transform="translate(-13.49 27.89)"/><path d="M333,220.45c-.49-.45-1-.87-1.6-1.31-.34-.26-.68-.52-1-.79l-.51-.4c-.25-.21-.51-.41-.78-.61l-2.62-1.85,32.2-45.21,2.44,1.74-30.45,42.76.18.12c.32.23.61.47.91.71l.49.39,1,.76c.6.47,1.22.94,1.81,1.49Z" transform="translate(-13.49 27.89)"/><path d="M338.73,225.82a21.13,21.13,0,0,0-1.5-1.49c-.3-.28-.6-.56-.89-.85l-.48-.46c-.24-.23-.47-.46-.72-.68l-2.42-2.08,36.39-41.91,2.27,2L337,220l.16.14c.3.27.56.52.83.78l.47.45.86.82c.56.53,1.15,1.07,1.69,1.69Z" transform="translate(-13.49 27.89)"/><path d="M344,231.73c-.43-.58-.9-1.12-1.41-1.69l-.75-.87-1.11-1.29-2.19-2.27,40.25-38.23,2.06,2.18-38.06,36.15.15.15,1.18,1.36.72.83c.53.6,1.07,1.22,1.57,1.9Z" transform="translate(-13.49 27.89)"/><path d="M348.62,238.1c-.37-.62-.81-1.23-1.26-1.86-.22-.29-.43-.59-.63-.88l-1-1.4-2-2.47,43.73-34.19,1.85,2.37L348,232l.13.16,1,1.47.61.85c.47.66,1,1.35,1.41,2.08Z" transform="translate(-13.49 27.89)"/><path d="M352.63,244.89c-.32-.67-.69-1.31-1.09-2-.18-.31-.36-.62-.53-.93l-.85-1.48-1.71-2.64L395.27,208l1.61,2.53-44.27,28.19.11.18.9,1.57.51.88c.41.71.84,1.44,1.21,2.22Z" transform="translate(-13.49 27.89)"/><path d="M356,252c-.24-.68-.55-1.34-.87-2-.16-.33-.31-.66-.46-1l-.7-1.56-1.44-2.79L402,219.46l1.36,2.67-46.79,23.79.09.18.74,1.64c.15.33.29.65.44,1,.34.73.69,1.49,1,2.29Z" transform="translate(-13.49 27.89)"/><path d="M358.56,259.41c-.16-.65-.39-1.3-.63-2-.13-.39-.27-.78-.39-1.17l-.54-1.61-1.17-2.91,51.69-20.24,1.09,2.8-48.88,19.13.08.19.58,1.7c.12.39.25.76.38,1.12.25.72.51,1.47.71,2.27Z" transform="translate(-13.49 27.89)"/><path d="M360.45,267.05c-.09-.64-.25-1.27-.41-1.95-.11-.44-.22-.88-.31-1.32l-.14-.62c-.07-.32-.14-.63-.23-1l-.89-3.09L411.88,244l.82,2.89-50.51,14.29.06.2c.1.38.19.76.27,1.13,0,.2.09.4.14.6.09.46.19.86.29,1.27.17.71.35,1.45.47,2.22Z" transform="translate(-13.49 27.89)"/><path d="M361.6,274.94l-.11-1c-.22-1.9-.45-3.86-.83-5.72l-.3-1.51L415,256.9l.53,3-51.66,9.32c.24,1.49.42,3,.59,4.46l.11,1Z" transform="translate(-13.49 27.89)"/><path d="M362,282.85l-.1-3.45a20,20,0,0,0-.11-2c0-.45-.08-.9-.11-1.36l-.07-1.45L416.87,270l.24,3-52.32,4.29c0,.67.11,1.36.1,2.08l.1,3.4Z" transform="translate(-13.49 27.89)"/><path class="cls-1" d="M263.53,272.54V255.63a16.91,16.91,0,0,1,16.92-16.91h0a16.91,16.91,0,0,1,16.91,16.91v16.91" transform="translate(-13.49 27.89)"/><rect x="233.13" y="300.44" width="67.65" height="50.74"/><path d="M527.63,243.57c-6.58-8-31.27-36.32-72.54-63-55.22-35.69-115.66-53.26-179.57-52.18C133.81,130.78,49.78,224.75,34.37,243.57L22,233.43c16.2-19.77,104.5-118.53,253.26-121,67.16-1.12,130.59,17.3,188.53,54.74C507,195.08,533.05,224.94,540,233.43Z" transform="translate(-13.49 27.89)"/><path d="M281,450.51c-65,0-126.48-18.42-182.76-54.78C55,367.79,29,337.93,22,329.45l12.37-10.14c6.58,8,31.26,36.31,72.54,63,55.23,35.69,115.64,53.26,179.57,52.17,141.71-2.36,225.74-96.34,241.15-115.15L540,329.45c-16.2,19.77-104.5,118.53-253.26,121C284.83,450.49,282.9,450.51,281,450.51Z" transform="translate(-13.49 27.89)"/></g><g id="Layer_31" data-name="Layer 31"><path d="M281,1,523.51,141V421L281,561,38.49,421V141L281,1m0-28.87-12.5,7.21L26,119.34l-12.5,7.21v308.9L26,442.66l242.51,140,12.5,7.21,12.5-7.21L536,442.66l12.5-7.21V126.55L536,119.34,293.5-20.68,281-27.89Z" transform="translate(-13.49 27.89)"/></g></svg>