<svg xmlns="http://www.w3.org/2000/svg" viewBox="0 0 535.02 617.78"><defs><style>.cls-1{stroke:#fff;stroke-width:2px;}.cls-1,.cls-2{stroke-miterlimit:10;}.cls-2{fill:none;stroke:#000;stroke-width:8px;}</style></defs><g id="Tactician"><path class="cls-1" d="M32,322" transform="translate(-13.49 27.89)"/><path d="M343.72,398.93l-47.54-27.45v-54.9l47.54-27.44,47.54,27.44v54.9Zm-42.54-30.34,42.54,24.56,42.54-24.56V319.47l-42.54-24.56-42.54,24.56Z" transform="translate(-13.49 27.89)"/><path d="M388.73,477.71l-47.54-27.45V395.37l47.54-27.45,47.54,27.45v54.89Z" transform="translate(-13.49 27.89)"/><path d="M299,477.71l-47.54-27.45V395.37L299,367.92l47.54,27.45v54.89Zm-42.54-30.33L299,471.94l42.54-24.56V398.26L299,373.69l-42.54,24.57Z" transform="translate(-13.49 27.89)"/><path d="M254.1,399l-47.54-27.45V316.66l47.54-27.45,47.54,27.45v54.89Zm-42.54-30.33,42.54,24.56,42.54-24.56V319.55L254.1,295l-42.54,24.56Z" transform="translate(-13.49 27.89)"/><path d="M434.08,399l-47.55-27.44v-54.9l47.55-27.45,47.54,27.45v54.9Zm-42.55-30.33,42.55,24.56,42.54-24.56V319.51L434.08,295l-42.55,24.56Z" transform="translate(-13.49 27.89)"/><path d="M389.2,320.43,341.66,293V238.09l47.54-27.45,47.54,27.45V293ZM346.66,290.1l42.54,24.56,42.54-24.56V241L389.2,216.41,346.66,241Z" transform="translate(-13.49 27.89)"/><path d="M208.89,319.75l-47.54-27.44v-54.9L208.89,210l47.54,27.45v54.9Zm-42.54-30.33L208.89,314l42.54-24.56V240.3l-42.54-24.56L166.35,240.3Z" transform="translate(-13.49 27.89)"/><path d="M119.14,319.75,71.6,292.31v-54.9L119.14,210l47.54,27.45v54.9Z" transform="translate(-13.49 27.89)"/><path d="M297.53,425.32,296,422.67l3-1.69v-.66h1.18l.21-.12.07.12h1.95v5Zm9.86,0v-5h5v5Zm10,0v-5h5v5Zm10,0v-5h5v5Zm10,0v-5h5v5Zm10,0v-5h5v5Zm10,0v-5h5v5Zm10,0v-5h5v5Zm10,0v-5h5v5Zm10,0v-5H388v5Zm-93.85-6.82L291.06,414l4.34-2.47,2.48,4.34Zm-5-8.69-2.47-4.34,4.34-2.48,2.48,4.34ZM283.63,401l-2.48-4.34,4.35-2.48,2.47,4.35Zm-4.95-8.68-2.48-4.35,4.34-2.47,2.48,4.34Zm-5-8.69-2.48-4.34,4.35-2.48,2.47,4.34Zm-5-8.69-2.48-4.34,4.34-2.48,2.48,4.35Zm-5-8.68-2.47-4.35,4.34-2.47,2.48,4.34Zm-4.95-8.69-2.48-4.34,4.35-2.48L263.2,355Zm-5-8.69-2.48-4.34,4.34-2.48,2.48,4.35Zm-5-8.68-2.48-4.35,4.35-2.47,2.47,4.34ZM244,331.46l-2.48-4.34,4.34-2.48,2.48,4.34Zm-5-8.69-2.47-4.34,4.34-2.48,2.48,4.35Zm-4.95-8.68-2.48-4.35,4.35-2.47,2.47,4.34Zm-5-8.69-2.47-4.34,4.34-2.48,2.48,4.34Zm-4.95-8.69-2.48-4.34,4.35-2.48,2.47,4.35Zm-5-8.68-2.48-4.35,4.34-2.47,2.48,4.34Zm-5-8.69L211.79,275l4.35-2.48,2.48,4.35Zm-5-8.68-2.48-4.35,4.34-2.48,2.48,4.35Zm-5.18-3.3h-5v-5h5Zm-10,0h-5v-5h5Zm-10,0h-5v-5h5Zm-10,0h-5v-5h5Zm-10,0h-5v-5h5Zm-10,0h-5v-5h5Zm-10,0h-5v-5h5Zm-10,0h-5v-5h5Zm-10,0h-5v-5h5Z" transform="translate(-13.49 27.89)"/><path d="M343.9,241.05l-47.54-27.44v-54.9l47.54-27.45,47.54,27.45v54.9Z" transform="translate(-13.49 27.89)"/><path d="M433.65,241.05l-47.54-27.44v-54.9l47.54-27.45,47.54,27.45v54.9Zm-42.54-30.33,42.54,24.56,42.54-24.56V161.6L433.65,137,391.11,161.6Z" transform="translate(-13.49 27.89)"/><path d="M390.9,419.94l-4.28-2.6,2.6-4.27,4.28,2.59Zm5.19-8.55-4.27-2.6,2.6-4.27,4.27,2.6Zm5.2-8.55L397,400.25l2.6-4.27,4.27,2.59Zm5.19-8.54-4.28-2.6,2.6-4.27,4.27,2.6Zm5.19-8.55-4.27-2.59,2.59-4.28,4.28,2.6Zm5.19-8.54-4.27-2.6,2.6-4.27,4.27,2.59Zm5.2-8.55-4.28-2.6,2.6-4.27,4.27,2.6Zm5.19-8.54-4.27-2.6,2.59-4.27,4.28,2.59Zm5.19-8.55-4.27-2.6,2.6-4.27,4.27,2.6Zm-1.9-8.64-2.48-4.34,4.35-2.48,2.48,4.34Zm-5-8.69-2.47-4.34,4.34-2.48,2.48,4.34Zm-4.95-8.68-2.48-4.34,4.34-2.48,2.48,4.34Zm-5-8.68-2.48-4.35,4.34-2.48L420,314.4Zm-5-8.69-2.48-4.34,4.34-2.48,2.48,4.34Zm-5-8.68-2.48-4.34,4.34-2.48,2.48,4.34Zm-5-8.69-2.48-4.34,4.34-2.48,2.48,4.34Zm-5-8.68-2.48-4.34,4.34-2.48,2.48,4.34Zm-5-8.68-2.48-4.35,4.34-2.47,2.48,4.34Zm-5-8.69-2.48-4.34,4.35-2.48,2.47,4.34Zm-5-8.68-2.48-4.34,4.35-2.48,2.48,4.34ZM376,247.41l-2.48-4.35,4.34-2.48,2.48,4.35Zm-5-8.69-2.48-4.34,4.34-2.48,2.48,4.34Zm-5-8.68-2.48-4.34,4.34-2.48,2.48,4.34Zm-5-8.69L358.64,217l4.34-2.48,2.48,4.34Zm-5-8.68-2.48-4.34,4.34-2.48,2.48,4.34Zm-5-8.68-2.48-4.35,4.34-2.47,2.48,4.34Zm-5-8.69L343.76,191l4.34-2.48,2.48,4.34Z" transform="translate(-13.49 27.89)"/><polygon points="447.1 251.19 380.58 184.67 393.98 177.69 459.7 243.39 447.1 251.19"/><polygon points="393.49 250.92 380.88 243.13 446.59 177.41 459.2 185.21 393.49 250.92"/><polygon points="356.85 408.75 291.14 343.03 302.94 334.44 368.65 400.15 356.85 408.75"/><polygon points="303.25 409.11 291.44 400.51 357.16 334.8 368.96 343.39 303.25 409.11"/><path d="M239.7,502.37l17.64,5.47,5.49-17.06-.24-.08-22.84,11.51Z" transform="translate(-13.49 27.89)"/><path d="M247.77,198.93l.16.16,13-13-13-12.9-.15.15Z" transform="translate(-13.49 27.89)"/><path d="M292.87,120.69l.16.16,13-13-13-12.9-.16.15Z" transform="translate(-13.49 27.89)"/><path d="M471.52,265.84l13,12.9.15-.15V253l-.16-.16Z" transform="translate(-13.49 27.89)"/><polyline class="cls-2" points="252.45 513.89 244.82 537.61 220.51 530.07"/><polyline class="cls-2" points="232.18 196.14 249.61 213.93 231.61 231.93"/><polyline class="cls-2" points="277.28 117.89 294.71 135.69 276.71 153.69"/><polyline class="cls-2" points="473.29 311.57 455.86 293.78 473.86 275.78"/><rect x="459.7" y="291.05" width="50.32" height="7.63"/><polygon points="193.09 140.14 294.73 139.69 294.69 131.69 197.71 132.12 170.62 84.81 163.69 88.81 193.09 140.14"/><path d="M263.05,190l.1-8c-.69,0-69.74-.82-138.32-1.21-35.08-.2-64-.25-86.34-.17v8C97.13,188.45,192.26,189.2,263.05,190Z" transform="translate(-13.49 27.89)"/><polygon points="105.83 454.94 193.68 454.64 241.33 539.57 248.31 535.65 198.35 446.62 101.11 446.96 81.79 481.69 88.72 485.69 105.83 454.94"/></g><g id="Layer_31" data-name="Layer 31"><path d="M281,1,523.51,141V421L281,561,38.49,421V141L281,1m0-28.87-12.5,7.21L26,119.34l-12.5,7.21v308.9L26,442.66l242.51,140,12.5,7.21,12.5-7.21L536,442.66l12.5-7.21V126.55L536,119.34,293.5-20.68,281-27.89Z" transform="translate(-13.49 27.89)"/></g></svg>