<svg xmlns="http://www.w3.org/2000/svg" viewBox="0 0 535.02 617.78"><defs><style>.cls-1,.cls-3{stroke:#000;}.cls-1,.cls-2,.cls-3{stroke-miterlimit:10;}.cls-1,.cls-2{stroke-width:2px;}.cls-2{stroke:#fff;}.cls-3{fill:none;stroke-width:6px;}</style></defs><g id="Technophile"><path d="M402,160.48l35.86,44.72.46,80.1L281,457.48,124.14,285.3l-.47-80.1,48.21-44.72h79.35L279,203.59h4l23.81-43.11H402m6.24-13H299.11l-3.71,6.71-15.12,27.38-18.12-28.13-3.84-6H166.77L163,151l-48.2,44.72-4.19,3.89,0,5.72.47,80.1,0,5,3.37,3.69L271.38,466.23,281,476.77l9.62-10.52L447.93,294.07l3.43-3.75,0-5.09-.46-80.1,0-4.53L448,197.07l-35.86-44.72-3.9-4.87Z" transform="translate(-13.49 27.89)"/><rect class="cls-1" x="155.38" y="196.85" width="39.83" height="4" transform="translate(-102.76 210.09) rotate(-45)"/><path class="cls-1" d="M155.17,230a11,11,0,1,1,11-11A11,11,0,0,1,155.17,230Zm0-18a7,7,0,1,0,7,7A7,7,0,0,0,155.17,212Z" transform="translate(-13.49 27.89)"/><path class="cls-1" d="M195.67,189.48a11,11,0,1,1,11-11A11,11,0,0,1,195.67,189.48Zm0-18a7,7,0,1,0,7,7A7,7,0,0,0,195.67,171.48Z" transform="translate(-13.49 27.89)"/><rect class="cls-1" x="149.63" y="246.76" width="41.52" height="4" transform="translate(-139.48 221.24) rotate(-45)"/><path class="cls-1" d="M150.67,279.48a11,11,0,1,1,11-11A11,11,0,0,1,150.67,279.48Zm0-18a7,7,0,1,0,7,7A7,7,0,0,0,150.67,261.48Z" transform="translate(-13.49 27.89)"/><path class="cls-1" d="M191.17,239a11,11,0,1,1,11-11A11,11,0,0,1,191.17,239Zm0-18a7,7,0,1,0,7,7A7,7,0,0,0,191.17,221Z" transform="translate(-13.49 27.89)"/><polygon class="cls-1" points="189.86 300.52 187.03 297.69 221.85 262.87 289.35 262.87 323.93 228.29 365.59 269.96 362.76 272.79 323.93 233.95 291.01 266.87 223.51 266.87 189.86 300.52"/><path class="cls-2" d="M321.67,268.48" transform="translate(-13.49 27.89)"/><line class="cls-1" x1="290.18" y1="264.87" x2="323.93" y2="231.12"/><polygon class="cls-1" points="363.04 320.31 323.93 281.2 291.01 314.12 270.18 314.12 270.18 310.12 289.35 310.12 323.93 275.54 365.87 317.48 363.04 320.31"/><rect class="cls-1" x="237.96" y="350.22" width="4" height="33.11" transform="translate(-202.55 305) rotate(-45)"/><path class="cls-1" d="M384.67,261.48a11,11,0,1,1,11-11A11,11,0,0,1,384.67,261.48Zm0-18a7,7,0,1,0,7,7A7,7,0,0,0,384.67,243.48Z" transform="translate(-13.49 27.89)"/><circle class="cls-3" cx="182.18" cy="305.37" r="9"/><path class="cls-1" d="M276.67,297.48a11,11,0,1,1,11-11A11,11,0,0,1,276.67,297.48Zm0-18a7,7,0,1,0,7,7A7,7,0,0,0,276.67,279.48Z" transform="translate(-13.49 27.89)"/><path class="cls-1" d="M384.67,306.48a11,11,0,1,1,11-11A11,11,0,0,1,384.67,306.48Zm0-18a7,7,0,1,0,7,7A7,7,0,0,0,384.67,288.48Z" transform="translate(-13.49 27.89)"/><path class="cls-1" d="M258.67,396.48a11,11,0,1,1,11-11A11,11,0,0,1,258.67,396.48Zm0-18a7,7,0,1,0,7,7A7,7,0,0,0,258.67,378.48Z" transform="translate(-13.49 27.89)"/><rect class="cls-1" x="256.05" y="304.41" width="4" height="34.88" transform="translate(-165.5 304.63) rotate(-45)"/><path class="cls-1" d="M240.67,315.48a11,11,0,1,1,11-11A11,11,0,0,1,240.67,315.48Zm0-18a7,7,0,1,0,7,7A7,7,0,0,0,240.67,297.48Z" transform="translate(-13.49 27.89)"/><rect class="cls-1" x="376.16" y="165.18" width="39.62" height="4" transform="translate(-15.73 356.85) rotate(-45)"/><path class="cls-2" d="M223.57,164.22" transform="translate(-13.49 27.89)"/><path class="cls-1" d="M375.67,198.48a11,11,0,1,1,11-11A11,11,0,0,1,375.67,198.48Zm0-18a7,7,0,1,0,7,7A7,7,0,0,0,375.67,180.48Z" transform="translate(-13.49 27.89)"/><rect class="cls-1" x="403.01" y="194.22" width="35.84" height="4" transform="translate(-28.95 383.01) rotate(-45)"/><path class="cls-1" d="M402.67,225.48a11,11,0,1,1,11-11A11,11,0,0,1,402.67,225.48Zm0-18a7,7,0,1,0,7,7A7,7,0,0,0,402.67,207.48Z" transform="translate(-13.49 27.89)"/><rect class="cls-1" x="367.44" y="323.78" width="4" height="38.93" transform="translate(-148 389.66) rotate(-45)"/><path class="cls-1" d="M348.67,333.48a11,11,0,1,1,11-11A11,11,0,0,1,348.67,333.48Zm0-18a7,7,0,1,0,7,7A7,7,0,0,0,348.67,315.48Z" transform="translate(-13.49 27.89)"/><polygon class="cls-1" points="350.47 404.49 316.35 370.37 272.18 370.37 272.18 366.37 318.01 366.37 353.3 401.66 350.47 404.49"/><path class="cls-1" d="M276.67,351.48a11,11,0,1,1,11-11A11,11,0,0,1,276.67,351.48Zm0-18a7,7,0,1,0,7,7A7,7,0,0,0,276.67,333.48Z" transform="translate(-13.49 27.89)"/><rect class="cls-1" x="155.18" y="375.37" width="45.56" height="4"/><path class="cls-1" d="M222.67,360.48a11,11,0,1,1,11-11A11,11,0,0,1,222.67,360.48Zm0-18a7,7,0,1,0,7,7A7,7,0,0,0,222.67,342.48Z" transform="translate(-13.49 27.89)"/></g><g id="Layer_31" data-name="Layer 31"><path d="M281,1,523.51,141V421L281,561,38.49,421V141L281,1m0-28.87-12.5,7.21L26,119.34l-12.5,7.21v308.9L26,442.66l242.51,140,12.5,7.21,12.5-7.21L536,442.66l12.5-7.21V126.55L536,119.34,293.5-20.68,281-27.89Z" transform="translate(-13.49 27.89)"/></g></svg>