<svg xmlns="http://www.w3.org/2000/svg" viewBox="0 0 535.02 617.78"><g id="Drone_Commander" data-name="Drone Commander"><path d="M364,296H314.17V265.72H364Zm-40.86-9H355V274.72H323.17Z" transform="translate(-13.49 27.89)"/><rect x="300.02" y="276.3" width="21.31" height="63.93"/><rect x="437.74" y="276.8" width="21.31" height="63.93"/><circle cx="379.76" cy="308.77" r="17.81"/><path d="M422.29,248.91H364.2a13.58,13.58,0,0,0-13.57,13.58v36.77a13.58,13.58,0,0,0,13.57,13.58h58.09a13.57,13.57,0,0,0,13.57-13.58V262.49A13.57,13.57,0,0,0,422.29,248.91Zm-29,56.77a24.81,24.81,0,1,1,24.81-24.8A24.84,24.84,0,0,1,393.25,305.68Z" transform="translate(-13.49 27.89)"/><path d="M408.28,189.74H359.53V159.43h48.75Zm-46-9H405.5V168.43H362.31Z" transform="translate(-13.49 27.89)"/><rect x="345.38" y="170.01" width="21.31" height="63.93"/><rect x="483.1" y="170.51" width="21.31" height="63.93"/><path d="M467.65,142.62H409.57A13.58,13.58,0,0,0,396,156.19V193a13.57,13.57,0,0,0,13.58,13.57h58.08A13.57,13.57,0,0,0,481.23,193V156.19A13.58,13.58,0,0,0,467.65,142.62Zm-29,56.77a24.81,24.81,0,1,1,24.81-24.81A24.84,24.84,0,0,1,438.61,199.39Z" transform="translate(-13.49 27.89)"/><circle cx="425.12" cy="202.47" r="17.81"/><path d="M362.18,93.85H314.39V63.54h47.79Zm-45.07-9h42.35V72.54H317.11Z" transform="translate(-13.49 27.89)"/><rect x="300.24" y="74.12" width="21.31" height="63.93"/><path d="M408.79,401.82H359.31V371.51h49.48Zm-46.67-9H406V380.51H362.12Z" transform="translate(-13.49 27.89)"/><rect x="345.16" y="382.1" width="21.31" height="63.93"/><rect x="482.88" y="382.6" width="21.31" height="63.93"/><circle cx="424.9" cy="414.56" r="17.81"/><path d="M467.43,354.7H409.34a13.58,13.58,0,0,0-13.57,13.58v36.78a13.58,13.58,0,0,0,13.57,13.57h58.09A13.58,13.58,0,0,0,481,405.06V368.28A13.58,13.58,0,0,0,467.43,354.7Zm-29,56.78a24.81,24.81,0,1,1,24.81-24.81A24.84,24.84,0,0,1,438.39,411.48Z" transform="translate(-13.49 27.89)"/><path d="M362.12,499h-42.6V468.65h42.6Zm-40.18-9H359.7V477.65H321.94Z" transform="translate(-13.49 27.89)"/><rect x="300.46" y="479.24" width="21.31" height="63.93"/><path d="M375.66,78.69A17.8,17.8,0,0,0,411,81.8L382,65.07A17.78,17.78,0,0,0,375.66,78.69Z" transform="translate(-13.49 27.89)"/><path d="M517.69,189.74H472.54V159.43h45.15Zm-42.58-9h40V168.43h-40Z" transform="translate(-13.49 27.89)"/><path d="M472.33,296H424.5V265.72h47.83Zm-38.83-9h29.83V274.72H433.5Z" transform="translate(-13.49 27.89)"/><path d="M517.47,401.82H472.33V371.51h45.14Zm-42.57-9h40V380.51h-40Z" transform="translate(-13.49 27.89)"/><path d="M393.69,466a17.78,17.78,0,0,0-11.87,31l29.3-16.91A17.84,17.84,0,0,0,393.69,466Z" transform="translate(-13.49 27.89)"/><path d="M436.31,465.42a13.58,13.58,0,0,0-13.57-13.58H364.65a13.57,13.57,0,0,0-13.57,13.58V502.2a13.53,13.53,0,0,0,4.44,10l20-11.54A24.8,24.8,0,1,1,417.4,476.5l18.91-10.92Z" transform="translate(-13.49 27.89)"/><path d="M350.35,60.3V97.08a14.1,14.1,0,0,0,14.08,14.08h58.08a14.1,14.1,0,0,0,14.08-14.08V96L417,84.7A24.3,24.3,0,1,1,376.5,61.31l-20.82-12A14,14,0,0,0,350.35,60.3Z" transform="translate(-13.49 27.89)"/><polygon points="47.22 246.82 47.22 180.73 157.36 224.79 267.51 180.73 267.51 246.82 157.36 290.88 47.22 246.82"/><polygon points="47.22 334.94 47.22 268.85 157.36 312.91 267.51 268.85 267.51 334.94 157.36 378.99 47.22 334.94"/><polygon points="47.22 423.05 47.22 356.96 157.36 401.02 267.51 356.96 267.51 423.05 157.36 467.11 47.22 423.05"/></g><g id="Layer_31" data-name="Layer 31"><path d="M281,1,523.51,141V421L281,561,38.49,421V141L281,1m0-28.87-12.5,7.21L26,119.34l-12.5,7.21v308.9L26,442.66l242.51,140,12.5,7.21,12.5-7.21L536,442.66l12.5-7.21V126.55L536,119.34,293.5-20.68,281-27.89Z" transform="translate(-13.49 27.89)"/></g></svg>