<svg xmlns="http://www.w3.org/2000/svg" viewBox="0 0 535.02 617.78"><defs><style>.cls-1{stroke:#231f20;stroke-miterlimit:10;stroke-width:10px;}</style></defs><g id="DUELIST"><rect x="90.9" y="390.33" width="23.93" height="17.95" transform="translate(361.04 117) rotate(55.66)"/><path class="cls-1" d="M129,420.23" transform="translate(-13.49 27.89)"/><path d="M270.51,142.52l12.6,35.41,12.59-35.41,33.95,16.13L313.52,124.7l35.41-12.59-35.41-12.6,16.13-33.95L295.7,81.7,283.11,46.28,270.51,81.7,236.56,65.56l16.14,34-35.42,12.6L252.7,124.7l-16.14,34Z" transform="translate(-13.49 27.89)"/><g id="Layer_39" data-name="Layer 39"><polygon points="507.79 471.07 64.24 471.07 46.42 461.07 522.52 461.07 507.79 471.07"/><polygon points="431.88 495 90.29 495 72.76 485 446.81 485 431.88 495"/><polygon points="387.43 518.93 132.03 518.93 115.53 508.94 405.32 508.94 387.43 518.93"/><polygon points="358.54 541.43 174.87 541.43 156.18 532.87 375.91 532.87 358.54 541.43"/><polygon points="326.72 566.8 224.33 566.8 203.79 556.8 348.47 556.8 326.72 566.8"/></g><g id="Layer_37" data-name="Layer 37"><polygon points="326.37 377.39 89.59 215.61 99.56 164.46 353.37 337.87 357.88 331.26 94.03 150.99 80.73 219.25 321.85 384 326.37 377.39"/></g><g id="Layer_38" data-name="Layer 38"><path d="M468.32,391.35l3.37-4.94-28-19.15-3.37,4.94-46.07-31.48,1.65-2.42-6.47-11.75,6.71-9.82-15.2-27.32-75.36,110.3,31,4.23,27-39.52,13.26,1.81,1.65-2.42,46.07,31.48-3.37,4.94,28,19.15,3.37-4.94,4.94,3.38,15.78-23.1ZM455.39,406.7l-4.94-3.38-3.38,4.94-14.82-10.12,3.38-4.94-59.28-40.51-3.25,4.94-13.38-1.81-27,39.52-13.25-1.81,60.75-88.92,6.51,11.69L380,326.18l6.5,11.69-3.37,4.94,59.28,40.51,3.37-4.94,14.83,10.12-3.3,4.82,4.86,3.5Z" transform="translate(-13.49 27.89)"/><rect x="90.9" y="390.33" width="23.93" height="17.95" transform="translate(361.04 117) rotate(55.66)"/><rect x="124.05" y="332.87" width="11.97" height="95.73" transform="translate(357.55 86.47) rotate(55.66)"/><polygon points="162.81 391.51 149.31 371.75 155.82 360.06 176.07 389.7 162.81 391.51"/><polygon points="203.07 429.22 149.07 350.18 155.57 338.49 216.33 427.41 203.07 429.22"/><polygon points="194.26 384.51 167.26 344.99 428.13 166.75 437.75 218.16 194.26 384.51"/></g></g><g id="Layer_47" data-name="Layer 47"><path d="M281,1,523.51,141V421L281,561,38.49,421V141L281,1m0-28.87-12.5,7.21L26,119.34l-12.5,7.21v308.9L26,442.66l242.51,140,12.5,7.21,12.5-7.21L536,442.66l12.5-7.21V126.55L536,119.34,293.5-20.68,281-27.89Z" transform="translate(-13.49 27.89)"/></g></svg>