<svg xmlns="http://www.w3.org/2000/svg" viewBox="0 0 535.02 617.78"><g id="GREASE_MONKEY_" data-name="GREASE MONKEY 
"><path id="path5211" d="M408,213.64c-14.43,0-26.12,12-26.12,26.72s11.69,26.72,26.12,26.72,26.12-12,26.12-26.72S422.38,213.64,408,213.64Z" transform="translate(-13.49 27.89)"/><polygon points="409.52 378.77 398.38 367.63 359.6 367.63 366.39 453.28 388.69 453.28 388.84 397.79 399.99 397.79 399.83 453.28 422.12 453.28 428.25 378.77 409.52 378.77"/><path d="M437.05,278v-8.66h-7.22c-5.57,7.28-13.53,11.73-21.88,11.75s-16.31-4.47-21.88-11.75H378.5V278c-2.93,1.85-6,4-9.76,6.9l3.79,47.81h42.24l11.15,11.15h16.39l4.85-59A116.21,116.21,0,0,0,437.05,278Zm-1.69,24.24-.17.2-14.37,12.82-14.54-13a7.49,7.49,0,0,1,.94-9.42,7.46,7.46,0,0,1,10.56,0l3,3,3-3a7.47,7.47,0,0,1,11.5,9.42Z" transform="translate(-13.49 27.89)"/><polygon points="167.72 318.15 143.3 318.15 143.3 457.96 182.14 457.96 182.14 364.35 167.72 349.93 167.72 318.15"/><polygon points="85.61 340.66 124.45 360.09 124.45 254.34 85.61 244.63 85.61 340.66"/><polygon points="244.26 349.93 229.84 364.35 229.84 457.96 268.68 457.96 268.68 318.15 244.26 318.15 244.26 349.93"/><path d="M265.84,160.45l-14.42-28.84H187.55l-14.43,28.84h-74V198.2l57.69,14.43v42.45L186.55,270l14.9,44.72h36.06L252.42,270l29.75-14.88V212.63l57.69-14.43V160.45Zm-1.95,40.65-.25.29L242.85,220l-21-18.85a10.84,10.84,0,0,1,16.69-13.68l4.35,4.35,4.36-4.35a10.84,10.84,0,0,1,16.68,13.68Z" transform="translate(-13.49 27.89)"/><polygon points="287.53 360.09 326.37 340.66 326.37 244.63 287.53 254.34 287.53 360.09"/></g><g id="Layer_47" data-name="Layer 47"><path d="M281,1,523.51,141V421L281,561,38.49,421V141L281,1m0-28.87-12.5,7.21L26,119.34l-12.5,7.21v308.9L26,442.66l242.51,140,12.5,7.21,12.5-7.21L536,442.66l12.5-7.21V126.55L536,119.34,293.5-20.68,281-27.89Z" transform="translate(-13.49 27.89)"/></g></svg>