<svg xmlns="http://www.w3.org/2000/svg" viewBox="0 0 535.02 617.78"><defs><style>.cls-1{stroke:#231f20;}.cls-1,.cls-2{stroke-miterlimit:10;stroke-width:9px;}.cls-2{stroke:#be1e2d;}</style></defs><g id="STORM-BRINGER_" data-name="STORM-BRINGER  
"><path class="cls-1" d="M256.06,319.84" transform="translate(-13.49 27.89)"/><polygon points="282.09 307.04 307.57 328.74 356.34 185.23 327.49 173.44 282.09 307.04"/><path d="M365.43,183.09a3.46,3.46,0,0,0,2,2.06l22.36,9.14a3.34,3.34,0,0,0,1.32.26,3.47,3.47,0,0,0,1.45-.31,3.52,3.52,0,0,0,1.87-2.06L430.12,87.07,419.43,80.9l-53.78,99.35A3.44,3.44,0,0,0,365.43,183.09Z" transform="translate(-13.49 27.89)"/><polygon points="322.36 188.53 376.08 234.28 388.01 199.16 334.3 153.42 322.36 188.53"/><polygon points="253.85 283 307.57 328.74 319.5 293.63 265.79 247.88 253.85 283"/><path class="cls-1" d="M254.75,318" transform="translate(-13.49 27.89)"/><polygon points="222.07 356.21 210.14 376.59 231.6 388.87 243.55 368.45 254.95 365.2 219.22 344.77 222.07 356.21"/><polygon points="186.47 396.98 226.29 419.97 229.34 394.41 207.08 381.56 186.47 396.98"/><polygon points="160.3 476.05 172.64 482.96 224.03 425.59 182.8 401.79 160.3 476.05"/><path class="cls-2" d="M193.8,368.68" transform="translate(-13.49 27.89)"/><path class="cls-1" d="M149.3,290.1" transform="translate(-13.49 27.89)"/><polygon points="161.7 267.52 192.42 280.83 197.1 129.32 166.06 126.48 161.7 267.52"/><path d="M213.91,127.35a3.48,3.48,0,0,0,2.49,1.39l24,2.21h.32a3.5,3.5,0,0,0,3.5-3.39l3.32-107.3-15,8.63-19.34,95.66A3.52,3.52,0,0,0,213.91,127.35Z" transform="translate(-13.49 27.89)"/><polygon points="165.57 142.42 230.31 170.46 231.46 133.39 166.72 105.35 165.57 142.42"/><polygon points="127.67 252.78 192.42 280.82 193.56 243.75 128.82 215.71 127.67 252.78"/><path class="cls-1" d="M147.51,288.73" transform="translate(-13.49 27.89)"/><polygon points="111.76 360.71 96.56 381.49 141.36 391.83 136.8 366.5 111.76 360.71"/><polygon points="94.66 464.75 108.47 467.75 140.84 397.87 94.46 387.16 94.66 464.75"/><polygon points="118.69 332.09 113.24 355.07 137.35 360.53 142.81 337.51 152.76 331.07 112.62 321.98 118.69 332.09"/><path class="cls-1" d="M332.93,397.2" transform="translate(-13.49 27.89)"/><polygon points="369.13 397.74 387.15 425.94 475.76 302.96 451.61 283.25 369.13 397.74"/><path d="M478.54,295.75a3.49,3.49,0,0,0,.25,5.2l18.71,15.28a3.44,3.44,0,0,0,2.21.79l.46,0a3.5,3.5,0,0,0,2.38-1.42l21-29.1v-35Z" transform="translate(-13.49 27.89)"/><polygon points="442.29 296.18 480.28 355.64 501.96 325.54 463.97 266.09 442.29 296.18"/><polygon points="349.16 366.49 387.15 425.94 408.83 395.85 370.84 336.39 349.16 366.49"/><path class="cls-1" d="M332.21,395.07" transform="translate(-13.49 27.89)"/><polygon points="297.36 427.21 279.99 443.21 296.93 461.23 314.32 445.19 326.17 445.42 297.98 415.44 297.36 427.21"/><polygon points="251.39 455.79 282.75 489.42 293.14 465.87 275.61 447.07 251.39 455.79"/><polygon points="203.25 523.76 213.03 533.97 278.95 494.13 246.48 459.32 203.25 523.76"/><path class="cls-2" d="M259.12,425.71" transform="translate(-13.49 27.89)"/><path d="M169.13,220.82l-24.06-2.2a3.49,3.49,0,0,0-3.81,3.38l-2,65.49A3.49,3.49,0,0,0,142,291l12.7,2.88a3.31,3.31,0,0,0,.77.09,3.49,3.49,0,0,0,1.9-.56,3.56,3.56,0,0,0,1.53-2.25L172.24,225a3.5,3.5,0,0,0-3.11-4.18Z" transform="translate(-13.49 27.89)"/><path d="M295.28,259.39l-22.36-9.14a3.51,3.51,0,0,0-4.64,2.11l-21.09,62.05a3.49,3.49,0,0,0,1.58,4.16l11.3,6.47a3.59,3.59,0,0,0,1.74.46,3.54,3.54,0,0,0,3.08-1.84L297,264.3a3.5,3.5,0,0,0-1.75-4.91Z" transform="translate(-13.49 27.89)"/><path d="M369.4,335.58a3.5,3.5,0,0,0-5.06.67L326,389.41a3.51,3.51,0,0,0,.29,4.45l8.92,9.49a3.54,3.54,0,0,0,2.48,1.1h.07a3.5,3.5,0,0,0,2.46-1l48.09-47.38a3.46,3.46,0,0,0,1-2.65,3.52,3.52,0,0,0-1.28-2.55Z" transform="translate(-13.49 27.89)"/></g><g id="Layer_47" data-name="Layer 47"><path d="M281,1,523.51,141V421L281,561,38.49,421V141L281,1m0-28.87-12.5,7.21L26,119.34l-12.5,7.21v308.9L26,442.66l242.51,140,12.5,7.21,12.5-7.21L536,442.66l12.5-7.21V126.55L536,119.34,293.5-20.68,281-27.89Z" transform="translate(-13.49 27.89)"/></g></svg>