<?xml version="1.0" encoding="UTF-8"?>
<svg version="1.1" viewBox="0 0 1080 1080" xmlns="http://www.w3.org/2000/svg" xmlns:cc="http://creativecommons.org/ns#" xmlns:dc="http://purl.org/dc/elements/1.1/" xmlns:rdf="http://www.w3.org/1999/02/22-rdf-syntax-ns#">
<metadata>
<rdf:RDF>
<cc:Work rdf:about="">
<dc:format>image/svg+xml</dc:format>
<dc:type rdf:resource="http://purl.org/dc/dcmitype/StillImage"/>
<dc:title/>
</cc:Work>
</rdf:RDF>
</metadata>
<g shape-rendering="auto">
<g transform="matrix(1.95 0 0 1.95 85.658 349.88)" opacity=".99">
<path d="m393 162.5h-20c-1.5e-4 -77.32-62.68-140-140-140-77.32-1.4e-4 -140 62.68-140 140h-20c-3.3e-5 -88.366 71.634-160 160-160 88.366-3.31e-5 160 71.634 160 160z" color="#000000" color-rendering="auto" dominant-baseline="auto" image-rendering="auto" solid-color="#000000" stop-color="#000000" style="font-feature-settings:normal;font-variant-alternates:normal;font-variant-caps:normal;font-variant-east-asian:normal;font-variant-ligatures:normal;font-variant-numeric:normal;font-variant-position:normal;font-variation-settings:normal;inline-size:0;isolation:auto;mix-blend-mode:normal;paint-order:normal;shape-margin:0;shape-padding:0;text-decoration-color:#000000;text-decoration-line:none;text-decoration-style:solid;text-indent:0;text-orientation:mixed;text-transform:none;white-space:normal"/>
<path d="m233 1.7305c-88.781-2.95e-5 -160.77 71.988-160.77 160.77-1.15e-4 0.42505 0.34448 0.76965 0.76953 0.76953h20c0.42505 1.2e-4 0.76965-0.34448 0.76953-0.76953 1.49e-4 -76.904 62.326-139.23 139.23-139.23 76.904 1.54e-4 139.23 62.327 139.23 139.23-1.1e-4 0.42505 0.34448 0.76964 0.76953 0.76953h20c0.42505 1.1e-4 0.76964-0.34448 0.76953-0.76953 3e-5 -88.781-71.988-160.77-160.77-160.77z" color="#000000" color-rendering="auto" dominant-baseline="auto" image-rendering="auto" solid-color="#000000" stop-color="#000000" style="font-feature-settings:normal;font-variant-alternates:normal;font-variant-caps:normal;font-variant-east-asian:normal;font-variant-ligatures:normal;font-variant-numeric:normal;font-variant-position:normal;font-variation-settings:normal;inline-size:0;isolation:auto;mix-blend-mode:normal;paint-order:normal;shape-margin:0;shape-padding:0;text-decoration-color:#000000;text-decoration-line:none;text-decoration-style:solid;text-indent:0;text-orientation:mixed;text-transform:none;white-space:normal"/>
</g>
<g transform="matrix(1.95 0 0 1.95 85.658 349.88)" opacity=".99">
<path d="m232.97 32.5c-71.785 0.0175-129.97 58.215-129.97 130-8e-5 3.3372 0.12835 6.6731 0.38499 10h-95.385l-5.7733 9.9999 5.7733 9.9999h450l5.7733-9.9999-5.7733-9.9999h-95.385c0.25664-3.3273 0.38507-6.6632 0.38499-10-1e-4 -71.797-58.203-130-130-130h-0.0315z" color="#000000" color-rendering="auto" dominant-baseline="auto" image-rendering="auto" solid-color="#000000" stop-color="#000000" style="font-feature-settings:normal;font-variant-alternates:normal;font-variant-caps:normal;font-variant-east-asian:normal;font-variant-ligatures:normal;font-variant-numeric:normal;font-variant-position:normal;font-variation-settings:normal;inline-size:0;isolation:auto;mix-blend-mode:normal;paint-order:normal;shape-margin:0;shape-padding:0;text-decoration-color:#000000;text-decoration-line:none;text-decoration-style:solid;text-indent:0;text-orientation:mixed;text-transform:none;white-space:normal"/>
<path d="m232.97 31.73c-72.2 0.017605-130.74 58.569-130.74 130.77-7e-5 3.0806 0.14 6.1578 0.35742 9.2305h-94.588c-0.27479 1e-4 -0.52866 0.14677-0.66602 0.38476l-5.7734 10c-0.13751 0.23808-0.13751 0.53146 0 0.76954l5.7734 10c0.13736 0.23799 0.39123 0.38466 0.66602 0.38476h450c0.27479-1e-4 0.52866-0.14676 0.66602-0.38476l5.7734-10c0.13751-0.23808 0.13751-0.53146 0-0.76954l-5.7734-10c-0.13736-0.238-0.39123-0.38466-0.66602-0.38476h-94.588c0.21742-3.0727 0.35749-6.1499 0.35742-9.2305-1e-4 -72.213-58.557-130.77-130.77-130.77z" color="#000000" color-rendering="auto" dominant-baseline="auto" image-rendering="auto" solid-color="#000000" stop-color="#000000" style="font-feature-settings:normal;font-variant-alternates:normal;font-variant-caps:normal;font-variant-east-asian:normal;font-variant-ligatures:normal;font-variant-numeric:normal;font-variant-position:normal;font-variation-settings:normal;inline-size:0;isolation:auto;mix-blend-mode:normal;paint-order:normal;shape-margin:0;shape-padding:0;text-decoration-color:#000000;text-decoration-line:none;text-decoration-style:solid;text-indent:0;text-orientation:mixed;text-transform:none;white-space:normal"/>
</g>
</g>
</svg>
