<?xml version="1.0" encoding="UTF-8"?>
<svg version="1.1" viewBox="0 0 1080 1080" xml:space="preserve" xmlns="http://www.w3.org/2000/svg">
<g transform="matrix(3.8044 0 0 3.8044 -13.497 -20.639)">
<path d="m62.299 195.18 73.84-43.397a11.651 11.651 119.78 0 0 5.7475-10.045v-124.29a1.4438 1.4438 12.22 0 0-2.7582-0.59732l-79.818 175.64a2.1095 2.1095 41.998 0 0 2.9894 2.6914z" style="paint-order:stroke fill markers"/>
<path d="m228.68 195.24-73.84-43.397a11.651 11.651 60.222 0 1-5.7475-10.045v-124.29a1.4438 1.4438 167.78 0 1 2.7582-0.59732l79.818 175.64a2.1095 2.1095 138 0 1-2.9894 2.6914z" style="paint-order:stroke fill markers"/>
<path d="m145.52 155.44a11.343 11.343 0 0 0-5.7474 1.5642l-73.84 43.397a2.7339 2.7339 0 0 0 0.71675 5.008l72.406 18.258a26.439 26.439 0 0 0 12.928 0l72.406-18.258a2.7339 2.7339 0 0 0 0.71675-5.008l-73.84-43.397a11.343 11.343 0 0 0-5.7474-1.5642zm0 16.475a20.156 20.156 0 0 1 20.156 20.156 20.156 20.156 0 0 1-20.156 20.156 20.156 20.156 0 0 1-20.156-20.156 20.156 20.156 0 0 1 20.156-20.156z" style="paint-order:stroke fill markers"/>
<path d="m65.32 214.68 75.068 62.199a8.046 8.046 4.9479e-7 0 0 10.267 0l75.068-62.199a1.5014 1.5014 63.048 0 0-1.3278-2.6112l-72.412 18.404a26.23 26.23 2.4044e-7 0 1-12.922 0l-72.412-18.404a1.5014 1.5014 116.95 0 0-1.3278 2.6112z" style="paint-order:stroke fill markers"/>
</g>
</svg>
