<?xml version="1.0" encoding="utf-8"?>
<!-- Generator: Adobe Illustrator 24.2.1, SVG Export Plug-In . SVG Version: 6.00 Build 0)  -->
<svg version="1.1" id="Layer_1" xmlns="http://www.w3.org/2000/svg" xmlns:xlink="http://www.w3.org/1999/xlink" x="0px" y="0px"
	 viewBox="0 0 535 617.8" style="enable-background:new 0 0 535 617.8;" xml:space="preserve">
<style type="text/css">
	.st0{stroke:#FFFFFF;stroke-width:24;stroke-linecap:round;stroke-miterlimit:10;}
	.st1{stroke:#FFFFFF;stroke-width:4;stroke-linecap:round;stroke-miterlimit:10;}
</style>
<path d="M114.3,177.4L72,219.7c-6.1,6.1-6.1,15.9,0,22l0,0l13.9,13.9l53.3-53.3L114.3,177.4z"/>
<path d="M149.1,142.5l24.9,24.9l52.1-52l-13.9-14c-6.1-6.1-15.9-6.1-22,0L149.1,142.5z"/>
<polygon points="241.6,235 245.6,214.8 299.8,189 228.6,117.9 176.5,169.9 "/>
<polygon points="141.7,204.8 88.3,258.1 88.3,258.1 159,328.8 173,286.9 225.1,288.2 "/>
<path class="st0" d="M268.5,327.4"/>
<path d="M159.1,157.5l-29.9,29.9L233.8,292l10-49.8L159.1,157.5z M167.5,195.7c-3.7,3.7-9.8,3.7-13.5,0s-3.7-9.8,0-13.5
	s9.8-3.7,13.5,0c1.8,1.8,2.8,4.2,2.8,6.7C170.3,191.5,169.3,193.9,167.5,195.7z M187.8,216c-3.7,3.8-9.8,3.8-13.6,0s-3.8-9.8,0-13.6
	c3.7-3.8,9.8-3.8,13.6,0c1.8,1.8,2.8,4.2,2.8,6.8S189.6,214.2,187.8,216L187.8,216z M208,236.3c-3.7,3.7-9.8,3.7-13.5,0
	s-3.7-9.8,0-13.5s9.8-3.7,13.5,0C211.8,226.4,211.8,232.5,208,236.3C208.1,236.2,208.1,236.2,208,236.3z"/>
<path class="st1" d="M321.5,202.1"/>
<path d="M510,428.9H393.4c-15.7,0-28.5-12.8-28.5-28.5v-35.9l-55.5-19.7l-18.1,12.1v218.4L510,448.9V428.9z"/>
<path d="M241.9,384.5l-37.4-39.4l-38,19v36.2c0,15.7-12.8,28.5-28.5,28.5H25v20l216.9,125.3V384.5z"/>
<polygon points="284.2,579.3 284.2,361.5 249,385 249,578.2 267.5,588.9 "/>
<path d="M442.2,129.7l19.5,11.3v33.2H402v62.2l-56.7,0.1l-30.6,47l34.1,9.1l-104.6,44.8L289,232.9l12.1,38.1l35.4-52.4l46-0.2v-63.7
	h59.8L442.2,129.7 M438.2,122.8v27.9h-59.8v63.7l-42,0.2h-2.1l-1.2,1.8L302.3,262l-9.6-30.2l-3.2-10.3l-4.2,9.9L240.5,336l-3.9,9.2
	l9.2-3.9l104.6-44.8l10.6-4.6l-11.2-3l-28.8-7.7l26.5-40.6l54.5-0.1h4v-62.2h59.8v-39.6l-2-1.1l-19.5-11.3L438.2,122.8L438.2,122.8z
	"/>
<g id="Layer_31">
	<path d="M267.5,28.9l242.5,140v280l-242.5,140L25,448.9v-280L267.5,28.9 M267.5,0L255,7.2l-242.5,140L0,154.4v308.9l12.5,7.2
		l242.5,140l12.5,7.2l12.5-7.2l242.5-140l12.5-7.2V154.4l-12.5-7.2L280,7.2L267.5,0L267.5,0z"/>
</g>
</svg>
