<svg xmlns="http://www.w3.org/2000/svg" viewBox="0 0 535.02 617.78"><defs><style>.cls-1{stroke:#fff;stroke-miterlimit:10;stroke-width:2px;}</style></defs><g id="Crack_Shot" data-name="Crack Shot"><path class="cls-1" d="M32,322" transform="translate(-13.49 27.89)"/><path d="M269.33,373A93,93,0,0,1,189,292.75h42.62V269.3h-.88l8.4-16.8h83.64l8.4,16.8h-.78v23.45h42.62A93,93,0,0,1,292.77,373V330.41H269.33Zm-21.94-83.28H314.5V272.3H247.39Z" transform="translate(-13.49 27.89)"/><path d="M320.66,256l6.28,12.56v27.69H369A89.48,89.48,0,0,1,296.27,369V326.91H265.83V369a89.45,89.45,0,0,1-72.72-72.72h42V268.37L241.34,256h79.32m-76.77,37.25H318V268.8H243.89v24.45M325,249H237l-11.9,23.8h3v16.45h-43a96.41,96.41,0,0,0,87.68,87.67v-43h16.44v43A96.41,96.41,0,0,0,377,289.25h-43V272.8h2.95L325,249Zm-74.09,37.25V275.8H311v10.45H250.89Z" transform="translate(-13.49 27.89)"/><path d="M269.33,459.23A178.69,178.69,0,0,1,245,456l-6.82-20.44L198.5,415.66V362.72l.42.43a116.16,116.16,0,0,0,70.41,33.48ZM120.83,338.78v-46h44.61a116,116,0,0,0,27.62,64.09Z" transform="translate(-13.49 27.89)"/><path d="M162.32,296.25A119.33,119.33,0,0,0,184,351l-59.63-14.9v-39.8h38M202,370.83a119.63,119.63,0,0,0,63.83,28.92v55.71a175.28,175.28,0,0,1-18.13-2.54L242,435.78l-.92-2.75-2.59-1.29L202,413.49V370.83m-33.35-81.58H117.33v52.26L195,360.93v56.89L235.35,438l7,21a181,181,0,0,0,30.49,4V393.42A112.88,112.88,0,0,1,168.65,289.25Z" transform="translate(-13.49 27.89)"/><path d="M258.1,495.17l-4.67-14c5.28.72,10.6,1.24,15.9,1.55v12.45Z" transform="translate(-13.49 27.89)"/><path d="M258.5,485.32c2.44.27,4.89.49,7.33.67v5.68h-5.21l-2.12-6.35m-10.2-8.47,7.28,21.82h17.25V479.39a199.79,199.79,0,0,1-24.53-2.54Z" transform="translate(-13.49 27.89)"/><path d="M292.77,396.63a116.14,116.14,0,0,0,70.4-33.48l.33-.33v52.84l-39.71,19.86L317,456a178.43,178.43,0,0,1-24.19,3.25Zm76.29-39.82a116,116,0,0,0,27.6-64.06h44.51v46Z" transform="translate(-13.49 27.89)"/><path d="M437.67,296.25v39.8l-59.51,14.87a119.5,119.5,0,0,0,21.62-54.67h37.89M360,370.92v42.57l-36.48,18.25L320.93,433l-.92,2.75L314.29,453a178.67,178.67,0,0,1-18,2.51V399.75A119.57,119.57,0,0,0,360,370.92m84.67-81.67H393.45A112.88,112.88,0,0,1,289.27,393.42v69.51A180.83,180.83,0,0,0,319.65,459l7-21L367,417.82V360.93l77.67-19.42V289.25Z" transform="translate(-13.49 27.89)"/><path d="M292.77,495.17V482.72c5.27-.31,10.55-.82,15.8-1.54l-4.67,14Z" transform="translate(-13.49 27.89)"/><path d="M303.49,485.33l-2.11,6.34h-5.11V486c2.41-.17,4.82-.4,7.22-.66m10.2-8.47a198.2,198.2,0,0,1-24.42,2.53v19.28h17.15l7.27-21.81Z" transform="translate(-13.49 27.89)"/><path d="M286.27,1V85.54l2.88.12A195.8,195.8,0,0,1,476.42,272.92l.11,2.88H530v10.45H476.53l-.11,2.87A195.8,195.8,0,0,1,289.15,476.39l-2.88.12V560H275.83V476.51l-2.88-.12A195.8,195.8,0,0,1,85.68,289.12l-.12-2.87H34V275.8H85.56l.12-2.88A195.8,195.8,0,0,1,273,85.66l2.88-.12V1h10.44M390.66,275.8h75.43l-.14-3.13A185.32,185.32,0,0,0,289.41,96.12L286.27,96v75.44l2.78.2A109.88,109.88,0,0,1,390.46,273l.2,2.78M96,275.8h75.44l.2-2.78A109.89,109.89,0,0,1,273,171.62l2.79-.2V96l-3.14.14A185.34,185.34,0,0,0,96.14,272.67L96,275.8m190.27-50.67H275.83V181.86l-3.26.28a99.4,99.4,0,0,0-90.41,90.41l-.27,3.25h43.27v10.45H181.89l.27,3.25a99.4,99.4,0,0,0,90.41,90.41l3.26.28V336.91h10.44v43.28l3.26-.28a99.43,99.43,0,0,0,90.41-90.41l.27-3.25H336.94V275.8h43.27l-.27-3.25a99.43,99.43,0,0,0-90.41-90.41l-3.26-.28v43.27m0,240.94,3.14-.14A185.34,185.34,0,0,0,466,289.38l.14-3.13H390.66l-.2,2.78a109.88,109.88,0,0,1-101.41,101.4l-2.78.2v75.44m-10.44,0V390.63l-2.79-.2A109.89,109.89,0,0,1,171.64,289l-.2-2.78H96l.14,3.13A185.36,185.36,0,0,0,272.69,465.93l3.14.14M289.27-2H272.83V82.66C169.88,86.88,86.9,169.85,82.69,272.8H31v16.45H82.69c4.21,103,87.19,185.92,190.14,190.14V563h16.44V479.39c103-4.22,185.93-87.19,190.14-190.14H533V272.8H479.41c-4.21-103-87.19-185.92-190.14-190.14V-2ZM393.45,272.8A112.88,112.88,0,0,0,289.27,168.63V99.12c93.88,4.19,169.49,79.8,173.69,173.68Zm-294.31,0c4.19-93.88,79.8-169.49,173.69-173.68v69.51A112.88,112.88,0,0,0,168.65,272.8Zm173.69-44.67h16.44v-43A96.4,96.4,0,0,1,377,272.8h-43v16.45h43a96.41,96.41,0,0,1-87.68,87.67v-43H272.83v43a96.41,96.41,0,0,1-87.68-87.67h43V272.8h-43a96.4,96.4,0,0,1,87.68-87.67v43Zm16.44,234.8V393.42A112.88,112.88,0,0,0,393.45,289.25H463c-4.2,93.88-79.81,169.49-173.69,173.68Zm-16.44,0c-93.89-4.19-169.5-79.8-173.69-173.68h69.51A112.88,112.88,0,0,0,272.83,393.42v69.51Z" transform="translate(-13.49 27.89)"/><path class="cls-1" d="M32,322" transform="translate(-13.49 27.89)"/><path d="M272.33,462.41a182.28,182.28,0,0,1-26.21-3.18l-7.91-23.71L198.5,415.66V358.39q1.25,1.33,2.55,2.64a113.06,113.06,0,0,0,71.28,32.85ZM120.83,338.78V291.33h47.49a113.05,113.05,0,0,0,29.93,66.81Z" transform="translate(-13.49 27.89)"/><path d="M165.17,294.83a116.43,116.43,0,0,0,23.39,57.27l-64.23-16.05V294.83h40.84m36.83,72a116.59,116.59,0,0,0,66.83,30.29V458.7a180.16,180.16,0,0,1-20-2.52l-6.8-20.4-.92-2.75-2.59-1.29L202,413.49v-46.7m-30.44-79H117.33v53.68L195,360.93v56.89L235.35,438l8.09,24.26a183.75,183.75,0,0,0,29.25,3.67l3.14.14V390.63l-2.79-.2A109.89,109.89,0,0,1,171.64,289l-.08-1.2Z" transform="translate(-13.49 27.89)"/><path d="M272.33,376.38a95.93,95.93,0,0,1-86.47-85.05h33.9l.8-1.58h8.1V273.54l10.52-21h83.64l10.62,21.24v16h8l.79,1.58h34a95.93,95.93,0,0,1-86.47,85.05v-43H272.33Zm-24.94-86.63H314.5V272.3H247.39Z" transform="translate(-13.49 27.89)"/><path d="M320.66,256l9.28,18.56v18.69h9.34l.8,1.58h32.18a92.46,92.46,0,0,1-79,77.63V329.91H268.83v42.55a92.43,92.43,0,0,1-79-77.63h32.09l.79-1.58h9.44V274.37L241.34,256h79.32m-76.77,37.25H318V268.8H243.89v24.45M325,249H237l-13.4,26.8h1.55v10.45h-6.77l-.79,1.58H182l.14,1.67a99.4,99.4,0,0,0,90.41,90.41l3.26.28V336.91h10.44v43.28l3.26-.28a99.43,99.43,0,0,0,90.41-90.41l.14-1.67H344.4l-.79-1.58h-6.67V275.8h1.45L325,249Zm-74.09,37.25V275.8H311v10.45H250.89Z" transform="translate(-13.49 27.89)"/><path d="M289.77,495.17v-15.3A199.28,199.28,0,0,0,309.63,478l-5.73,17.18Z" transform="translate(-13.49 27.89)"/><path d="M304.54,482.19l-3.16,9.48h-8.11v-8.48q5.63-.35,11.27-1m10.23-8.56a196.57,196.57,0,0,1-25.62,2.76l-2.88.12v22.16h20.15l8.35-25Z" transform="translate(-13.49 27.89)"/><path d="M289.77,393.88A113.06,113.06,0,0,0,361.05,361c.83-.83,1.65-1.68,2.45-2.53v57.16l-39.71,19.86-7.91,23.73a182.47,182.47,0,0,1-26.11,3.16Zm74.1-35.78a113.07,113.07,0,0,0,29.91-66.77h47.39v47.45Z" transform="translate(-13.49 27.89)"/><path d="M437.67,294.83v41.22l-64.11,16a116.48,116.48,0,0,0,23.37-57.24h40.74M360,366.88v46.61l-36.48,18.25L320.93,433l-.92,2.75L313.2,456.2a180.55,180.55,0,0,1-19.93,2.5V397.08A116.57,116.57,0,0,0,360,366.88m84.67-79.05H390.54l-.08,1.2a109.88,109.88,0,0,1-101.41,101.4l-2.78.2v75.44l3.14-.14a183.66,183.66,0,0,0,29.14-3.65l8.1-24.28L367,417.82V360.93l77.67-19.42V287.83Z" transform="translate(-13.49 27.89)"/><path d="M258.1,495.17,252.37,478a198.33,198.33,0,0,0,20,1.89v15.3Z" transform="translate(-13.49 27.89)"/><path d="M257.46,482.18q5.69.66,11.37,1v8.48h-8.21l-3.16-9.49m-10.24-8.57,8.36,25.06h20.25V476.51l-2.88-.12a196.54,196.54,0,0,1-25.73-2.78Z" transform="translate(-13.49 27.89)"/><path d="M392.67,379.77l47.87-12a182.34,182.34,0,0,1-31.15,41.57,185.14,185.14,0,0,1-16.72,14.8Z" transform="translate(-13.49 27.89)"/><path d="M433.39,373.2a179.33,179.33,0,0,1-26.47,33.69q-5.16,5.16-10.75,9.91V382.5l37.22-9.3m11.28-10L389.17,377v54.14a186.66,186.66,0,0,0,55.5-63.68v-4.34Z" transform="translate(-13.49 27.89)"/><path d="M392.67,445.73a200.9,200.9,0,0,0,48.5-46.61v94.21l-48.5,24.25Z" transform="translate(-13.49 27.89)"/><path d="M437.67,409.3v81.86l-41.5,20.75V447.58a205.86,205.86,0,0,0,28-23.41q7.08-7.1,13.47-14.87m7-21.32a197,197,0,0,1-55.5,55.89v79.37l55.5-27.75V388Z" transform="translate(-13.49 27.89)"/><path d="M169.33,424.09a184.51,184.51,0,0,1-16.63-14.72,182.2,182.2,0,0,1-31.12-41.54l47.75,11.94Z" transform="translate(-13.49 27.89)"/><path d="M128.72,373.22l37.11,9.28v34.22c-3.68-3.13-7.24-6.42-10.65-9.83a179.23,179.23,0,0,1-26.46-33.67m-11.39-10.06v4.16a186.77,186.77,0,0,0,55.5,63.79V377l-55.5-13.88Z" transform="translate(-13.49 27.89)"/><path d="M120.83,493.33V399a201.24,201.24,0,0,0,48.5,46.68v71.91Z" transform="translate(-13.49 27.89)"/><path d="M124.33,409.18c4.27,5.22,8.81,10.22,13.57,15a205.83,205.83,0,0,0,27.93,23.34v64.4l-41.5-20.75v-82m-7-21.35V495.49l55.5,27.75V443.81a197.19,197.19,0,0,1-55.5-56Z" transform="translate(-13.49 27.89)"/><path d="M198.5,527.39V462.11a198.15,198.15,0,0,0,29.09,10.64v35L247,527.17v28.22Z" transform="translate(-13.49 27.89)"/><path d="M202,467.48a201.66,201.66,0,0,0,22.09,7.91V509.2l2,2.05,17.36,17.37v20.71l-41.5-24V467.48M195,457v72.41l55.5,32.05V525.72L231.09,506.3V470.07a194.46,194.46,0,0,1-34.82-12.87L195,457Z" transform="translate(-13.49 27.89)"/><path d="M315,527.17l19.42-19.42v-35a198.68,198.68,0,0,0,29.08-10.62v65.23l-48.5,28Z" transform="translate(-13.49 27.89)"/><path d="M360,467.53v57.84l-41.5,24V528.62l17.36-17.37,2.05-2.05V475.42A202.89,202.89,0,0,0,360,467.53m7-10.9a194.08,194.08,0,0,1-36.09,13.47v36.2L311.5,525.72v35.74L367,529.41V456.63Z" transform="translate(-13.49 27.89)"/></g><g id="Layer_31" data-name="Layer 31"><path d="M281,1,523.51,141V421L281,561,38.49,421V141L281,1m0-28.87-12.5,7.21L26,119.34l-12.5,7.21v308.9L26,442.66l242.51,140,12.5,7.21,12.5-7.21L536,442.66l12.5-7.21V126.55L536,119.34,293.5-20.68,281-27.89Z" transform="translate(-13.49 27.89)"/></g></svg>