<svg xmlns="http://www.w3.org/2000/svg" viewBox="0 0 535.02 617.78"><g id="Executioner"><path d="M297.37,250.49h0Z" transform="translate(-13.49 27.89)"/><polygon points="307.5 312.12 334.5 278.38 267.01 278.38 307.5 312.12"/><polygon points="250.14 345.87 267.01 329 283.88 345.87 267.01 312.12 250.14 345.87"/><polygon points="226.51 312.12 267.01 278.38 199.52 278.38 226.51 312.12"/><path d="M490.39,440.13,466.1,385.47H364.86l50.62-50.62L348,166.12l-33.74-33.74H280.5L229.88,115.5l-50.62,33.75L213,166.12,145.52,334.85l50.62,50.62H94.9l-24.09,54.2L281,561ZM196.14,284.23l14.06-16.87V216.74l70.3-50.62,70.3,50.62v50.62l14.06,16.87L350.8,318,322.68,301.1l-8.43,33.75h-15V322.31H295.5v12.54H282.37V322.31h-3.74v12.54H265.5V322.31h-3.75v12.54h-15l-8.43-33.75L210.2,318ZM213,351.72V318h16.87v25.3l16.87,16.88V343.28h15v8.44h3.75v-8.44h13.13v8.44h3.74v-8.44H295.5v8.44h3.75v-8.44h15v16.88l16.87-16.88V318H348v33.74l-33.74,33.75h-67.5Z" transform="translate(-13.49 27.89)"/></g><g id="Layer_31" data-name="Layer 31"><path d="M281,1,523.51,141V421L281,561,38.49,421V141L281,1m0-28.87-12.5,7.21L26,119.34l-12.5,7.21v308.9L26,442.66l242.51,140,12.5,7.21,12.5-7.21L536,442.66l12.5-7.21V126.55L536,119.34,293.5-20.68,281-27.89Z" transform="translate(-13.49 27.89)"/></g></svg>