<svg xmlns="http://www.w3.org/2000/svg" viewBox="0 0 535.02 617.78"><defs><style>.cls-1{stroke:#fff;stroke-width:2px;}.cls-1,.cls-2{stroke-miterlimit:10;}.cls-2{fill:none;stroke:#000;stroke-width:5px;}</style></defs><g id="Exemplar_2" data-name="Exemplar 2"><path class="cls-1" d="M32,322" transform="translate(-13.49 27.89)"/><path d="M281,90.65a140.94,140.94,0,0,0-29.57,278.74V287.73h59.14v81.66A140.94,140.94,0,0,0,281,90.65ZM214.47,280.56l7.39-14.34h37l7.4-14.33h7.39v-58.4h-7.39V172h7.39v-7.17h14.78V172h7.39v21.51h-7.39v58.4h7.39l7.4,14.33h37l7.39,14.34Z" transform="translate(-13.49 27.89)"/><path class="cls-2" d="M314.56,377.67a150.07,150.07,0,1,0-67.14,0" transform="translate(-13.49 27.89)"/><polygon points="237.94 457.62 237.94 315.62 297.08 315.62 297.08 457.62 304.08 457.62 304.08 315.62 304.08 308.62 297.08 308.62 237.94 308.62 230.94 308.62 230.94 315.62 230.94 457.62 237.94 457.62"/><rect x="274.9" y="312.93" width="7.39" height="144.69"/><polygon points="417.91 513.89 400.66 462.81 398.71 457.62 393.17 457.62 141.85 457.62 136.3 457.62 134.36 462.81 117.11 513.89 249.69 591.8 290.52 592.24 417.91 513.89"/><path class="cls-2" d="M248.13,390.28a162.23,162.23,0,1,1,66.43-.14" transform="translate(-13.49 27.89)"/><path d="M236.56,394.45c1.51.39,3,.88,4.53,1.19l4.57,1-7.81,36.69-5.6-1.27c-1.87-.38-3.69-1-5.55-1.45Z" transform="translate(-13.49 27.89)"/><path d="M218.77,388.56l4.39,1.64,2.2.82c.73.26,1.48.48,2.22.72l-11.86,35.59c-.91-.3-1.82-.58-2.72-.9l-2.69-1-5.38-2Z" transform="translate(-13.49 27.89)"/><path d="M201.78,380.65c1.39.72,2.73,1.52,4.15,2.17l4.24,2-15.77,34-5.17-2.47c-1.73-.81-3.39-1.77-5.09-2.65Z" transform="translate(-13.49 27.89)"/><path d="M185.72,371c1.3.88,2.62,1.71,3.93,2.57s2.61,1.73,4,2.5L174.17,408.1c-1.66-.94-3.25-2-4.85-3.05s-3.21-2.07-4.8-3.14Z" transform="translate(-13.49 27.89)"/><path d="M170.88,359.49l3.57,3,3.7,2.89-22.88,29.73-4.51-3.54c-1.47-1.21-2.91-2.47-4.37-3.7Z" transform="translate(-13.49 27.89)"/><path d="M157.35,346.49c1,1.19,2.18,2.25,3.26,3.38s2.16,2.26,3.31,3.32l-26,27c-1.4-1.3-2.7-2.7-4.05-4s-2.72-2.69-4-4.13Z" transform="translate(-13.49 27.89)"/><path d="M145.36,332.05l2.83,3.75c1,1.24,2,2.41,3,3.63l-28.84,24c-1.2-1.48-2.45-2.92-3.62-4.43l-3.46-4.57Z" transform="translate(-13.49 27.89)"/><path d="M135,316.4c.75,1.37,1.59,2.7,2.43,4l2.49,4L108.64,345l-3.06-4.85c-1-1.62-2-3.24-3-4.91Z" transform="translate(-13.49 27.89)"/><path d="M126.51,299.7c1.31,2.84,2.56,5.71,4,8.46l-33.41,17c-1.8-3.37-3.35-6.87-4.94-10.35Z" transform="translate(-13.49 27.89)"/><polygon points="106.43 310.06 107.11 312.3 107.89 314.51 109.46 318.93 74.35 332.14 72.43 326.73 71.48 324.03 70.64 321.29 106.43 310.06"/><path d="M115.31,264c.65,3.06,1.22,6.14,2.06,9.15L81,282.35c-1-3.69-1.73-7.44-2.52-11.19Z" transform="translate(-13.49 27.89)"/><path d="M112.77,245.43c.07,1.56.27,3.11.45,4.67l.53,4.66-37.16,5.09-.66-5.69c-.22-1.9-.45-3.8-.55-5.7Z" transform="translate(-13.49 27.89)"/><path d="M112.31,226.65l-.13,4.7.1,4.7-37.5,1c0-1.91-.09-3.81-.11-5.72l.14-5.72Z" transform="translate(-13.49 27.89)"/><path d="M113.86,208c-.36,3.11-.88,6.2-1,9.33l-37.38-3.14c.21-3.81.8-7.6,1.26-11.39Z" transform="translate(-13.49 27.89)"/><polygon points="103.96 217.45 102.91 222.01 102.38 224.3 102.11 225.44 101.91 226.59 65.11 219.33 65.36 217.92 65.68 216.52 66.32 213.73 67.62 208.14 103.96 217.45"/><path d="M123.14,171.7c-.28.73-.6,1.45-.85,2.19l-.74,2.22L120,180.55,84.28,169.22l1.84-5.43.92-2.72c.31-.9.69-1.78,1-2.68Z" transform="translate(-13.49 27.89)"/><path d="M130.77,154.59c-.7,1.39-1.45,2.77-2.12,4.18L126.72,163,92.45,147.79l2.37-5.22c.82-1.73,1.72-3.41,2.58-5.12Z" transform="translate(-13.49 27.89)"/><path d="M140.23,138.4l-2.53,3.95c-.42.66-.86,1.31-1.26,2l-1.16,2-32.36-19,1.43-2.49c.48-.82,1-1.61,1.53-2.42l3.09-4.83Z" transform="translate(-13.49 27.89)"/><path d="M151.45,123.36c-1.06,1.16-2,2.45-2.94,3.66l-2.9,3.69-30.06-22.43,3.53-4.52c1.2-1.48,2.32-3,3.59-4.46Z" transform="translate(-13.49 27.89)"/><path d="M164.28,109.67c-1.11,1.1-2.3,2.12-3.36,3.28l-3.24,3.4-27.4-25.62,3.95-4.15c1.3-1.4,2.74-2.66,4.11-4Z" transform="translate(-13.49 27.89)"/><path d="M178.52,97.45c-2.45,2-5,3.81-7.29,5.92L146.82,74.89c2.85-2.56,5.9-4.85,8.9-7.22Z" transform="translate(-13.49 27.89)"/><path d="M194,86.88c-1.35.79-2.64,1.68-4,2.51s-2.65,1.66-3.93,2.55L165,60.94c1.56-1.09,3.2-2.09,4.8-3.13s3.2-2.09,4.85-3.06Z" transform="translate(-13.49 27.89)"/><path d="M210.59,78.14c-2.88,1.22-5.61,2.74-8.41,4.14L184.64,49.13c3.41-1.73,6.77-3.56,10.29-5.07Z" transform="translate(-13.49 27.89)"/><path d="M228,71.28l-4.44,1.5c-1.48.51-2.91,1.13-4.37,1.69l-13.74-34.9c1.78-.69,3.55-1.44,5.35-2.07l5.44-1.84Z" transform="translate(-13.49 27.89)"/><path d="M246.11,66.38l-4.56,1.06c-1.53.34-3.05.68-4.55,1.14l-9.75-36.22c1.83-.55,3.7-1,5.56-1.4l5.59-1.29Z" transform="translate(-13.49 27.89)"/><path d="M264.65,63.56c-3.11.3-6.21.77-9.31,1.13l-5.65-37.08c3.79-.47,7.57-1,11.37-1.39Z" transform="translate(-13.49 27.89)"/><polygon points="269.92 90.71 267.57 90.65 265.22 90.71 260.53 90.83 259 53.35 264.73 53.2 267.59 53.14 270.45 53.2 269.92 90.71"/><path d="M302.14,64.12c-1.56-.18-3.1-.44-4.66-.55l-4.68-.35,2.58-37.43,5.71.44c1.91.15,3.8.45,5.69.67Z" transform="translate(-13.49 27.89)"/><path d="M320.58,67.47,316,66.41c-1.52-.38-3.07-.57-4.6-.87l6.71-36.91c1.87.37,3.77.63,5.63,1.08L329.34,31Z" transform="translate(-13.49 27.89)"/><path d="M338.53,72.82l-4.44-1.5c-1.48-.49-2.95-1-4.46-1.42L340.42,34c1.85.49,3.65,1.14,5.46,1.74l5.44,1.84Z" transform="translate(-13.49 27.89)"/><path d="M355.76,80.2c-1.38-.74-2.81-1.36-4.24-2l-4.27-1.94L362,41.77l5.23,2.36c1.74.78,3.49,1.55,5.18,2.45Z" transform="translate(-13.49 27.89)"/><path d="M372.06,89.46c-1.32-.84-2.62-1.72-4-2.52L364,84.61,382.52,52l5,2.86c1.64,1,3.23,2,4.84,3.06Z" transform="translate(-13.49 27.89)"/><path d="M387.27,100.43l-3.69-2.9c-.62-.47-1.22-1-1.85-1.44l-1.91-1.35,22-30.39L404.14,66c.77.56,1.51,1.17,2.26,1.75l4.51,3.54Z" transform="translate(-13.49 27.89)"/><path d="M401.17,113c-.53-.58-1.08-1.13-1.66-1.66l-1.7-1.62-3.4-3.24,25.21-27.77,4.16,3.94,2.07,2c.7.65,1.38,1.33,2,2Z" transform="translate(-13.49 27.89)"/><path d="M413.57,127.12c-1-1.21-1.89-2.49-2.93-3.66l-3.08-3.55,28.12-24.83,3.75,4.34c1.26,1.43,2.39,3,3.59,4.46Z" transform="translate(-13.49 27.89)"/><path d="M424.37,142.46c-1.71-2.62-3.32-5.31-5.19-7.82l30.69-21.57c2.27,3.08,4.26,6.34,6.34,9.55Z" transform="translate(-13.49 27.89)"/><path d="M433.41,158.88c-.67-1.41-1.42-2.78-2.12-4.18s-1.39-2.8-2.17-4.16l32.9-18c.93,1.66,1.76,3.39,2.65,5.08s1.76,3.39,2.58,5.12Z" transform="translate(-13.49 27.89)"/><path d="M440.49,176.23c-.92-3-2.19-5.85-3.3-8.77l34.69-14.26c1.38,3.57,2.9,7.08,4.05,10.73Z" transform="translate(-13.49 27.89)"/><path d="M445.63,194.25l-1.05-4.57c-.4-1.51-.85-3-1.27-4.51l36.07-10.3c.52,1.85,1.06,3.68,1.55,5.53l1.29,5.59Z" transform="translate(-13.49 27.89)"/><polygon points="435.26 240.62 434.67 235.97 434.37 233.64 433.95 231.34 470.95 225.13 471.45 227.96 471.82 230.8 472.54 236.49 435.26 240.62"/><path d="M449.82,231.48c-.11-3.13-.12-6.27-.28-9.4L487,220c.19,3.81.22,7.63.33,11.44Z" transform="translate(-13.49 27.89)"/><path d="M448.76,250.22c.42-3.1.56-6.23.78-9.35l37.46,2c-.26,3.81-.46,7.62-.95,11.42Z" transform="translate(-13.49 27.89)"/><polygon points="432.23 296.61 433.16 292.02 433.63 289.72 433.99 287.41 471 293.56 470.54 296.4 469.98 299.21 468.83 304.83 432.23 296.61"/><path d="M440.57,286.73c1.08-2.93,1.92-5.94,2.82-8.93l36.09,10.25c-1.09,3.66-2.14,7.34-3.46,10.94Z" transform="translate(-13.49 27.89)"/><path d="M433.5,304.09l1.93-4.27c.64-1.43,1.29-2.85,1.84-4.31L472,309.72c-.68,1.79-1.47,3.53-2.25,5.28l-2.36,5.22Z" transform="translate(-13.49 27.89)"/><polygon points="410.99 348.42 413.44 344.42 415.71 340.32 448.63 358.31 445.83 363.32 442.85 368.21 410.99 348.42"/><path d="M413.72,335.89c1-1.2,1.9-2.48,2.84-3.74s1.88-2.5,2.77-3.78L450,349.9c-1.08,1.57-2.25,3.09-3.38,4.63s-2.24,3.09-3.47,4.56Z" transform="translate(-13.49 27.89)"/><path d="M401.32,350c2.16-2.26,4.36-4.49,6.38-6.88l28.15,24.8c-2.48,2.91-5.15,5.63-7.8,8.39Z" transform="translate(-13.49 27.89)"/><path d="M387.43,362.59c2.47-1.92,4.77-4.06,7.13-6.11l25.24,27.75c-2.87,2.52-5.69,5.1-8.7,7.45Z" transform="translate(-13.49 27.89)"/><path d="M372.26,373.63l3.89-2.62c1.3-.88,2.6-1.74,3.84-2.7l22,30.36c-1.52,1.16-3.11,2.23-4.69,3.3s-3.16,2.15-4.76,3.2Z" transform="translate(-13.49 27.89)"/><polygon points="342.45 410.75 346.64 408.64 350.73 406.35 369.26 438.97 364.25 441.76 359.13 444.35 342.45 410.75"/><path d="M338.72,390.25c1.49-.48,2.92-1.11,4.38-1.68s2.91-1.13,4.34-1.75l14.78,34.47c-1.75.77-3.54,1.44-5.31,2.16s-3.54,1.45-5.36,2.05Z" transform="translate(-13.49 27.89)"/><path d="M320.78,395.66l4.55-1.15c1.52-.38,3-.88,4.5-1.32l10.83,35.92c-1.84.53-3.65,1.13-5.51,1.6l-5.56,1.41Z" transform="translate(-13.49 27.89)"/></g><g id="Layer_31" data-name="Layer 31"><path d="M281,1,523.51,141V421L281,561,38.49,421V141L281,1m0-28.87-12.5,7.21L26,119.34l-12.5,7.21v308.9L26,442.66l242.51,140,12.5,7.21,12.5-7.21L536,442.66l12.5-7.21V126.55L536,119.34,293.5-20.68,281-27.89Z" transform="translate(-13.49 27.89)"/></g></svg>