<svg xmlns="http://www.w3.org/2000/svg" viewBox="0 0 535.02 617.78"><defs><style>.cls-1{fill:#231f20;}</style></defs><g id="GENERIC_TALENT" data-name="GENERIC TALENT"><path class="cls-1" d="M437.61,381.78a17,17,0,0,0-34,0V490.24l34-19.63Z" transform="translate(-13.49 27.89)"/><path class="cls-1" d="M158.39,381.78a17,17,0,0,0-34,0v88.83l34,19.63Z" transform="translate(-13.49 27.89)"/><g id="Layer_44" data-name="Layer 44"><polygon class="cls-1" points="327.87 294.36 267.51 354.72 267.51 354.72 207.15 294.36 267.51 153.53 327.87 294.36"/><polygon class="cls-1" points="207.15 294.36 267.51 354.72 267.51 354.72 327.87 294.36 267.51 153.53 207.15 294.36"/><path class="cls-1" d="M298,551.21V306.71a17,17,0,0,0-34,0v244.5L281,561Z" transform="translate(-13.49 27.89)"/><polygon class="cls-1" points="188.26 369.44 127.9 429.79 127.9 429.79 67.54 369.44 127.9 228.6 188.26 369.44"/><polygon class="cls-1" points="67.54 369.44 127.9 429.79 127.9 429.79 188.26 369.44 127.9 228.6 67.54 369.44"/><polygon class="cls-1" points="327.87 294.36 267.51 354.72 267.51 354.72 207.15 294.36 267.51 153.53 327.87 294.36"/><path class="cls-1" d="M264,551.21V306.71a17,17,0,0,1,34,0v244.5L281,561Z" transform="translate(-13.49 27.89)"/><polygon class="cls-1" points="467.48 369.44 407.12 429.79 407.12 429.79 346.76 369.44 407.12 228.6 467.48 369.44"/></g></g><g id="Layer_47" data-name="Layer 47"><path d="M281,1,523.51,141V421L281,561,38.49,421V141L281,1m0-28.87-12.5,7.21L26,119.34l-12.5,7.21v308.9L26,442.66l242.51,140,12.5,7.21,12.5-7.21L536,442.66l12.5-7.21V126.55L536,119.34,293.5-20.68,281-27.89Z" transform="translate(-13.49 27.89)"/></g></svg>