<?xml version="1.0" encoding="utf-8"?>
<!-- Generator: Adobe Illustrator 24.2.1, SVG Export Plug-In . SVG Version: 6.00 Build 0)  -->
<svg version="1.1" id="Layer_1" xmlns="http://www.w3.org/2000/svg" xmlns:xlink="http://www.w3.org/1999/xlink" x="0px" y="0px"
	 viewBox="0 0 535 617.8" style="enable-background:new 0 0 535 617.8;" xml:space="preserve">
<style type="text/css">
	.st0{stroke:#000000;stroke-width:12;stroke-linecap:round;stroke-miterlimit:10;}
	.st1{stroke:#000000;stroke-width:12;stroke-miterlimit:10;}
	.st2{fill:none;stroke:#000000;stroke-width:12;stroke-linecap:round;stroke-miterlimit:10;}
	.st3{fill:none;stroke:#000000;stroke-width:12;stroke-miterlimit:10;}
	.st4{stroke:#000000;stroke-width:11;stroke-miterlimit:10;}
	.st5{fill:none;stroke:#000000;stroke-width:11;stroke-miterlimit:10;}
	.st6{stroke:#000000;stroke-miterlimit:10;}
</style>
<line class="st0" x1="205.7" y1="407.6" x2="168.9" y2="471.3"/>
<line class="st1" x1="85.8" y1="283.6" x2="174.2" y2="283.6"/>
<line class="st0" x1="153.1" y1="342" x2="114.2" y2="342"/>
<circle class="st2" cx="161.9" cy="483.5" r="14.1"/>
<line class="st1" x1="71.6" y1="138.4" x2="115" y2="181.8"/>
<polyline class="st3" points="225.7,218 195.6,188 133.6,188 "/>
<circle class="st2" cx="121.2" cy="188" r="12.4"/>
<circle class="st2" cx="71.6" cy="283.6" r="12.4"/>
<polyline class="st3" points="317.4,405.7 347.4,435.7 409.4,435.7 "/>
<circle class="st2" cx="421.8" cy="435.7" r="12.4"/>
<polyline class="st3" points="193.7,193.4 193.7,143.9 226.7,94.3 "/>
<circle class="st2" cx="98.2" cy="342" r="12.4"/>
<line class="st1" x1="350.2" y1="182" x2="314" y2="228.8"/>
<line class="st1" x1="418.3" y1="169.4" x2="376.9" y2="169.4"/>
<circle class="st4" cx="322.7" cy="233.9" r="12.4"/>
<circle class="st2" cx="359.8" cy="169.6" r="12.4"/>
<circle class="st2" cx="429" cy="169.6" r="12.4"/>
<polyline class="st5" points="384.8,313.7 413.1,313.7 441.4,285.4 466.4,285.4 "/>
<circle class="st2" cx="482.1" cy="287.1" r="12.4"/>
<path class="st4" d="M186.6,405.7"/>
<circle class="st2" cx="234.4" cy="81.9" r="12.4"/>
<path class="st6" d="M265.1,173.9l-121.5,67.5v148.5l121.5,67.5l121.5-67.5V241.4L265.1,173.9z M266.4,222c27.1,0,49.1,22,49.1,49.1
	s-22,49.1-49.1,49.1s-49.1-22-49.1-49.1l0,0C217.4,243.9,239.3,222,266.4,222L266.4,222z M341.6,327.8l-58,34.1l50.7,29.8
	c0.7,0.4,0.9,1.3,0.5,2c-0.3,0.5-0.8,0.7-1.3,0.7h-27.7c-0.3,0-0.5-0.1-0.7-0.2l-38.2-22.5l-39,22.9c-0.3,0.2-0.6,0.3-1,0.3h-27.6
	c-1.1-0.1-1.9-1-1.9-2.1c0-0.6,0.4-1.2,0.9-1.5l50.9-30l-57.7-34c-0.7-0.4-0.9-1.3-0.5-2c0.3-0.5,0.8-0.7,1.3-0.7H220
	c0.3,0,0.5,0.1,0.7,0.2l45.3,26.7l46-27.1c0.3-0.2,0.6-0.3,1-0.3h27.7c1.1,0,2,0.9,1.9,2.1C342.5,326.8,342.2,327.4,341.6,327.8z"/>
<path class="st6" d="M267.5,28.9l242.5,140v280l-242.5,140L25,448.9v-280L267.5,28.9 M267.5,0L255,7.2l-242.5,140L0,154.4v308.9
	l12.5,7.2l242.5,140l12.5,7.2l12.5-7.2l242.5-140l12.5-7.2V154.4l-12.5-7.2L280,7.2L267.5,0L267.5,0z"/>
</svg>
