<?xml version="1.0" standalone="no"?>
<!DOCTYPE svg PUBLIC "-//W3C//DTD SVG 20010904//EN"
 "http://www.w3.org/TR/2001/REC-SVG-20010904/DTD/svg10.dtd">
<svg version="1.0" xmlns="http://www.w3.org/2000/svg"
 width="535.000000pt" height="618.000000pt" viewBox="0 0 535.000000 618.000000"
 preserveAspectRatio="xMidYMid meet">

<g transform="translate(0.000000,618.000000) scale(0.100000,-0.100000)"
fill="#000000" stroke="none">
<path d="M1338 5407 l-1338 -772 0 -1545 0 -1545 1336 -770 c734 -424 1340
-769 1345 -767 6 1 609 348 1340 770 l1329 767 0 1545 0 1545 -1282 740 c-704
407 -1306 754 -1337 772 l-56 31 -1337 -771z m2582 -235 l1175 -679 3 -307 2
-307 -72 3 -73 3 -65 128 -65 127 -290 -2 -290 -3 -65 -127 -65 -128 -328 0
-327 0 2 -177 3 -178 253 -64 252 -64 0 -186 0 -186 133 -66 132 -67 65 -196
64 -196 172 0 172 0 66 198 66 197 125 63 c69 34 127 62 130 62 3 0 5 -63 5
-140 l0 -140 -125 0 -125 0 0 -148 0 -148 -60 -59 -60 -59 0 -427 0 -426 -25
-11 c-37 -17 -4023 -17 -4060 0 l-25 11 0 426 0 427 -65 64 -65 64 0 143 0
143 -120 0 -120 0 0 140 c0 77 2 140 5 140 3 0 61 -28 130 -62 l125 -63 66
-197 66 -198 172 0 172 0 64 196 65 196 133 67 132 66 0 186 0 186 253 64 252
64 3 178 2 177 -327 0 -328 0 -65 128 -65 127 -290 3 -290 2 -65 -127 -65
-128 -73 -3 -72 -3 2 307 3 306 1209 698 1210 699 35 -19 c20 -11 565 -325
1211 -698z m898 -1197 c23 -47 53 -104 67 -125 l25 -40 95 0 95 0 0 -170 0
-169 -32 -9 -33 -8 -3 -190 -2 -190 -120 -59 -120 -59 -63 -191 -64 -190 -128
0 -128 0 -64 190 -63 191 -120 59 -120 59 -2 190 -3 190 -245 61 -245 61 -3
117 -3 117 311 0 310 0 25 40 c14 21 44 78 67 125 l42 85 241 0 241 0 42 -85z
m-3760 -67 l3 -48 -245 0 -246 0 0 50 0 50 243 -2 242 -3 3 -47z m3982 -1750
l0 -503 -83 -47 c-58 -34 -94 -48 -120 -48 l-37 0 0 378 0 378 60 59 60 59 0
113 0 113 60 0 60 0 0 -502z m-831 -982 c-16 -14 -1525 -879 -1533 -879 -6 0
-337 188 -736 418 -399 230 -743 429 -765 442 l-40 23 1539 0 c847 0 1537 -2
1535 -4z"/>
<path d="M2361 4874 c-260 -107 -476 -192 -479 -189 -3 3 7 60 22 128 16 67
34 149 42 182 l13 59 -411 -412 c-227 -226 -409 -414 -406 -418 4 -3 131 60
282 140 152 80 281 146 286 146 7 0 8 -33 4 -95 -4 -52 -4 -95 0 -95 4 0 194
83 423 185 229 102 418 183 421 180 4 -3 -31 -80 -76 -172 -46 -91 -82 -167
-80 -168 2 -2 147 28 323 65 176 38 321 67 322 66 1 0 -39 -53 -88 -116 -75
-97 -86 -116 -71 -122 9 -4 159 -37 332 -73 173 -36 323 -69 333 -73 11 -4
-121 -19 -292 -32 -171 -13 -311 -27 -311 -31 0 -3 73 -41 162 -84 l162 -78
-40 -20 c-21 -11 -147 -76 -279 -143 l-240 -124 171 0 c94 0 219 -3 277 -6
l106 -7 -140 -278 c-76 -154 -136 -279 -133 -279 3 0 100 57 215 126 l209 125
0 323 c0 237 3 325 12 334 9 9 98 12 340 12 l328 0 59 119 c33 65 67 121 76
125 9 3 58 6 108 6 l92 1 80 176 c108 237 102 219 62 195 -220 -136 -493 -292
-504 -288 -7 3 -13 18 -13 33 0 15 -7 126 -17 245 l-16 217 -84 -182 c-46
-100 -88 -183 -93 -185 -6 -2 -10 -12 -10 -21 0 -15 -55 -148 -66 -160 -4 -4
-455 169 -467 179 -4 4 55 67 133 140 77 73 138 135 136 138 -3 2 -181 -1
-396 -8 -215 -7 -392 -11 -394 -9 -3 2 11 94 30 204 38 223 37 215 27 214 -5
0 -221 -88 -482 -195z"/>
<path d="M1690 3344 c-91 -24 -168 -43 -172 -44 -12 0 -10 -960 2 -960 6 0 91
41 190 90 l180 90 0 435 c0 408 -1 435 -17 434 -10 -1 -92 -21 -183 -45z"/>
<path d="M3460 2955 l0 -435 180 -90 c99 -49 184 -90 190 -90 7 0 10 163 10
480 l0 480 -27 6 c-16 3 -98 24 -183 45 -85 21 -158 39 -162 39 -5 0 -8 -196
-8 -435z m203 304 l97 -23 0 -393 c0 -216 -2 -393 -5 -393 -3 0 -52 24 -110
52 l-105 53 0 368 c0 291 3 368 13 364 6 -2 56 -15 110 -28z"/>
<path d="M1140 2599 l0 -141 -65 -67 -65 -68 0 -421 0 -422 185 0 185 0 0 630
0 630 -120 0 -120 0 0 -141z"/>
<path d="M3970 2110 l0 -630 185 0 185 0 0 422 0 421 -65 68 -65 67 0 141 0
141 -120 0 -120 0 0 -630z m180 437 l0 -113 60 -59 60 -59 0 -378 0 -378 -115
0 -115 0 0 550 0 550 55 0 55 0 0 -113z"/>
<path d="M4292 3797 c-39 -40 -72 -77 -72 -82 0 -5 37 -47 82 -92 l83 -83 -83
-83 c-45 -45 -82 -87 -82 -92 0 -13 142 -155 155 -155 5 0 47 37 92 82 l83 83
83 -83 c45 -45 87 -82 92 -82 13 0 155 142 155 155 0 5 -37 47 -82 92 l-83 83
83 83 c45 45 82 87 82 92 0 13 -142 155 -155 155 -5 0 -47 -37 -92 -82 l-83
-83 -83 83 c-45 45 -87 82 -92 82 -6 0 -43 -33 -83 -73z m346 -89 l87 93 42
-43 43 -43 -87 -87 -88 -88 88 -88 87 -87 -43 -43 -42 -43 -87 93 -88 93 -87
-93 -88 -93 -42 43 -43 43 87 87 88 88 -88 88 -87 87 43 43 42 43 88 -93 87
-93 88 93z"/>
</g>
</svg>
