<?xml version="1.0" encoding="utf-8"?>
<!-- Generator: Adobe Illustrator 24.2.1, SVG Export Plug-In . SVG Version: 6.00 Build 0)  -->
<svg version="1.1" id="Layer_1" xmlns="http://www.w3.org/2000/svg" xmlns:xlink="http://www.w3.org/1999/xlink" x="0px" y="0px"
	 viewBox="0 0 535 617.8" style="enable-background:new 0 0 535 617.8;" xml:space="preserve">
<g id="Juggernaut">
	<polygon points="301.2,351.1 287.7,364.6 287.7,453.6 326.2,453.6 326.2,320.8 301.2,320.8 	"/>
	<path d="M326.2,320.8v132.8h-38.5v-89l13.5-13.5v-30.4h25"/>
	<polygon points="231.9,320.8 206.9,320.8 206.9,453.6 245.4,453.6 245.4,364.6 231.9,351.1 	"/>
	<path d="M231.9,320.8v30.3l13.5,13.5v89h-38.5V320.8H231.9"/>
	<path d="M374.9,199.5h-64.4L297,172.6h-61l-13.5,26.9H158l-5.1,5.1v32.1l53.9,13.5v39.5l28,14l14,42.1h35.3l14-42.1l28-14v-39.5
		l53.9-13.5v-32L374.9,199.5z M288.3,203.7h-41.6l-10.4-10.4h62.5L288.3,203.7z"/>
	<polygon points="135,214.1 100.9,193.7 165.9,128.8 206.7,142.4 	"/>
	<path d="M165.8,128.8l40.9,13.6L135,214.1l-34-20.4L165.8,128.8"/>
	<polygon points="328.3,144.4 369.2,130.8 434.1,195.8 400,216.2 	"/>
	<path d="M369.2,130.8l64.9,64.9l-34,20.4l-71.8-71.7L369.2,130.8"/>
	<g id="Layer_29">
		<polygon points="370.1,450.3 361.7,445.4 361.7,477.7 263.7,502.2 165.7,477.7 165.7,434 263.7,409.5 345.8,430 351,421 
			263.7,399.2 155.7,426.2 155.7,485.5 263.7,512.5 371.7,485.5 371.7,447.5 		"/>
		<path d="M398.7,348.5l8.9,5.1l-9.8,16.9l-1,1.8l0.5,2l3.5,12.9l-32.5,56.2L350,432.9L398.7,348.5 M396.9,341.7l-53.7,93l27,15.6
			l36-62.4l-4-14.9l12.3-21.2L396.9,341.7L396.9,341.7z"/>
		<path d="M464.8,386.6l8.9,5.1L425,476.1l-18.3-10.6l32.5-56.2l12.9-3.4l2-0.5l1-1.8L464.8,386.6 M462.9,379.8L450.6,401l-14.9,4
			l-36,62.4l27,15.6l53.8-93.1L462.9,379.8L462.9,379.8z"/>
		<path d="M388.2,279.6l15.7,15.2l-35,60.7l-13-19.7L388.2,279.6 M387.1,271.5l-37.2,64.4l19.2,29l41-71.1L387.1,271.5L387.1,271.5z
			"/>
	</g>
	<path d="M504.7,307.6l-1.3-4.8l-2.2-8.2l-1.3-4.8l-4.8,1.3l-15.6,4.2l-4.2-15.6l-1.3-4.8l-4.8,1.3l-8.2,2.2l-4.8,1.3l1.3,4.8
		l4.2,15.6l-15.6,4.2l-4.8,1.3l1.3,4.8l2.2,8.2l1.3,4.8l4.8-1.3l15.6-4.2l4.2,15.6l1.3,4.8l4.8-1.3l8.2-2.2l4.8-1.3l-1.3-4.8
		l-4.2-15.6l15.6-4.2L504.7,307.6z M478.1,309.5l5.5,20.5l-8.2,2.2l-5.5-20.5l-20.5,5.5l-2.2-8.2l20.5-5.5l-5.5-20.5l8.2-2.2
		l5.5,20.5l20.5-5.5l2.2,8.2L478.1,309.5z"/>
	<polygon points="506.6,334.6 504.7,338 490.3,363 468.1,361.6 466,361.5 464.5,362.9 440.3,384.3 421.8,373.7 428.3,342 428.7,340 
		427.6,338.3 415.3,319.7 429.7,294.7 431.7,291.4 428.9,288.6 399.4,260.1 410,241.7 454.4,267.4 457.1,268.9 459.7,267.2 
		477.4,255.5 510,274.3 510,268.5 477.2,249.6 456.9,263 408.2,234.9 393.1,261 425.4,292.2 409.4,319.9 423.4,341 416.2,376.2 
		440.9,390.5 467.8,366.6 493,368.2 509,340.5 510,340.8 510,335.6 	"/>
	<polygon points="506.2,422.5 482.6,421.1 510,373.6 510,363.6 474.2,425.6 509,427.7 510,426 510,416 	"/>
</g>
<g id="Layer_31">
	<path d="M267.5,28.9l242.5,140v280l-242.5,140L25,448.9v-280L267.5,28.9 M267.5,0L255,7.2l-242.5,140L0,154.4v308.9l12.5,7.2
		l242.5,140l12.5,7.2l12.5-7.2l242.5-140l12.5-7.2V154.4l-12.5-7.2L280,7.2L267.5,0L267.5,0z"/>
</g>
</svg>
