<?xml version="1.0" encoding="utf-8"?>
<!-- Generator: Adobe Illustrator 27.9.0, SVG Export Plug-In . SVG Version: 6.00 Build 0)  -->
<svg version="1.1" id="Layer_1" xmlns="http://www.w3.org/2000/svg" xmlns:xlink="http://www.w3.org/1999/xlink" x="0px" y="0px"
	 viewBox="0 0 535 617.8" style="enable-background:new 0 0 535 617.8;" xml:space="preserve">
<g id="Layer_47">
	<path d="M267.5,28.9l242.5,140v280l-242.5,140L25,448.9v-280L267.5,28.9 M267.5,0L255,7.2l-242.5,140L0,154.4v308.9l12.5,7.2
		l242.5,140l12.5,7.2l12.5-7.2l242.5-140l12.5-7.2V154.4l-12.5-7.2L280,7.2L267.5,0L267.5,0z"/>
</g>
<g transform="translate(0,0)">
	<path d="M267.5,100c-28,0-56,10.5-67.1,31.5h53.8v14.9h-58.4c-0.5,4-0.4,7.4-0.4,11.6h58.8v14.9h-58.8v11.6h58.8v14.9h-58.8V211
		h144.1v-11.6h-58.8v-14.9h58.8v-11.6h-58.8V158h58.8c0-3.8,0.1-8.1-0.4-11.6h-58.4v-14.9h53.8C323.5,110.5,295.5,100,267.5,100z
		 M121.8,211v14.9h18.8c-0.1,3.9-0.2,7.8-0.3,11.6h14.9c0-3.8,0.1-7.7,0.3-11.6h25.1V211H121.8z M354.5,211v14.9h24.8
		c0,3.9-0.1,7.7-0.2,11.6H394c0.1-3.8,0.2-7.7,0.2-11.6h19.1V211H354.5z M195.5,225.9v14.9h144.1v-14.9H195.5z M140.3,252.4
		c1,71.7,16.5,111.6,39.6,133.7c20.5,19.7,45.9,24,68.6,25v38.4h38.1v-38.4c22.1-1,46.1-5.4,65.7-25.1
		c22.2-22.2,37.5-61.9,41.1-133.6h-14.9c-3.6,69.2-18.6,104.9-36.7,123.1c-20.9,20.9-47.7,21-74.2,21s-55.5-0.2-77.3-21.1
		c-19-18.2-34-53.8-35-123L140.3,252.4z M195.5,255.7v55.5c0,32.4,31.2,49.7,64.6,51.9V255.7H195.5z M275,255.7v107.4
		c33.4-2.2,64.6-19.5,64.6-51.9v-55.5L275,255.7z M155.7,464.4v13.3h223.6v-13.3H155.7z"/>
</g>
<polygon points="62,492 469,492 267.5,600 "/>
</svg>
