<?xml version="1.0" standalone="no"?>
<!DOCTYPE svg PUBLIC "-//W3C//DTD SVG 20010904//EN"
 "http://www.w3.org/TR/2001/REC-SVG-20010904/DTD/svg10.dtd">
<svg version="1.0" xmlns="http://www.w3.org/2000/svg"
 width="535.000000pt" height="618.000000pt" viewBox="0 0 535.000000 618.000000"
 preserveAspectRatio="xMidYMid meet">

<g transform="translate(0.000000,618.000000) scale(0.100000,-0.100000)"
fill="#000000" stroke="none">
<path d="M1333 5408 l-1333 -770 0 -1548 0 -1548 1322 -763 c728 -419 1330
-767 1338 -772 11 -6 364 192 1353 763 l1337 772 0 1548 0 1548 -1336 771
c-734 424 -1338 771 -1342 770 -4 0 -607 -347 -1339 -771z m2389 -125 c571
-330 961 -561 954 -565 -7 -4 -77 -29 -157 -57 -79 -27 -479 -167 -889 -311
-410 -144 -900 -316 -1089 -381 -189 -65 -346 -121 -348 -123 -7 -6 35 -160
67 -248 55 -150 84 -208 100 -202 8 4 85 30 170 59 121 41 1142 398 1985 695
324 114 515 178 548 184 l37 7 0 -911 0 -910 -680 0 -680 0 -250 125 -250 125
-36 -57 c-20 -32 -49 -78 -64 -102 l-28 -44 145 -186 c80 -102 150 -191 154
-197 5 -6 -27 -53 -81 -120 l-89 -109 930 -3 929 -2 0 -25 0 -25 -962 -1 -963
0 -83 -102 -82 -102 302 -27 c293 -26 327 -27 998 -28 l695 0 -58 -35 -58 -35
-232 0 c-196 0 -286 -6 -569 -35 l-337 -35 -349 35 c-192 19 -356 35 -365 35
-13 0 -11 -14 14 -90 20 -57 36 -91 47 -94 9 -2 60 -11 112 -20 52 -8 174 -29
270 -46 l175 -30 415 50 c228 27 435 50 460 50 45 0 45 0 -119 -94 -137 -79
-175 -96 -230 -105 -130 -21 -482 -61 -539 -61 -32 0 -144 16 -248 35 -104 19
-198 35 -209 35 -13 0 -63 -42 -130 -109 l-110 -109 55 -6 c89 -11 199 -25
280 -36 41 -6 118 -14 170 -20 138 -14 240 -32 235 -40 -3 -4 -65 -42 -138
-84 l-134 -76 -139 15 c-77 8 -173 19 -214 25 -41 5 -115 14 -163 20 -49 6
-94 13 -99 16 -6 4 -8 -4 -4 -22 8 -42 56 -354 56 -368 0 -12 -167 -113 -180
-109 -4 1 -35 18 -68 39 -58 34 -75 54 -242 283 l-179 247 -64 12 c-91 17
-146 14 -277 -13 l-115 -23 -142 81 c-78 45 -140 83 -139 85 2 1 81 18 177 38
195 40 436 56 539 36 53 -10 62 -9 250 50 107 33 199 64 204 68 4 5 0 20 -10
35 -22 29 4 30 -274 -5 -168 -22 -187 -22 -460 -11 -157 6 -413 16 -570 22
l-285 12 -142 81 c-78 44 -140 82 -138 84 3 3 501 -17 970 -38 377 -17 435
-15 718 28 l48 7 -45 62 c-27 36 -43 68 -40 77 5 13 -65 16 -593 19 -415 2
-682 8 -873 20 -185 12 -283 14 -300 8 -14 -6 -56 -14 -93 -20 -67 -10 -69 -9
-124 24 -47 28 -53 35 -37 41 10 3 30 10 44 14 14 5 45 14 70 20 25 6 68 20
96 31 l52 20 563 -43 c507 -39 598 -43 899 -43 l334 0 52 120 c29 66 53 123
53 128 1 4 -512 7 -1139 7 l-1140 0 0 25 0 25 1120 0 c616 0 1120 2 1120 5 0
15 -495 655 -507 655 -7 0 -94 -20 -193 -45 l-179 -45 -681 0 -680 0 0 983 0
984 1213 700 1212 700 40 -23 c22 -13 475 -275 1007 -581z"/>
<path d="M1946 5267 c-26 -30 -106 -202 -151 -321 -44 -120 -89 -286 -110
-416 -23 -135 -31 -422 -15 -561 84 -761 551 -1434 1231 -1775 48 -24 97 -44
109 -44 17 0 13 9 -32 62 -118 140 -284 383 -408 598 -277 481 -478 1069 -554
1615 -29 212 -38 332 -45 597 -6 263 -6 267 -25 245z"/>
<path d="M1595 3639 c-38 -15 -74 -30 -79 -32 -5 -2 26 -106 69 -231 65 -188
81 -226 94 -220 9 3 43 15 76 26 33 12 63 24 68 28 4 3 -4 33 -19 66 -36 80
-77 200 -104 307 -13 48 -26 87 -29 86 -3 -1 -37 -14 -76 -30z"/>
</g>
</svg>
