<svg xmlns="http://www.w3.org/2000/svg" viewBox="0 0 535.02 617.78"><g id="Skirmisher"><path d="M405.66,187.89h-6.6A53,53,0,0,0,384.31,190l21.35,32v-34.1Z" transform="translate(-13.49 27.89)"/><polygon points="368.51 288.78 388.84 288.78 368.51 258.29 368.51 288.78"/><path d="M295.14,487.39H221.38a80.51,80.51,0,0,0-44.66,13.43L281,561l120.27-69.43c.07-1.39.11-2.79.11-4.2h0v-54h0a81,81,0,0,0-81-81H246.61a25.24,25.24,0,0,1-25.23-25.24V298.39H396.21a9.46,9.46,0,0,0,9.45-9.45V269.89H232.38a9.22,9.22,0,0,1-2.92-18l57-8.83a82.85,82.85,0,0,0,46.23-23.46L355.35,197a61.42,61.42,0,0,1,43.71-18.1h6.6V126.06a19.44,19.44,0,0,0-27.61-17.64L235,139.34a119.88,119.88,0,0,0-94.57,117.18v95.87h0a81,81,0,0,0,81,81h73.76a25.24,25.24,0,0,1,25.24,25.23v3.53A25.24,25.24,0,0,1,295.14,487.39ZM262.36,159.54l30.36,12.12L274.19,198.6l-42.59-8.42Z" transform="translate(-13.49 27.89)"/></g><g id="Layer_31" data-name="Layer 31"><path d="M281,1,523.51,141V421L281,561,38.49,421V141L281,1m0-28.87-12.5,7.21L26,119.34l-12.5,7.21v308.9L26,442.66l242.51,140,12.5,7.21,12.5-7.21L536,442.66l12.5-7.21V126.55L536,119.34,293.5-20.68,281-27.89Z" transform="translate(-13.49 27.89)"/></g></svg>