<svg xmlns="http://www.w3.org/2000/svg" viewBox="0 0 535.02 617.78"><g id="WALKING_ARMORY_" data-name="WALKING ARMORY  
"><polygon points="107.59 178.4 207.54 178.4 207.54 238.37 197.54 238.37 197.54 218.38 179.77 218.38 157.56 268.36 107.59 268.36 107.59 178.4"/><polygon points="217.53 198.39 217.53 178.4 377.46 178.4 387.45 168.4 427.43 168.4 427.43 198.39 217.53 198.39"/><g id="Layer_45" data-name="Layer 45"><rect x="148.17" y="337.71" width="23.77" height="7.92"/><rect x="148.17" y="337.71" width="7.92" height="23.77"/><path d="M333,348.78h26v-6H333Z" transform="translate(-13.49 27.89)"/><path d="M333,338.79h26v-6H333Z" transform="translate(-13.49 27.89)"/><path d="M333,328.79h26v-6H333Z" transform="translate(-13.49 27.89)"/><path d="M333,318.8h26v-6H333Z" transform="translate(-13.49 27.89)"/><path d="M333,308.8h26v-6H333Z" transform="translate(-13.49 27.89)"/><path d="M333,298.81h26v-6H333Z" transform="translate(-13.49 27.89)"/><path d="M277.74,252.46H235.28l22-44H290.5V239.7A12.78,12.78,0,0,1,277.74,252.46Zm-36-4h36a8.77,8.77,0,0,0,8.76-8.76V212.48H259.75Z" transform="translate(-13.49 27.89)"/><rect x="287.5" y="148.41" width="39.98" height="19.99"/><path d="M333,288.44h26v-6H333Z" transform="translate(-13.49 27.89)"/><path d="M333,278.44h26v-6H333Z" transform="translate(-13.49 27.89)"/><path d="M333,268.45h26v-6H333Z" transform="translate(-13.49 27.89)"/><path d="M333,258.45h26v-6H333Z" transform="translate(-13.49 27.89)"/><path d="M333,248.46h26v-6H333Z" transform="translate(-13.49 27.89)"/><path d="M333,238.46h26v-6H333Z" transform="translate(-13.49 27.89)"/><path d="M333,228.47h26v-6H333Z" transform="translate(-13.49 27.89)"/><path d="M333,218.47h26v-6H333Z" transform="translate(-13.49 27.89)"/><path d="M333,208.48h26v-6H333Z" transform="translate(-13.49 27.89)"/><rect x="274.36" y="390.48" width="6.29" height="12.59"/><polygon points="217.53 208.38 217.53 234 194.26 280.2 229.05 280.2 250.02 238.37 307.09 238.37 307.49 268.36 315.43 268.36 315.43 226.37 349.48 226.37 349.48 268.36 357.46 268.36 357.46 238.37 409.08 238.37 412.44 248.37 427.43 248.37 427.43 208.38 217.53 208.38"/><polyline points="315.43 337.71 164.02 337.71 164.02 361.48 315.43 361.48"/><polygon points="315.43 314.57 308.39 308.94 209.49 308.94 176.33 342.1 183.4 349.17 213.63 318.94 304.88 318.94 315.43 327.38 315.43 314.57"/><polygon points="349.48 380.65 315.43 380.65 315.43 369.4 164.02 369.4 164.02 469.37 362.1 469.37 362.1 369.4 349.48 369.4 349.48 380.65"/><g id="Layer_49" data-name="Layer 49"><polygon points="349.48 361.48 349.48 337.71 378.2 337.71 378.2 362.38 370.27 362.38 370.27 345.63 362.1 345.63 362.1 361.48 349.48 361.48"/></g></g></g><g id="Layer_47" data-name="Layer 47"><path d="M281,1,523.51,141V421L281,561,38.49,421V141L281,1m0-28.87-12.5,7.21L26,119.34l-12.5,7.21v308.9L26,442.66l242.51,140,12.5,7.21,12.5-7.21L536,442.66l12.5-7.21V126.55L536,119.34,293.5-20.68,281-27.89Z" transform="translate(-13.49 27.89)"/></g></svg>