<?xml version="1.0" standalone="no"?>
<!DOCTYPE svg PUBLIC "-//W3C//DTD SVG 1.1//EN" "http://www.w3.org/Graphics/SVG/1.1/DTD/svg11.dtd" >
<svg xmlns="http://www.w3.org/2000/svg">
<metadata>Generated by IcoMoon</metadata>
<defs>
<font id="compcon" horiz-adv-x="1024">
<font-face units-per-em="1024" ascent="819.2" descent="-204.8" />
<missing-glyph horiz-adv-x="1024" />
<glyph unicode="&#x20;" horiz-adv-x="0" d="" />
<glyph unicode="&#x30;" glyph-name="interdiction" d="M512.44 782.812c-162.486 0.3-320.594-83.892-407.692-234.752-129.634-224.532-52.72-511.488 171.812-641.12 224.536-129.636 511.494-52.724 641.128 171.81s52.72 511.49-171.812 641.126c-73.676 42.536-154.088 62.79-233.44 62.936h0.004zM512.188 691.688c63.96-0.112 128.76-16.474 188.124-50.75 165.926-95.8 231.788-298.284 161-470.752l-493.312 493.314c45.632 18.62 94.644 28.274 144.188 28.188zM277.938 611.248l531.060-531.060c-19.1-24.454-40.764-46.080-64.44-64.626l-531.178 531.19c19.112 24.448 40.87 45.968 64.56 64.5zM161.124 456.688l493.375-493.375c-104.574-42.74-227.1-38.416-332.5 22.44-165.974 95.824-231.76 298.424-160.876 470.936z" />
<glyph unicode="&#x31;" glyph-name="rank-1" d="M510-110l330.6 167.999v692h-657.2v-692zM215.4 77.48v640.52h593.2v-640.48l-298.6-151.52zM508.52 143.679l-189.32 97.38v-100l189.080-97.24 196.54 99.78v99.8z" />
<glyph unicode="&#x32;" glyph-name="rank-2" d="M510-110l330.6 167.999v692h-657.2v-692zM215.4 77.48v640.52h593.2v-640.48l-298.6-151.52zM508.26 209l196.54 99.78v99.8l-196.28-99.64-189.32 97.38v-100zM508.52 143.679l-189.32 97.38v-100l189.080-97.24 196.54 99.78v99.8z" />
<glyph unicode="&#x33;" glyph-name="rank-3" d="M510-110l330.6 167.999v692h-657.2v-692zM215.4 77.48v640.52h593.2v-640.48l-298.6-151.52zM590.62 414.16l-29 92 77.6 57.46-96.54 0.86-30.68 91.64-30.66-91.56-96.54-0.86 77.6-57.46-29-92 78.62 56zM508.26 209l196.54 99.78v99.8l-196.28-99.64-189.32 97.38v-100zM508.52 143.679l-189.32 97.38v-100l189.080-97.24 196.54 99.78v99.8z" />
<glyph unicode="&#x40;" glyph-name="difficulty1" d="M0 661.333l170.666 170.667 853.333-0.001v-853.332l-170.667-170.666-853.332-0.001v853.333zM511.999 661.338l-295.599-170.666v-341.333l295.599-170.667 295.6 170.667v341.333zM511.999 582.538l227.333-131.266v-262.533l-227.333-131.267-227.333 131.267v262.533zM716.799 319.958c0 18.593-15.54 34.133-34.133 34.133h-341.291c-18.593 0-34.133-15.54-34.133-34.133s15.54-34.134 34.133-34.134h341.291c18.593 0 34.133 15.541 34.133 34.134z" />
<glyph unicode="&#x41;" glyph-name="advantage" d="M0 661.333l170.666 170.667 853.333-0.001v-853.332l-170.667-170.666-853.332-0.001v853.333zM511.999 661.338l-295.599-170.666v-341.333l295.599-170.667 295.6 170.667v341.333zM477.933 490.672h68.266v-136.6h136.533v-68.267h-136.533v-136.533h-68.266v136.533h-136.6v68.267h136.6v136.6z" />
<glyph unicode="&#x42;" glyph-name="aoe-blast" d="M0 661.333l170.666 170.667 853.331-0.001v-853.332l-170.665-170.666-853.332-0.001v853.333zM204.757 319.958c0 169.754 137.529 307.283 307.284 307.283 169.618 0 307.158-137.522 307.158-307.283 0-169.624-137.533-307.158-307.158-307.158-169.76 0-307.284 137.539-307.284 307.158zM136.491 319.958c0-207.325 168.114-375.424 375.55-375.424 207.319 0 375.424 168.104 375.424 375.424 0 207.435-168.098 375.55-375.424 375.55-207.441 0-375.55-168.108-375.55-375.55zM512.041 354.108c18.593 0 34.133 15.54 34.133 34.133v136.567c0 18.593-15.54 34.133-34.133 34.133s-34.133-15.54-34.133-34.133v-136.567c0-18.593 15.54-34.133 34.133-34.133zM512.041 81.1c18.593 0 34.133 15.541 34.133 34.134v136.44c0 18.593-15.54 34.134-34.133 34.134s-34.133-15.541-34.133-34.134v-136.44c0-18.593 15.54-34.134 34.133-34.134zM546.191 319.958c0-18.593 15.54-34.134 34.133-34.134h136.441c18.593 0 34.133 15.541 34.133 34.134s-15.54 34.133-34.133 34.133h-136.441c-18.593 0-34.133-15.54-34.133-34.133zM273.057 319.958c0-18.593 15.541-34.134 34.134-34.134h136.567c18.592 0 34.133 15.541 34.133 34.134s-15.541 34.133-34.133 34.133h-136.567c-18.593 0-34.134-15.54-34.134-34.133z" />
<glyph unicode="&#x43;" glyph-name="aoe-burst" d="M0 661.333l170.667 170.667 853.332-0.001v-853.332l-170.667-170.666-853.332-0.001v853.333zM204.842 319.959c0 169.76 137.538 307.284 307.157 307.284s307.158-137.523 307.158-307.284c0-169.624-137.533-307.158-307.158-307.158s-307.157 137.533-307.157 307.158zM136.575 319.959c0-207.319 168.104-375.424 375.424-375.424s375.425 168.104 375.425 375.424c0 207.436-168.099 375.55-375.425 375.55-207.325 0-375.424-168.114-375.424-375.55zM341.332 320.001l170.667-170.666 170.667 170.666-170.667 170.667z" />
<glyph unicode="&#x44;" glyph-name="aoe-cone" d="M0 661.333l170.667 170.667 853.332-0.001v-853.332l-170.666-170.666-853.333-0.001v853.333zM390.274 705.179l-32.974 8.837-200.757-749.473 749.473 200.757-8.837 32.974c-59.87 223.41-283.483 447.031-506.905 506.905zM405.261 629.226c193.020-71.585 352.068-243.673 415.966-415.966l-568.153-152.187z" />
<glyph unicode="&#x45;" glyph-name="aoe-line" d="M0 661.333l170.667 170.667 853.332-0.001v-853.332l-170.666-170.666-853.333-0.001v853.333zM640.673 593.415l-508.407-508.141 48.4-48.4 556.34 556.541h-96.333zM784.383 545.148l-555.451-556.541 48.2-48.266 507.251 508.007v96.8zM580.283 661.251v-68.284h204.85v-204.599h68.283v272.883h-273.133z" />
<glyph unicode="&#x46;" glyph-name="energy-damage" d="M0 661.333l170.666 170.667 853.333-0.001v-853.332l-170.667-170.666-853.332-0.001v853.333zM580.266 729.599l-341.333-477.867 273.066 0.002-68.266-341.334 341.333 477.865-273.067 0.001z" />
<glyph unicode="&#x47;" glyph-name="burn-damage" d="M0 661.333l170.667 170.667 853.331-0.001v-853.332l-170.667-170.666-853.331-0.001v853.333zM546.132 729.605c0 0-138.085-139.638-170.666-204.8-34.133-68.266-21.063-81.165-34.133-136.533-23.381-99.043-102.4-102.4-102.4-238.933 0-100.116 70.485-153.047 142.533-179.866-23.796 21.78-40.133 48.105-40.133 77.466 0 72.853 136.533 204.8 136.533 204.8s213.73-116.387 204.8-204.8c-2.045-20.257-11.122-40.277-24-58.733 66.011 33.89 126.399 87.101 126.399 161.133 0 204.8-102.399 307.2-102.399 307.2s36.189-139.965-34.134-136.533c-34.014 1.659-47.853 61.572-68.266 102.4-34.134 68.267-68.267 68.266-68.267 136.533 0 102.4 34.133 170.666 34.133 170.666z" />
<glyph unicode="&#x48;" glyph-name="explosive-damage" d="M0 661.333l170.666 170.667 853.333-0.001v-853.332l-170.667-170.666-853.332-0.001v853.333zM511.999 695.473l-54.666-246.133-150.134 75.461 75.467-150.127-246.133-54.667 246.133-54.666-75.467-150.139 150.134 75.472 54.666-246.133 54.667 246.133 150.133-75.472-75.467 150.139 246.133 54.666-246.133 54.667 75.467 150.127-150.133-75.461z" />
<glyph unicode="&#x49;" glyph-name="heat-damage" d="M0 661.333l170.667 170.667 853.332-0.001v-853.332l-170.666-170.666-853.333-0.001v853.333zM512.001 729.607c-56.73 0-102.4-45.67-102.4-102.4v-409.866c-37.61-28.207-68.194-89.254-68.267-136.267v0c0-94.208 76.459-170.666 170.667-170.666s170.666 76.458 170.666 170.666v0c-0.073 47.013-30.657 108.060-68.267 136.267v409.866c0 56.73-45.67 102.4-102.399 102.4zM477.867 422.407h68.267v-244.933c37.627-13.303 68.21-56.49 68.266-96.4 0-56.524-45.875-102.399-102.399-102.399v0c-56.525 0-102.4 45.875-102.4 102.399 0.056 39.91 30.639 83.097 68.266 96.4v244.933zM682.666 320.004h136.533v68.269h-136.533v-68.269zM682.669 490.667h136.533v68.269h-136.533v-68.269z" />
<glyph unicode="&#x4a;" glyph-name="kinetic-damage" d="M0 661.333l170.666 170.667 853.333-0.001v-853.332l-170.667-170.666-853.332-0.001v853.333zM170.666-21.333c273.067 170.667 512 409.599 682.666 682.666-273.066-170.667-511.999-409.599-682.666-682.666zM341.324 320.042c0 94.145 76.421 170.591 170.717 170.591 94.155 0 170.591-76.436 170.591-170.591 0-94.297-76.446-170.717-170.591-170.717-94.287 0-170.717 76.43-170.717 170.717zM273.058 320.042c0-131.98 107.003-238.983 238.983-238.983 131.871 0 238.858 107.013 238.858 238.983 0 131.862-106.997 238.858-238.858 238.858-131.97 0-238.983-106.986-238.983-238.858z" />
<glyph unicode="&#x4b;" glyph-name="difficulty" d="M0 661.333l170.666 170.667 853.333-0.001v-853.332l-170.667-170.666-853.332-0.001v853.333zM511.999 661.338l-295.599-170.666v-341.333l295.599-170.667 295.6 170.667v341.333zM511.999 582.538l227.333-131.266v-262.533l-227.333-131.267-227.333 131.267v262.533zM716.799 319.958c0 18.593-15.54 34.133-34.133 34.133h-341.291c-18.593 0-34.133-15.54-34.133-34.133s15.54-34.134 34.133-34.134h341.291c18.593 0 34.133 15.541 34.133 34.134z" />
<glyph unicode="&#x4c;" glyph-name="melee" d="M0 661.333l170.667 170.667 853.332-0.001v-853.332l-170.666-170.666-853.333-0.001v853.333zM853.332 661.34l-170.666-68.267-307.2-307.2 102.4-102.4 307.2 307.2zM602.266 434.473l24.2-24.2-170.6-170.533-24.133 24.133zM214.814 22.816c13.147-13.147 35.125-13.147 48.272 0l204.724 204.724c13.147 13.147 13.147 35.124 0 48.272s-35.124 13.147-48.272 0l-204.724-204.725c-13.147-13.147-13.147-35.124 0-48.271zM317.239 344.095c-13.147-13.147-13.147-35.125 0-48.272l170.583-170.582c13.147-13.147 35.124-13.147 48.272 0s13.147 35.124 0 48.272l-170.583 170.582c-13.147 13.147-35.125 13.147-48.272 0z" />
<glyph unicode="&#x4d;" glyph-name="pilot" d="M0 661.333l170.666 170.667 853.333-0.001v-853.332l-170.667-170.666-853.332-0.001v853.333zM358.399 371.205v-37.4c-15.3-8.295-31.715-17.877-51.2-30.867-34.133-136.533-68.266-196.38-68.266-255.999 28.374-11.35 57.92-20.091 87.866-27.667l19.801 75.4c67.369-17.316 163.911-27.39 211.799-24.267l80.133-63.667c50.435 8.457 99.814 21.513 146.534 40.201 0 58.317-34.134 119.466-68.267 255.999-19.434 12.957-35.852 22.576-51.2 30.867v37.4h-39.333c-29.089-32.522-70.635-51.137-114.267-51.2-43.632 0.068-85.178 18.678-114.266 51.2h-39.334zM614.399 268.271l68.267-68.266-68.267-68.267-68.266 68.267zM392.533 507.735c0-65.979 53.487-119.466 119.466-119.466s119.467 53.487 119.467 119.466c0 65.98-53.487 119.467-119.467 119.467-65.979 0-119.466-53.487-119.466-119.467z" />
<glyph unicode="&#x4e;" glyph-name="range" d="M0 661.333l170.667 170.667 853.332-0.001v-853.332l-170.666-170.666-853.333-0.001v853.333zM297.186-79.609c13.147 13.147 13.147 35.124 0 48.271l-136.567 136.567c-13.147 13.147-35.125 13.147-48.272 0s-13.147-35.125 0-48.272l136.567-136.566c13.147-13.148 35.125-13.148 48.272 0zM911.61 534.815c13.147 13.147 13.147 35.125 0 48.272l-136.566 136.567c-13.148 13.147-35.125 13.147-48.272 0s-13.147-35.125 0-48.272l136.567-136.567c13.147-13.147 35.124-13.147 48.271 0zM180.631-11.326c13.147-13.147 35.124-13.147 48.272 0l614.424 614.424c13.147 13.148 13.147 35.125 0 48.272s-35.125 13.147-48.272 0l-614.424-614.424c-13.147-13.147-13.147-35.125 0-48.272zM434.615 397.386c-13.147-13.147-13.147-35.124 0-48.272l106.456-106.456c13.147-13.147 35.125-13.147 48.272 0s13.147 35.125 0 48.272l-106.457 106.456c-13.147 13.147-35.124 13.147-48.271 0z" />
<glyph unicode="&#x4f;" glyph-name="reactor-stress" d="M0 661.333l170.666 170.667 853.333-0.001v-853.332l-170.667-170.666-853.332-0.001v853.333zM238.941 320.001c0 150.846 122.28 273.016 273.016 273.016 150.873 0 273.142-122.175 273.142-273.016s-122.268-273.016-273.142-273.016c-150.735 0-273.016 122.168-273.016 273.016zM170.675 320.001c0-188.554 152.869-341.283 341.282-341.283 188.528 0 341.409 152.722 341.409 341.283s-152.88 341.282-341.409 341.282c-188.412 0-341.282-152.728-341.282-341.282zM614.399 320.006c-0.038-32.619-23.005-72.311-51.266-88.6l51.266-88.8c56.525 32.635 102.4 112.093 102.4 177.362v0.038h-102.4zM307.2 320.006v-0.038c0-65.269 45.875-144.727 102.399-177.362l51.267 88.8c-28.261 16.289-51.229 55.981-51.267 88.6h-102.399zM507.199 524.739c-28.869-0.681-72.594-12.956-97.6-27.4l51.267-88.8c13.088 7.607 35.996 13.819 51.133 13.867 15.133-0.031 38.041-6.213 51.134-13.8l51.266 88.733c-26.24 15.156-72.128 27.456-102.43 27.456-1.317 0-3.453-0.025-4.77-0.056zM477.866 320.001c0-18.852 15.282-34.134 34.134-34.134 18.851 0 34.133 15.282 34.133 34.134s-15.282 34.133-34.133 34.133c-18.852 0-34.134-15.282-34.134-34.133z" />
<glyph unicode="&#x50;" glyph-name="structure" d="M0 661.333l170.666 170.667 853.333-0.001v-853.332l-170.667-170.666-853.332-0.001v853.333zM146.493 344.141c-10.377-10.374-14.609-33.677 0-48.281l341.417-341.291c12.086-12.081 34.555-13.708 48.267 0.005l341.291 341.291c10.359 10.359 14.61 33.662 0 48.272l-341.291 341.29c-12.083 12.084-34.552 13.715-48.267 0.005zM218.905 320.001l293.132 293.023 293.023-293.023-293.023-293.024zM511.999 524.8l-34.133-34.132v-341.334l34.133-34.133 34.133 34.133v341.334zM716.799 320.001l-34.133 34.133h-341.334l-34.133-34.133 34.133-34.133h341.334z" />
<glyph unicode="&#x51;" glyph-name="threat" d="M0 661.333l170.666 170.667 853.333-0.001v-853.332l-170.667-170.666-853.332-0.001v853.333zM365.416-11.337c13.153 13.141 13.163 35.118 0.022 48.272l-136.441 136.566c-13.141 13.154-35.118 13.164-48.272 0.023-13.153-13.141-13.163-35.119-0.022-48.272l136.441-136.567c13.141-13.153 35.118-13.163 48.272-0.022zM843.273 466.521c13.154 13.141 13.164 35.118 0.023 48.271l-136.441 136.567c-13.141 13.153-35.119 13.163-48.272 0.022s-13.163-35.118-0.022-48.271l136.441-136.567c13.141-13.153 35.118-13.164 48.271-0.022zM248.868 56.961c13.146-13.149 35.123-13.152 48.272-0.007l477.984 477.858c13.149 13.145 13.152 35.123 0.006 48.272-13.145 13.148-35.123 13.151-48.272 0.006l-477.983-477.858c-13.149-13.145-13.152-35.123-0.007-48.271zM248.868 583.084c-13.145-13.149-13.142-35.127 0.007-48.272l477.983-477.858c13.149-13.145 35.127-13.142 48.272 0.007 13.146 13.148 13.143 35.126-0.006 48.271l-477.984 477.858c-13.149 13.145-35.126 13.142-48.272-0.006zM658.583-11.337c13.153-13.141 35.131-13.131 48.272 0.022l136.441 136.567c13.141 13.153 13.131 35.131-0.023 48.272s-35.13 13.131-48.271-0.023l-136.441-136.566c-13.141-13.154-13.131-35.131 0.022-48.272zM180.725 466.521c13.154-13.142 35.131-13.131 48.272 0.022l136.441 136.567c13.141 13.153 13.131 35.13-0.022 48.271-13.154 13.141-35.131 13.131-48.272-0.022l-136.441-136.567c-13.141-13.153-13.131-35.13 0.022-48.271zM341.333 320.001l170.666-170.666 170.667 170.666-170.667 170.667z" />
<glyph unicode="&#x52;" glyph-name="thrown" d="M0 661.333l170.666 170.667 853.333-0.001v-853.332l-170.667-170.666-853.332-0.001v853.333zM512.002 490.668c0-94.256 76.41-170.665 170.665-170.665s170.665 76.409 170.665 170.665-76.409 170.664-170.665 170.664c-94.255 0-170.665-76.409-170.665-170.664zM146.489-45.468c13.147-13.147 35.124-13.147 48.271 0l512 512c13.147 13.147 13.147 35.124 0 48.271-13.147 13.148-35.125 13.148-48.272 0l-511.999-511.999c-13.148-13.147-13.148-35.125 0-48.272z" />
<glyph unicode="&#x60;" glyph-name="difficulty-outline" d="M511.999 661.338l-295.599-170.666v-341.333l295.599-170.667 295.6 170.667v341.333zM511.999 582.538l227.333-131.266v-262.533l-227.333-131.267-227.333 131.267v262.533zM716.799 319.958c0 18.593-15.54 34.133-34.133 34.133h-341.291c-18.593 0-34.133-15.54-34.133-34.133s15.54-34.134 34.133-34.134h341.291c18.593 0 34.133 15.541 34.133 34.134z" />
<glyph unicode="&#x61;" glyph-name="accuracy-outline" d="M511.999 661.338l-295.599-170.666v-341.333l295.599-170.667 295.6 170.667v341.333zM477.933 490.672h68.266v-136.6h136.533v-68.267h-136.533v-136.533h-68.266v136.533h-136.6v68.267h136.6v136.6z" />
<glyph unicode="&#x62;" glyph-name="aoe-blast-outline" d="M204.757 319.958c0 169.754 137.529 307.283 307.284 307.283 169.618 0 307.158-137.522 307.158-307.283 0-169.624-137.533-307.158-307.158-307.158-169.76 0-307.284 137.539-307.284 307.158zM136.491 319.958c0-207.325 168.114-375.424 375.55-375.424 207.319 0 375.424 168.104 375.424 375.424 0 207.435-168.098 375.55-375.424 375.55-207.441 0-375.55-168.108-375.55-375.55zM512.041 354.108c18.593 0 34.133 15.54 34.133 34.133v136.567c0 18.593-15.54 34.133-34.133 34.133s-34.133-15.54-34.133-34.133v-136.567c0-18.593 15.54-34.133 34.133-34.133zM512.041 81.1c18.593 0 34.133 15.541 34.133 34.134v136.44c0 18.593-15.54 34.134-34.133 34.134s-34.133-15.541-34.133-34.134v-136.44c0-18.593 15.54-34.134 34.133-34.134zM546.191 319.958c0-18.593 15.54-34.134 34.133-34.134h136.441c18.593 0 34.133 15.541 34.133 34.134s-15.54 34.133-34.133 34.133h-136.441c-18.593 0-34.133-15.54-34.133-34.133zM273.057 319.958c0-18.593 15.541-34.134 34.134-34.134h136.567c18.592 0 34.133 15.541 34.133 34.134s-15.541 34.133-34.133 34.133h-136.567c-18.593 0-34.134-15.54-34.134-34.133z" />
<glyph unicode="&#x63;" glyph-name="aoe-burst-outline" d="M204.842 319.959c0 169.76 137.538 307.284 307.157 307.284s307.158-137.523 307.158-307.284c0-169.624-137.533-307.158-307.158-307.158s-307.157 137.533-307.157 307.158zM136.575 319.959c0-207.319 168.104-375.424 375.424-375.424s375.425 168.104 375.425 375.424c0 207.436-168.099 375.55-375.425 375.55-207.325 0-375.424-168.114-375.424-375.55zM341.332 320.001l170.667-170.666 170.667 170.666-170.667 170.667z" />
<glyph unicode="&#x64;" glyph-name="aoe-cone-outline" d="M390.274 705.179l-32.974 8.837-200.757-749.473 749.473 200.757-8.837 32.974c-59.87 223.41-283.483 447.031-506.905 506.905zM405.261 629.226c193.020-71.585 352.068-243.673 415.966-415.966l-568.153-152.187z" />
<glyph unicode="&#x65;" glyph-name="aoe-line-outline" d="M640.673 593.415l-508.407-508.141 48.4-48.4 556.34 556.541h-96.333zM784.383 545.148l-555.451-556.541 48.2-48.266 507.251 508.007v96.8zM580.283 661.251v-68.284h204.85v-204.599h68.283v272.883h-273.133z" />
<glyph unicode="&#x66;" glyph-name="energy-damage-outline" d="M580.266 729.599l-341.333-477.867 273.066 0.002-68.266-341.334 341.333 477.865-273.067 0.001z" />
<glyph unicode="&#x67;" glyph-name="burn-damage-outline" d="M546.132 729.605c0 0-138.085-139.638-170.666-204.8-34.133-68.266-21.063-81.165-34.133-136.533-23.381-99.043-102.4-102.4-102.4-238.933 0-100.116 70.485-153.047 142.533-179.866-23.796 21.78-40.133 48.105-40.133 77.466 0 72.853 136.533 204.8 136.533 204.8s213.73-116.387 204.8-204.8c-2.045-20.257-11.122-40.277-24-58.733 66.011 33.89 126.399 87.101 126.399 161.133 0 204.8-102.399 307.2-102.399 307.2s36.189-139.965-34.134-136.533c-34.014 1.659-47.853 61.572-68.266 102.4-34.134 68.267-68.267 68.266-68.267 136.533 0 102.4 34.133 170.666 34.133 170.666z" />
<glyph unicode="&#x68;" glyph-name="explosive-damage-outline" d="M511.999 695.473l-54.666-246.133-150.134 75.461 75.467-150.127-246.133-54.667 246.133-54.666-75.467-150.139 150.134 75.472 54.666-246.133 54.667 246.133 150.133-75.472-75.467 150.139 246.133 54.666-246.133 54.667 75.467 150.127-150.133-75.461z" />
<glyph unicode="&#x69;" glyph-name="heat-damage-outline" d="M512.001 729.607c-56.73 0-102.4-45.67-102.4-102.4v-409.866c-37.61-28.207-68.194-89.254-68.267-136.267v0c0-94.208 76.459-170.666 170.667-170.666s170.666 76.458 170.666 170.666v0c-0.073 47.013-30.657 108.060-68.267 136.267v409.866c0 56.73-45.67 102.4-102.399 102.4zM477.867 422.407h68.267v-244.933c37.627-13.303 68.21-56.49 68.266-96.4 0-56.524-45.875-102.399-102.399-102.399v0c-56.525 0-102.4 45.875-102.4 102.399 0.056 39.91 30.639 83.097 68.266 96.4v244.933zM682.666 320.004h136.533v68.269h-136.533v-68.269zM682.669 490.667h136.533v68.269h-136.533v-68.269z" />
<glyph unicode="&#x6a;" glyph-name="kinetic-damage-outline" d="M170.666-21.333c273.067 170.667 512 409.599 682.666 682.666-273.066-170.667-511.999-409.599-682.666-682.666zM341.324 320.042c0 94.145 76.421 170.591 170.717 170.591 94.155 0 170.591-76.436 170.591-170.591 0-94.297-76.446-170.717-170.591-170.717-94.287 0-170.717 76.43-170.717 170.717zM273.058 320.042c0-131.98 107.003-238.983 238.983-238.983 131.871 0 238.858 107.013 238.858 238.983 0 131.862-106.997 238.858-238.858 238.858-131.97 0-238.983-106.986-238.983-238.858z" />
<glyph unicode="&#x6b;" glyph-name="difficulty-outline1" d="M511.999 661.338l-295.599-170.666v-341.333l295.599-170.667 295.6 170.667v341.333zM511.999 582.538l227.333-131.266v-262.533l-227.333-131.267-227.333 131.267v262.533zM716.799 319.958c0 18.593-15.54 34.133-34.133 34.133h-341.291c-18.593 0-34.133-15.54-34.133-34.133s15.54-34.134 34.133-34.134h341.291c18.593 0 34.133 15.541 34.133 34.134z" />
<glyph unicode="&#x6c;" glyph-name="melee-outline" d="M853.332 661.34l-170.666-68.267-307.2-307.2 102.4-102.4 307.2 307.2zM602.266 434.473l24.2-24.2-170.6-170.533-24.133 24.133zM214.814 22.816c13.147-13.147 35.125-13.147 48.272 0l204.724 204.724c13.147 13.147 13.147 35.124 0 48.272s-35.124 13.147-48.272 0l-204.724-204.725c-13.147-13.147-13.147-35.124 0-48.271zM317.239 344.095c-13.147-13.147-13.147-35.125 0-48.272l170.583-170.582c13.147-13.147 35.124-13.147 48.272 0s13.147 35.124 0 48.272l-170.583 170.582c-13.147 13.147-35.125 13.147-48.272 0z" />
<glyph unicode="&#x6d;" glyph-name="pilot-outline" d="M358.399 371.205v-37.4c-15.3-8.295-31.715-17.877-51.2-30.867-34.133-136.533-68.266-196.38-68.266-255.999 28.374-11.35 57.92-20.091 87.866-27.667l19.801 75.4c67.369-17.316 163.911-27.39 211.799-24.267l80.133-63.667c50.435 8.457 99.814 21.513 146.534 40.201 0 58.317-34.134 119.466-68.267 255.999-19.434 12.957-35.852 22.576-51.2 30.867v37.4h-39.333c-29.089-32.522-70.635-51.137-114.267-51.2-43.632 0.068-85.178 18.678-114.266 51.2h-39.334zM614.399 268.271l68.267-68.266-68.267-68.267-68.266 68.267zM392.533 507.735c0-65.979 53.487-119.466 119.466-119.466s119.467 53.487 119.467 119.466c0 65.98-53.487 119.467-119.467 119.467-65.979 0-119.466-53.487-119.466-119.467z" />
<glyph unicode="&#x6e;" glyph-name="range-outline" d="M297.186-79.609c13.147 13.147 13.147 35.124 0 48.271l-136.567 136.567c-13.147 13.147-35.125 13.147-48.272 0s-13.147-35.125 0-48.272l136.567-136.566c13.147-13.148 35.125-13.148 48.272 0zM911.61 534.815c13.147 13.147 13.147 35.125 0 48.272l-136.566 136.567c-13.148 13.147-35.125 13.147-48.272 0s-13.147-35.125 0-48.272l136.567-136.567c13.147-13.147 35.124-13.147 48.271 0zM180.631-11.326c13.147-13.147 35.124-13.147 48.272 0l614.424 614.424c13.147 13.148 13.147 35.125 0 48.272s-35.125 13.147-48.272 0l-614.424-614.424c-13.147-13.147-13.147-35.125 0-48.272zM434.615 397.386c-13.147-13.147-13.147-35.124 0-48.272l106.456-106.456c13.147-13.147 35.125-13.147 48.272 0s13.147 35.125 0 48.272l-106.457 106.456c-13.147 13.147-35.124 13.147-48.271 0z" />
<glyph unicode="&#x6f;" glyph-name="reactor-stress-outline" d="M238.941 320.001c0 150.846 122.28 273.016 273.016 273.016 150.873 0 273.142-122.175 273.142-273.016s-122.268-273.016-273.142-273.016c-150.735 0-273.016 122.168-273.016 273.016zM170.675 320.001c0-188.554 152.869-341.283 341.282-341.283 188.528 0 341.409 152.722 341.409 341.283s-152.88 341.282-341.409 341.282c-188.412 0-341.282-152.728-341.282-341.282zM614.399 320.006c-0.038-32.619-23.005-72.311-51.266-88.6l51.266-88.8c56.525 32.635 102.4 112.093 102.4 177.362v0.038h-102.4zM307.2 320.006v-0.038c0-65.269 45.875-144.727 102.399-177.362l51.267 88.8c-28.261 16.289-51.229 55.981-51.267 88.6h-102.399zM507.199 524.739c-28.869-0.681-72.594-12.956-97.6-27.4l51.267-88.8c13.088 7.607 35.996 13.819 51.133 13.867 15.133-0.031 38.041-6.213 51.134-13.8l51.266 88.733c-26.24 15.156-72.128 27.456-102.43 27.456-1.317 0-3.453-0.025-4.77-0.056zM477.866 320.001c0-18.852 15.282-34.134 34.134-34.134 18.851 0 34.133 15.282 34.133 34.134s-15.282 34.133-34.133 34.133c-18.852 0-34.134-15.282-34.134-34.133z" />
<glyph unicode="&#x70;" glyph-name="structure-outline" d="M146.493 344.141c-10.377-10.374-14.609-33.677 0-48.281l341.417-341.291c12.086-12.081 34.555-13.708 48.267 0.005l341.291 341.291c10.359 10.359 14.61 33.662 0 48.272l-341.291 341.29c-12.083 12.084-34.552 13.715-48.267 0.005zM218.905 320.001l293.132 293.023 293.023-293.023-293.023-293.024zM511.999 524.8l-34.133-34.132v-341.334l34.133-34.133 34.133 34.133v341.334zM716.799 320.001l-34.133 34.133h-341.334l-34.133-34.133 34.133-34.133h341.334z" />
<glyph unicode="&#x71;" glyph-name="threat-outline" d="M365.416-11.337c13.153 13.141 13.163 35.118 0.022 48.272l-136.441 136.566c-13.141 13.154-35.118 13.164-48.272 0.023-13.153-13.141-13.163-35.119-0.022-48.272l136.441-136.567c13.141-13.153 35.118-13.163 48.272-0.022zM843.273 466.521c13.154 13.141 13.164 35.118 0.023 48.271l-136.441 136.567c-13.141 13.153-35.119 13.163-48.272 0.022s-13.163-35.118-0.022-48.271l136.441-136.567c13.141-13.153 35.118-13.164 48.271-0.022zM248.868 56.961c13.146-13.149 35.123-13.152 48.272-0.007l477.984 477.858c13.149 13.145 13.152 35.123 0.006 48.272-13.145 13.148-35.123 13.151-48.272 0.006l-477.983-477.858c-13.149-13.145-13.152-35.123-0.007-48.271zM248.868 583.084c-13.145-13.149-13.142-35.127 0.007-48.272l477.983-477.858c13.149-13.145 35.127-13.142 48.272 0.007 13.146 13.148 13.143 35.126-0.006 48.271l-477.984 477.858c-13.149 13.145-35.126 13.142-48.272-0.006zM658.583-11.337c13.153-13.141 35.131-13.131 48.272 0.022l136.441 136.567c13.141 13.153 13.131 35.131-0.023 48.272s-35.13 13.131-48.271-0.023l-136.441-136.566c-13.141-13.154-13.131-35.131 0.022-48.272zM180.725 466.521c13.154-13.142 35.131-13.131 48.272 0.022l136.441 136.567c13.141 13.153 13.131 35.13-0.022 48.271-13.154 13.141-35.131 13.131-48.272-0.022l-136.441-136.567c-13.141-13.153-13.131-35.13 0.022-48.271zM341.333 320.001l170.666-170.666 170.667 170.666-170.667 170.667z" />
<glyph unicode="&#x72;" glyph-name="thrown-outline" d="M512.002 490.668c0-94.256 76.41-170.665 170.665-170.665s170.665 76.409 170.665 170.665-76.409 170.664-170.665 170.664c-94.255 0-170.665-76.409-170.665-170.664zM146.489-45.468c13.147-13.147 35.124-13.147 48.271 0l512 512c13.147 13.147 13.147 35.124 0 48.271-13.147 13.148-35.125 13.148-48.272 0l-511.999-511.999c-13.148-13.147-13.148-35.125 0-48.272z" />
<glyph unicode="&#xe900;" glyph-name="frame-outline" d="M443.733-21.333h-68.267v307.198h34.133v-68.266l34.133-34.133zM443.733 661.338l-34.133-68.267h-170.666v-68.267l136.533-34.133v-102.4l68.267-34.133 34.133-102.4h68.267l34.133 102.4 68.267 34.133v102.4l136.533 34.133v68.267h-170.666l-34.133 68.267zM511.999 593.071l68.267-68.267-68.267-68.267-68.267 68.267zM580.266-21.333h68.267v307.2h-34.133v-68.267l-34.133-34.133zM785.066 456.538l-68.267-17.067v-221.866l68.267 34.133zM238.933 456.532l68.266-17.066v-221.866l-68.266 34.133z" />
<glyph unicode="&#xe901;" d="M0 661.333l170.666 170.667 853.332-0.001v-853.332l-170.666-170.666-853.332-0.001z" />
<glyph unicode="&#xe902;" d="M443.733-21.333h-68.267v307.198h34.133v-68.266l34.133-34.133z" />
<glyph unicode="&#xe903;" d="M443.733 661.338l-34.133-68.267h-170.666v-68.267l136.533-34.133v-102.4l68.267-34.133 34.133-102.4h68.267l34.133 102.4 68.267 34.133v102.4l136.533 34.133v68.267h-170.666l-34.133 68.267zM511.999 593.071l68.267-68.267-68.267-68.267-68.267 68.267z" />
<glyph unicode="&#xe904;" d="M580.266-21.333h68.267v307.2h-34.133v-68.267l-34.133-34.133z" />
<glyph unicode="&#xe905;" d="M785.066 456.538l-68.267-17.067v-221.866l68.267 34.133z" />
<glyph unicode="&#xe906;" d="M238.933 456.532l68.266-17.066v-221.866l-68.266 34.133z" />
</font>
</defs>
</svg>
