<?xml version="1.0" encoding="UTF-8"?>
<svg xmlns="http://www.w3.org/2000/svg" xmlns:xlink="http://www.w3.org/1999/xlink" viewBox="0 0 64 64" version="1.1" width="50px" height="50px">
<g id="surface1">
<path style=" " d="M 32 2 C 15.457031 2 2 15.457031 2 32 C 2 48.542969 15.457031 62 32 62 C 48.542969 62 62 48.542969 62 32 C 62 15.457031 48.542969 2 32 2 Z M 32 4 C 47.4375 4 60 16.5625 60 32 C 60 47.4375 47.4375 60 32 60 C 16.5625 60 4 47.4375 4 32 C 4 16.5625 16.5625 4 32 4 Z M 20.445313 15.613281 C 19.933594 15.613281 19.417969 15.8125 19.03125 16.203125 L 16.203125 19.03125 C 15.421875 19.808594 15.421875 21.078125 16.203125 21.859375 L 26.34375 32 L 16.203125 42.140625 C 15.421875 42.921875 15.421875 44.191406 16.203125 44.96875 L 19.03125 47.796875 C 19.808594 48.578125 21.078125 48.578125 21.859375 47.796875 L 32 37.65625 L 42.140625 47.796875 C 42.53125 48.1875 43.042969 48.386719 43.558594 48.386719 C 44.070313 48.386719 44.582031 48.1875 44.96875 47.796875 L 47.796875 44.96875 C 48.578125 44.191406 48.578125 42.921875 47.796875 42.140625 L 37.65625 32 L 47.796875 21.859375 C 48.578125 21.078125 48.578125 19.808594 47.796875 19.03125 L 44.96875 16.203125 C 44.191406 15.421875 42.921875 15.421875 42.140625 16.203125 L 32 26.34375 L 21.859375 16.203125 C 21.46875 15.8125 20.957031 15.613281 20.445313 15.613281 Z M 20.441406 17.613281 L 32 29.171875 L 43.558594 17.613281 L 46.386719 20.441406 L 34.828125 32 L 46.386719 43.558594 L 43.558594 46.386719 L 32 34.828125 L 20.441406 46.386719 L 17.613281 43.558594 L 29.171875 32 L 17.613281 20.441406 Z M 49.675781 23.21875 C 49.421875 23.21875 49.167969 23.316406 48.96875 23.515625 C 48.578125 23.902344 48.578125 24.535156 48.96875 24.925781 L 50.386719 26.34375 C 50.578125 26.539063 50.835938 26.636719 51.09375 26.636719 C 51.347656 26.636719 51.605469 26.539063 51.796875 26.34375 C 52.1875 25.953125 52.1875 25.320313 51.796875 24.929688 L 50.386719 23.515625 C 50.1875 23.316406 49.933594 23.21875 49.675781 23.21875 Z M 46.140625 26.753906 C 45.886719 26.753906 45.632813 26.855469 45.4375 27.050781 C 45.042969 27.441406 45.042969 28.074219 45.4375 28.464844 L 46.847656 29.878906 C 47.042969 30.074219 47.300781 30.171875 47.558594 30.171875 C 47.8125 30.171875 48.070313 30.074219 48.265625 29.878906 C 48.65625 29.488281 48.65625 28.855469 48.265625 28.464844 L 46.847656 27.050781 C 46.652344 26.855469 46.398438 26.753906 46.140625 26.753906 Z M 19.980469 30.292969 C 19.722656 30.292969 19.464844 30.390625 19.269531 30.585938 C 18.878906 30.976563 18.878906 31.609375 19.269531 32 L 20.6875 33.414063 C 20.882813 33.609375 21.136719 33.707031 21.394531 33.707031 C 21.652344 33.707031 21.90625 33.609375 22.101563 33.414063 C 22.492188 33.023438 22.492188 32.390625 22.101563 32 L 20.6875 30.585938 C 20.488281 30.390625 20.234375 30.292969 19.980469 30.292969 Z M 42.605469 30.292969 C 42.347656 30.292969 42.09375 30.390625 41.898438 30.585938 C 41.507813 30.976563 41.507813 31.609375 41.898438 32 L 43.3125 33.414063 C 43.507813 33.609375 43.765625 33.707031 44.019531 33.707031 C 44.277344 33.707031 44.535156 33.609375 44.730469 33.414063 C 45.121094 33.023438 45.121094 32.390625 44.730469 32 L 43.3125 30.585938 C 43.117188 30.390625 42.863281 30.292969 42.605469 30.292969 Z M 16.441406 33.828125 C 16.1875 33.828125 15.933594 33.925781 15.734375 34.121094 C 15.34375 34.511719 15.34375 35.144531 15.734375 35.535156 L 17.152344 36.949219 C 17.34375 37.144531 17.601563 37.242188 17.859375 37.242188 C 18.113281 37.242188 18.371094 37.144531 18.5625 36.949219 C 18.957031 36.558594 18.957031 35.925781 18.5625 35.535156 L 17.152344 34.121094 C 16.953125 33.925781 16.699219 33.828125 16.441406 33.828125 Z M 12.90625 37.363281 C 12.652344 37.363281 12.398438 37.460938 12.203125 37.65625 C 11.808594 38.046875 11.808594 38.679688 12.203125 39.070313 L 13.613281 40.484375 C 13.808594 40.679688 14.066406 40.78125 14.324219 40.78125 C 14.578125 40.78125 14.835938 40.679688 15.03125 40.484375 C 15.421875 40.097656 15.421875 39.464844 15.03125 39.074219 L 13.613281 37.65625 C 13.417969 37.460938 13.164063 37.363281 12.90625 37.363281 Z "/>
</g>
</svg>
